SplineFontDB: 2.0
FontName: THK2DJuly8-BoldItalic
FullName: THK2DJuly8-BoldItalic
FamilyName: TH K2D July8
Weight: Bold
Copyright: Copyright (c) 2006 by Department of Intellectual Property (DIP), Ministry of Commerce and Software Industry Promotion Agency (Public Organization) (SIPA). All rights reserved.
Version: 1.1
ItalicAngle: -12
UnderlinePosition: -55
UnderlineWidth: 50
Ascent: 800
Descent: 200
XUID: [1021 375 425136265 7420101]
FSType: 0
OS2Version: 3
OS2_WeightWidthSlopeOnly: 0
OS2_UseTypoMetrics: 1
CreationTime: 1158666360
ModificationTime: 1204862161
PfmFamily: 17
TTFWeight: 700
TTFWidth: 5
LineGap: 60
VLineGap: 0
Panose: 2 0 5 6 0 0 0 2 0 4
OS2TypoAscent: 0
OS2TypoAOffset: 1
OS2TypoDescent: 0
OS2TypoDOffset: 1
OS2TypoLinegap: 0
OS2WinAscent: -26
OS2WinAOffset: 1
OS2WinDescent: -176
OS2WinDOffset: 1
HheadAscent: -26
HheadAOffset: 1
HheadDescent: 176
HheadDOffset: 1
OS2SubXSize: 700
OS2SubYSize: 650
OS2SubXOff: 0
OS2SubYOff: 140
OS2SupXSize: 700
OS2SupYSize: 650
OS2SupXOff: 0
OS2SupYOff: 477
OS2StrikeYSize: 50
OS2StrikeYPos: 250
OS2FamilyClass: 773
OS2Vendor: 'K2D '
Lookup: 4 0 0 "'frac' Diagonal Fractions in Latin lookup 0"  {"'frac' Diagonal Fractions in Latin lookup 0 subtable"  } ['frac' ('latn' <'dflt' > ) ]
Lookup: 6 0 0 "'liga' Standard Ligatures in Latin lookup 1"  {"'liga' Standard Ligatures in Latin lookup 1 subtable"  } ['liga' ('latn' <'dflt' > ) ]
Lookup: 6 0 0 "'liga' Standard Ligatures in Latin lookup 2"  {"'liga' Standard Ligatures in Latin lookup 2 subtable"  } ['liga' ('latn' <'dflt' > ) ]
Lookup: 6 0 0 "'liga' Standard Ligatures in Latin lookup 3"  {"'liga' Standard Ligatures in Latin lookup 3 subtable"  } ['liga' ('latn' <'dflt' > ) ]
Lookup: 6 0 0 "'liga' Standard Ligatures in Latin lookup 4"  {"'liga' Standard Ligatures in Latin lookup 4 subtable"  } ['liga' ('latn' <'dflt' > ) ]
Lookup: 6 0 0 "'liga' Standard Ligatures in Latin lookup 5"  {"'liga' Standard Ligatures in Latin lookup 5 subtable"  } ['liga' ('latn' <'dflt' > ) ]

StartChar: .notdef
Encoding: 65536 -1 0
Width: 783
VWidth: 1507
Flags: W
HStem: 0 59<191 612> 989 59<389 809>
Fore
612 59 m 1
 809 989 l 1
 389 989 l 1
 191 59 l 1
 612 59 l 1
687 0 m 1
 92 0 l 1
 314 1048 l 1
 909 1048 l 1
 687 0 l 1
EndSplineSet
EndChar
StartChar: numbersign
Encoding: 35 35 4
Width: 652
VWidth: 1507
Flags: W
HStem: 220 54<107.469 225 327 398 502 622.459> 434 53<175.816 295 398 469 571 692.742>
Fore
549 677 m 2
 561 716 595 732 651 724 c 1
 571 487 l 1
 708 487 l 1
 700 452 675 434 632 434 c 2
 555 434 l 1
 502 274 l 1
 639 274 l 1
 631 238 605 220 562 220 c 2
 485 220 l 1
 425 38 l 2
 413 -1 378 -16 321 -8 c 1
 398 220 l 1
 311 220 l 1
 252 38 l 2
 239 -1 205 -16 148 -8 c 1
 225 220 l 1
 92 220 l 1
 99 256 124 274 167 274 c 2
 241 274 l 1
 295 434 l 1
 161 434 l 1
 168 469 194 487 237 487 c 2
 312 487 l 1
 375 677 l 2
 387 715 421 731 478 724 c 1
 398 487 l 1
 485 487 l 1
 549 677 l 2
327 274 m 1
 415 274 l 1
 469 434 l 1
 381 434 l 1
 327 274 l 1
EndSplineSet
EndChar
StartChar: dollar
Encoding: 36 36 5
Width: 712
VWidth: 1507
Flags: W
HStem: -6 62<246.031 316.924> 660 62<550 604.374>
VStem: 99 96<122.543 223.696> 194 97<449.508 569.616> 604 98<171.425 282.161> 631 97<501.071 589.011>
Fore
309 -6 m 1xc8
 199 8 99 74 99 185 c 0
 99 240 162 261 206 261 c 1
 205 257 204 249 202 243 c 2
 199 228 l 2
 196 216 195 204 195 193 c 0xe8
 195 138 231 72 321 56 c 1
 383 345 l 1
 273 369 194 401 194 485 c 0
 194 624 335 708 463 722 c 1
 469 746 l 2
 477 782 510 800 567 800 c 1
 550 722 l 1
 709 701 728 592 728 540 c 0
 728 518 725 495 688 475 c 0
 669 465 645 458 618 458 c 1
 618 458 631 495 631 533 c 0xd4
 631 551 630 641 538 660 c 1
 481 393 l 1
 628 364 702 336 702 247 c 0
 702 146 572 13 396 -6 c 1
 390 -30 l 2
 382 -66 349 -84 292 -84 c 1
 309 -6 l 1xc8
408 56 m 1
 516 74 604 165 604 237 c 0
 604 274 583 300 467 329 c 1
 408 56 l 1
451 660 m 1
 354 642 291 571 291 500 c 0xd0
 291 464 311 432 396 410 c 1
 451 660 l 1
EndSplineSet
EndChar
StartChar: percent
Encoding: 37 37 6
Width: 884
VWidth: 1507
Flags: W
HStem: -5 50<604.973 723.392> 306 50<249.208 368.625> 360 50<663.554 781.298> 671 49<307.15 426.407>
VStem: 151 85<370.381 417.75 416 419.5 419.5 443.917> 439 84<584.541 608.5 608.5 611.023 609.762 656.688> 508 84<59.0533 107 107 107 107 131.459> 793 86<272.083 297 297 299.023 298.012 346.378>
Fore
383 720 m 0xfd
 471 720 525 674 525 621 c 0
 525 615 525 608 523 601 c 2
 487 427 l 2
 470 352 375 306 295 306 c 256
 224 306 151 343 151 405 c 0
 151 412 152 420 154 427 c 2
 190 601 l 2
 205 664 281 720 383 720 c 0xfd
441 616 m 0
 441 649 411 671 372 671 c 0
 322 671 284 639 274 601 c 2
 238 427 l 2
 237 422 236 417 236 412 c 0
 236 378 266 356 306 356 c 0
 352 356 393 387 402 427 c 2
 439 601 l 2
 440 606 441 611 441 616 c 0
739 410 m 0
 826 410 881 365 881 309 c 0
 881 303 880 296 879 289 c 2
 843 115 l 2
 831 53 745 -5 651 -5 c 256
 572 -5 508 37 508 99 c 0xfb
 508 104 508 110 509 115 c 2
 546 289 l 2
 562 359 644 410 739 410 c 0
795 305 m 0
 795 338 765 360 728 360 c 0
 678 360 640 328 630 289 c 2
 594 115 l 2
 593 110 592 104 592 99 c 0
 592 67 623 45 662 45 c 0
 707 45 746 77 757 115 c 2
 793 289 l 2
 794 294 795 300 795 305 c 0
730 724 m 2
 754 755 780 759 792 759 c 0
 806 759 822 754 838 745 c 1
 304 -2 l 2
 287 -27 267 -39 244 -39 c 0
 230 -39 214 -34 197 -23 c 1
 730 724 l 2
EndSplineSet
EndChar
StartChar: ampersand
Encoding: 38 38 7
Width: 678
VWidth: 1507
Flags: W
HStem: -9 60<209.197 391.761> 666 59<383.851 499.446>
VStem: 68 97<94.0526 240.279> 232 96<474.339 603.345> 512 96<537.127 653.251>
Fore
666 14 m 1
 652 1 631 -12 606 -12 c 0
 589 -12 574 -5 562 9 c 2
 515 68 l 1
 464 36 364 -9 264 -9 c 0
 151 -9 68 56 68 153 c 0
 68 254 150 349 268 405 c 1
 248 444 232 487 232 524 c 0
 232 625 330 725 467 725 c 0
 545 725 608 689 608 615 c 0
 608 515 510 439 381 384 c 1
 466 262 l 2
 492 222 515 192 534 170 c 1
 583 218 604 260 618 330 c 1
 658 330 695 321 695 285 c 0
 695 253 667 200 579 121 c 1
 624 62 l 2
 638 45 652 29 666 14 c 1
448 666 m 256
 373 666 328 592 328 523 c 0
 328 505 329 494 357 436 c 1
 463 485 512 535 512 601 c 0
 512 633 499 666 448 666 c 256
165 158 m 0
 165 89 220 51 288 51 c 0
 363 51 429 84 475 118 c 1
 466 129 454 143 441 161 c 2
 301 354 l 1
 269 336 165 276 165 158 c 0
EndSplineSet
EndChar
StartChar: quotesingle
Encoding: 39 39 8
Width: 250
VWidth: 1507
Flags: W
HStem: 503 222<242.679 253>
VStem: 210 123<651 743.01>
Fore
210 651 m 2
 218 704 269 725 333 725 c 1
 289 564 l 2
 284 548 253 503 187 503 c 1
 210 651 l 2
EndSplineSet
EndChar
StartChar: parenleft
Encoding: 40 40 9
Width: 318
VWidth: 1507
Flags: W
VStem: 117 93<16.1746 261.955>
Fore
280 -109 m 1
 266 -124 250 -133 229 -133 c 0
 213 -133 201 -125 193 -110 c 0
 137 -14 117 83 117 166 c 0
 117 354 202 532 298 646 c 0
 383 747 395 750 416 750 c 0
 427 750 447 747 458 725 c 1
 326 598 262 462 229 307 c 0
 216 249 210 196 210 147 c 0
 210 77 227 -22 280 -109 c 1
EndSplineSet
EndChar
StartChar: asterisk
Encoding: 42 42 11
Width: 464
VWidth: 1507
Flags: W
HStem: 375 382<332 363 332 332> 531 66<155 198 140 558 155 155>
Fore
392 540 m 1x40
 422 482 l 1
 458 421 l 1
 363 375 l 1
 329 496 l 1
 324 488 315 474 307 463 c 2
 240 375 l 1x80
 178 422 l 1
 294 543 l 1
 237 538 l 2
 208 534 198 534 140 531 c 1
 155 597 l 1x40
 306 585 l 1
 294 609 288 612 280 632 c 2
 238 707 l 1
 332 757 l 1
 366 641 l 1
 394 679 430 729 448 757 c 1x80
 519 708 l 1
 399 585 l 1
 460 589 l 2
 509 594 519 592 558 598 c 1
 543 531 l 1
 392 540 l 1x40
EndSplineSet
EndChar
StartChar: plus
Encoding: 43 43 12
Width: 633
VWidth: 1507
Flags: W
HStem: 271 56<119.013 326 431 638.213>
Fore
326 271 m 1
 101 271 l 1
 109 308 136 327 181 327 c 2
 338 327 l 1
 372 496 l 2
 381 536 417 556 479 556 c 1
 431 327 l 1
 657 327 l 1
 648 290 621 271 576 271 c 2
 419 271 l 1
 383 101 l 2
 374 62 338 42 276 42 c 1
 326 271 l 1
EndSplineSet
EndChar
StartChar: comma
Encoding: 44 44 13
Width: 223
VWidth: 1507
Flags: MW
HStem: -9 118<91.5 154>
VStem: 48 150<56.5 58.5> 110 88<-9 61>
Fore
48 37 m 0
 48 80 90 109 136 109 c 256
 172 109 198 90 198 61 c 0
 198 52 184 -52 107 -116 c 0
 68 -148 60 -150 48 -150 c 0
 38 -150 29 -147 23 -140 c 1
 68 -106 97 -62 110 -9 c 1
 73 -9 48 9 48 37 c 0
EndSplineSet
EndChar
StartChar: hyphen
Encoding: 45 45 14
Width: 384
VWidth: 1507
Flags: W
HStem: 270 59<117.795 391.615 99 410 181 181>
Fore
410 329 m 1
 400 288 377 270 329 270 c 2
 99 270 l 1
 106 309 134 329 181 329 c 2
 410 329 l 1
EndSplineSet
EndChar
StartChar: period
Encoding: 46 46 15
Width: 227
VWidth: 1507
Flags: W
HStem: -9 118<73.2436 172.656>
VStem: 48 150<16.0499 84.1423>
Fore
48 37 m 0
 48 80 90 109 136 109 c 256
 172 109 198 90 198 61 c 0
 198 31 168 -9 110 -9 c 256
 73 -9 48 9 48 37 c 0
EndSplineSet
EndChar
StartChar: slash
Encoding: 47 47 16
Width: 450
VWidth: 1507
Flags: W
Fore
512 720 m 2
 530 743 552 756 575 756 c 0
 589 756 605 751 621 742 c 1
 87 -5 l 2
 70 -30 50 -42 27 -42 c 0
 13 -42 -3 -37 -20 -26 c 1
 512 720 l 2
EndSplineSet
EndChar
StartChar: zero
Encoding: 48 48 17
Width: 723
VWidth: 1507
Flags: W
HStem: -9 60<278.895 467.813> 665 60<402.803 591.124>
VStem: 120 96<107.051 182.805 182.5 183.109 183.109 196 196 212.435> 653 96<503.8 520 520 532.728 532.728 533 532.864 608.317>
Fore
514 725 m 256
 645 725 753 656 753 552 c 0
 753 542 751 531 749 520 c 2
 680 196 l 2
 655 79 506 -9 357 -9 c 256
 225 -9 120 60 120 163 c 0
 120 174 122 185 124 196 c 2
 193 520 l 2
 218 638 365 725 514 725 c 256
656 546 m 0
 656 617 590 665 500 665 c 0
 391 665 302 590 288 520 c 2
 219 196 l 2
 217 187 216 178 216 169 c 0
 216 98 283 51 371 51 c 0
 461 51 565 107 583 196 c 2
 653 520 l 2
 655 529 656 537 656 546 c 0
EndSplineSet
EndChar
StartChar: one
Encoding: 49 49 18
Width: 723
VWidth: 1507
Flags: MW
HStem: -9 21G<343.264 371.5> 657 59<378.288 481>
Fore
543 716 m 2
 573 716 584 700 584 689 c 0
 584 687 583 686 583 684 c 1
 449 54 l 2
 440 12 404 -9 339 -9 c 1
 481 657 l 1
 433 657 l 2
 393 657 373 672 373 701 c 0
 373 706 373 711 374 716 c 1
 543 716 l 2
EndSplineSet
EndChar
StartChar: two
Encoding: 50 50 19
Width: 723
VWidth: 1507
Flags: W
HStem: 0 60<194 632.51> 665 60<407.563 586.461>
VStem: 200 80<492.407 532 532 537> 654 96<461.699 604.395>
Fore
515 725 m 0
 630 725 750 660 750 546 c 0
 750 499 741 407 530 312 c 2
 427 268 l 2
 344 231 232 164 194 60 c 1
 574 60 l 2
 609 60 640 48 640 14 c 0
 640 10 640 5 639 0 c 1
 130 0 l 2
 113 0 89 7 89 23 c 0
 89 24 106 199 399 323 c 0
 487 360 654 407 654 534 c 0
 654 617 582 665 502 665 c 256
 390 665 280 575 280 473 c 1
 227 473 200 508 200 532 c 2
 200 537 l 1
 252 655 392 725 515 725 c 0
EndSplineSet
EndChar
StartChar: three
Encoding: 51 51 20
Width: 723
VWidth: 1507
Flags: W
HStem: -9 60<284.117 466.444> 359 62<397.862 522.072> 665 60<419.414 575.741>
VStem: 123 94<111.242 207.655> 241 89<522.592 584.177> 588 97<161.372 300.373> 620 96<500.473 623.605>
Fore
241 553 m 0xfa
 241 603 344 725 514 725 c 256
 628 725 716 663 716 571 c 0xfa
 716 477 627 418 576 392 c 1
 664 354 685 284 685 240 c 0
 685 108 529 -9 357 -9 c 256
 208 -9 123 82 123 158 c 0
 123 238 189 238 231 238 c 1
 219 210 217 190 217 178 c 0
 217 107 280 51 371 51 c 256
 484 51 588 138 588 233 c 0xfc
 588 308 522 359 436 359 c 0
 411 359 394 369 394 385 c 0
 394 407 419 421 449 421 c 0
 541 421 620 493 620 569 c 0
 620 621 572 665 500 665 c 0
 432 665 330 611 330 511 c 1
 255 511 241 536 241 553 c 0xfa
EndSplineSet
EndChar
StartChar: four
Encoding: 52 52 21
Width: 723
VWidth: 1507
Flags: W
HStem: -9 21G<464.278 491.5> 178 60<220 500 607 707.691>
Fore
668 733 m 0
 683 733 705 727 705 701 c 0
 705 698 704 696 704 693 c 1
 607 238 l 1
 728 238 l 1
 719 198 691 178 645 178 c 2
 595 178 l 1
 568 54 l 2
 559 12 523 -9 460 -9 c 1
 500 178 l 1
 134 178 l 2
 106 178 98 199 98 206 c 0
 98 213 102 221 110 228 c 2
 626 714 l 2
 640 727 655 733 668 733 c 0
512 238 m 1
 585 580 l 1
 220 238 l 1
 512 238 l 1
EndSplineSet
EndChar
StartChar: five
Encoding: 53 53 22
Width: 723
VWidth: 1507
Flags: W
HStem: -9 60<293.23 453.576> 458 59<395.446 534.302> 657 59<448 722.71>
VStem: 132 94<123.458 255.341> 600 98<206.346 388.313>
Fore
375 690 m 2
 382 706 404 716 427 716 c 2
 742 716 l 1
 735 677 706 657 657 657 c 2
 448 657 l 1
 365 499 l 1
 396 511 430 517 469 517 c 256
 622 517 698 408 698 307 c 0
 698 156 546 -9 357 -9 c 256
 227 -9 132 72 132 194 c 0
 132 254 146 286 241 286 c 1
 234 272 226 239 226 208 c 0
 226 125 278 51 371 51 c 256
 489 51 600 176 600 304 c 0
 600 388 548 458 457 458 c 0
 393 458 340 423 307 390 c 0
 294 380 274 370 252 370 c 0
 226 370 219 385 219 396 c 0
 219 401 221 408 225 416 c 2
 375 690 l 2
EndSplineSet
EndChar
StartChar: six
Encoding: 54 54 23
Width: 723
VWidth: 1507
Flags: W
HStem: -9 60<293.735 453.576> 458 59<448.809 534.302>
VStem: 130 96<122.237 269.584> 600 98<206.346 388.313>
Fore
357 -9 m 256
 214 -9 130 92 130 202 c 0
 130 222 128 324 259 443 c 2
 559 704 l 2
 579 721 598 730 615 730 c 0
 632 730 648 722 663 705 c 1
 446 515 l 1
 451 516 459 517 469 517 c 0
 622 517 698 408 698 307 c 0
 698 156 546 -9 357 -9 c 256
371 51 m 256
 489 51 600 176 600 304 c 0
 600 388 548 458 457 458 c 256
 337 458 226 332 226 208 c 0
 226 125 278 51 371 51 c 256
EndSplineSet
EndChar
StartChar: seven
Encoding: 55 55 24
Width: 723
VWidth: 1507
Flags: W
HStem: -10 21G<248 267.5> 657 59<248.859 677>
Fore
751 716 m 2
 778 716 791 697 791 685 c 0
 791 680 789 674 785 668 c 2
 315 23 l 2
 298 1 279 -10 256 -10 c 0
 240 -10 223 -5 205 5 c 1
 677 657 l 1
 303 657 l 2
 263 657 243 672 243 702 c 0
 243 706 243 711 244 716 c 1
 751 716 l 2
EndSplineSet
EndChar
StartChar: eight
Encoding: 56 56 25
Width: 723
VWidth: 1507
Flags: W
HStem: -9 60<283.872 466.444> 359 62<374.571 522.072> 665 60<417.063 575.741>
VStem: 121 96<111.242 250.443> 234 96<460.815 582.968> 588 97<161.372 300.373> 620 96<500.473 623.605>
Fore
234 516 m 0xfc
 234 626 371 725 514 725 c 256
 628 725 716 663 716 571 c 0xfa
 716 477 627 418 576 392 c 1
 664 354 685 284 685 240 c 0
 685 108 529 -9 357 -9 c 256
 223 -9 121 65 121 171 c 0
 121 287 241 364 309 392 c 1
 263 422 234 466 234 516 c 0xfc
436 359 m 256
 325 359 217 273 217 178 c 0
 217 107 280 51 371 51 c 256
 484 51 588 138 588 233 c 0xfc
 588 308 522 359 436 359 c 256
500 665 m 0
 412 665 330 593 330 517 c 0
 330 463 378 421 449 421 c 0
 541 421 620 493 620 569 c 0xfa
 620 621 572 665 500 665 c 0
EndSplineSet
EndChar
StartChar: nine
Encoding: 57 57 26
Width: 723
VWidth: 1507
Flags: W
HStem: -15 21G<248 262.5> 199 60<340.387 424> 665 60<417.856 576.089>
VStem: 175 96<330.897 508.458> 646 96<417.297 593.802>
Fore
514 725 m 256
 649 725 742 635 742 514 c 0
 742 466 730 381 612 274 c 2
 312 12 l 2
 287 -12 268 -15 257 -15 c 0
 239 -15 223 -6 208 11 c 1
 424 199 l 1
 402 199 l 2
 262 199 175 294 175 407 c 0
 175 579 344 725 514 725 c 256
500 665 m 256
 386 665 271 545 271 416 c 0
 271 334 323 259 415 259 c 256
 534 259 646 387 646 509 c 0
 646 591 593 665 500 665 c 256
EndSplineSet
EndChar
StartChar: less
Encoding: 60 60 29
Width: 633
VWidth: 1507
Flags: W
HStem: -3 21G<542.071 582.5>
Fore
702 601 m 1
 704 594 704 587 704 580 c 0
 704 548 687 527 665 517 c 2
 222 298 l 1
 573 81 l 2
 585 73 592 62 592 48 c 0
 592 43 591 23 574 -3 c 1
 127 277 l 2
 114 283 110 290 110 298 c 0
 110 304 119 312 136 321 c 2
 702 601 l 1
EndSplineSet
EndChar
StartChar: equal
Encoding: 61 61 30
Width: 633
VWidth: 1507
Flags: W
HStem: 181 57<99.0129 619.868> 360 58<137.727 656.927>
Fore
119 360 m 1
 128 399 155 418 199 418 c 2
 675 418 l 1
 667 379 640 360 594 360 c 2
 119 360 l 1
81 181 m 1
 89 219 116 238 161 238 c 2
 638 238 l 1
 630 200 603 181 556 181 c 2
 81 181 l 1
EndSplineSet
EndChar
StartChar: question
Encoding: 63 63 32
Width: 533
VWidth: 1507
Flags: W
HStem: -9 118<220.875 320.526> 668 57<324.883 470.523>
VStem: 195 151<16.0946 83.601> 510 92<478.665 628.766>
Fore
413 725 m 0
 545 725 602 644 602 568 c 0
 602 530 591 451 496 378 c 2
 449 344 l 2
 379 295 363 275 356 235 c 2
 348 203 l 2
 339 163 305 143 244 143 c 1
 264 235 l 2
 300 387 510 388 510 563 c 0
 510 625 469 668 401 668 c 0
 335 668 257 620 235 525 c 0
 233 506 233 512 231 493 c 1
 179 493 151 525 151 547 c 0
 151 576 248 725 413 725 c 0
195 37 m 0
 195 76 235 109 282 109 c 0
 319 109 346 90 346 60 c 0
 346 28 312 -9 256 -9 c 0
 224 -9 195 7 195 37 c 0
EndSplineSet
EndChar
StartChar: at
Encoding: 64 64 33
Width: 877
VWidth: 1507
Flags: W
HStem: -9 51<360.413 571.582> 136 54<374.673 473.293 577.211 666.871> 522 55<512.349 607.518> 675 50<487.308 698.286>
VStem: 142 84<176.839 399.087> 265 99<198.043 337.349> 808 88<375.491 574.46>
Fore
364 253 m 0
 364 214 380 190 415 190 c 256
 509 190 616 377 616 460 c 0
 616 485 608 522 574 522 c 0
 471 522 364 350 364 253 c 0
591 577 m 0
 665 577 680 539 684 529 c 1
 701 558 l 1
 787 558 l 1
 623 252 l 2
 620 247 603 220 603 199 c 0
 603 191 605 187 610 187 c 0
 683 187 808 338 808 482 c 0
 808 609 708 675 597 675 c 0
 396 675 226 472 226 284 c 0
 226 146 321 42 463 42 c 0
 572 42 675 107 736 176 c 0
 752 193 766 201 779 201 c 0
 802 201 815 177 817 173 c 1
 731 68 598 -9 452 -9 c 0
 261 -9 142 122 142 284 c 0
 142 513 371 725 606 725 c 0
 779 725 896 623 896 483 c 0
 896 302 714 136 589 136 c 0
 550 136 527 151 519 181 c 1
 491 163 442 136 390 136 c 0
 313 136 265 181 265 250 c 0
 265 355 397 577 591 577 c 0
EndSplineSet
EndChar
StartChar: A
Encoding: 65 65 34
Width: 663
VWidth: 1507
Flags: W
HStem: -17 21G<77.5 105.048 555.466 580> 232 60<280 506> 707 20G<472 494>
Fore
93 -17 m 1
 62 -4 42 20 42 47 c 0
 42 56 44 65 50 74 c 2
 436 707 l 2
 444 720 460 727 484 727 c 0
 504 727 521 719 525 707 c 2
 642 74 l 1
 642 69 l 2
 642 34 601 -1 559 -17 c 1
 515 232 l 1
 243 232 l 1
 93 -17 l 1
454 586 m 1
 280 292 l 1
 506 292 l 1
 454 586 l 1
EndSplineSet
EndChar
StartChar: B
Encoding: 66 66 35
Width: 731
VWidth: 1507
Flags: W
HStem: 0 60<196 562.593> 330 60<267 511 558 566.633> 659 58<323 613.206>
VStem: 637 94<148.178 304.805> 644 97<479.813 629.377>
Fore
741 565 m 0xe8
 741 498 698 416 621 378 c 1
 705 353 731 286 731 235 c 0xf0
 731 143 647 -0 488 0 c 2
 136 0 l 2
 113 0 92 11 92 28 c 0
 92 30 93 31 93 33 c 1
 232 684 l 2
 236 705 260 717 288 717 c 2
 580 717 l 2
 687 717 741 638 741 565 c 0xe8
644 557 m 0xe8
 644 614 613 659 567 659 c 2
 323 659 l 1
 267 390 l 1
 511 390 l 2
 561 390 644 462 644 557 c 0xe8
637 239 m 0xf0
 637 296 605 330 558 330 c 2
 253 330 l 1
 196 60 l 1
 500 60 l 2
 583 60 637 158 637 239 c 0xf0
EndSplineSet
EndChar
StartChar: C
Encoding: 67 67 36
Width: 729
VWidth: 1507
Flags: W
HStem: -9 60<290.739 481.883> 666 61<410.867 603.917>
VStem: 116 98<122.166 223.573> 628 80<184.654 245.397> 683 96<486.754 593.949>
Fore
683 521 m 0xe8
 683 605 612 666 511 666 c 256
 388 666 289 576 273 491 c 2
 217 228 l 2
 215 217 214 207 214 197 c 0
 214 110 287 51 381 51 c 0
 480 51 607 119 628 244 c 1
 628 250 629 256 629 261 c 1
 661 261 708 247 708 206 c 0xf0
 708 140 566 -9 368 -9 c 0
 224 -9 116 78 116 185 c 0
 116 199 118 213 121 228 c 2
 176 491 l 2
 204 632 378 727 525 727 c 0
 639 727 776 671 779 535 c 0
 779 473 705 458 671 458 c 1
 671 458 683 495 683 521 c 0xe8
EndSplineSet
EndChar
StartChar: D
Encoding: 68 68 37
Width: 759
VWidth: 1507
Flags: W
HStem: 0 60<196 495.126> 659 58<323 612.314>
VStem: 693 94<465.821 482 482 494.728 494.728 496.438 495.583 585.336>
Fore
92 28 m 0
 92 30 93 31 93 33 c 1
 232 684 l 2
 236 705 260 717 288 717 c 2
 538 717 l 2
 675 717 792 640 792 525 c 0
 792 511 790 497 787 482 c 2
 734 237 l 2
 701 88 527 0 386 0 c 2
 136 0 l 2
 113 0 92 11 92 28 c 0
697 514 m 0
 697 592 625 659 525 659 c 2
 323 659 l 1
 196 60 l 1
 398 60 l 2
 500 60 619 134 641 237 c 2
 693 482 l 2
 695 493 697 504 697 514 c 0
EndSplineSet
EndChar
StartChar: E
Encoding: 69 69 38
Width: 729
VWidth: 1507
Flags: W
HStem: -9 60<290.739 480.965> 330 60<252 528.196> 666 61<410.867 603.917>
VStem: 116 98<122.166 223.573> 629 79<184.734 245.397> 683 96<486.754 593.949>
Fore
683 521 m 0xf4
 683 605 612 666 511 666 c 256
 388 666 289 576 273 491 c 2
 252 390 l 1
 549 390 l 1
 540 350 511 330 463 330 c 2
 238 330 l 1
 217 228 l 2
 215 217 214 207 214 197 c 0
 214 110 287 51 381 51 c 0
 513 51 629 158 629 261 c 1
 661 261 708 247 708 206 c 0xf8
 708 140 566 -9 368 -9 c 0
 224 -9 116 78 116 185 c 0
 116 199 118 213 121 228 c 2
 176 491 l 2
 204 632 378 727 525 727 c 0
 639 727 776 671 779 535 c 0
 779 473 705 458 671 458 c 1
 671 458 683 495 683 521 c 0xf4
EndSplineSet
EndChar
StartChar: F
Encoding: 70 70 39
Width: 729
VWidth: 1507
Flags: W
HStem: -9 21G<73.28 101.5> 330 60<252 528.196> 666 61<410.867 605.488>
VStem: 683 96<488.188 594.945>
Fore
683 521 m 0
 683 605 612 666 511 666 c 256
 388 666 289 576 273 491 c 2
 252 390 l 1
 549 390 l 1
 540 350 511 330 463 330 c 2
 238 330 l 1
 179 54 l 2
 170 12 134 -9 69 -9 c 1
 176 491 l 2
 204 632 378 727 525 727 c 0
 646 727 779 662 779 535 c 0
 779 473 700 458 671 458 c 1
 671 458 683 495 683 521 c 0
EndSplineSet
EndChar
StartChar: G
Encoding: 71 71 40
Width: 744
VWidth: 1507
Flags: W
HStem: -9 60<290.739 480.66> 330 60<444.443 644> 666 61<410.867 604.086>
VStem: 116 98<122.166 213.019 212.477 213.562 213.562 228 228 244.438> 683 96<486.754 593.615>
Fore
704 390 m 2
 736 390 746 374 746 363 c 0
 746 361 745 359 745 357 c 1
 717 228 l 2
 684 75 505 -9 368 -9 c 256
 224 -9 116 78 116 185 c 0
 116 199 118 213 121 228 c 2
 176 491 l 2
 204 632 378 727 525 727 c 0
 639 727 779 669 779 535 c 0
 779 473 705 458 671 458 c 1
 671 458 683 495 683 521 c 0
 683 605 612 666 511 666 c 256
 388 666 289 576 273 491 c 2
 217 228 l 2
 215 217 214 207 214 197 c 0
 214 110 287 51 381 51 c 0
 485 51 601 124 623 228 c 2
 644 330 l 1
 424 330 l 1
 433 370 461 390 509 390 c 2
 704 390 l 2
EndSplineSet
EndChar
StartChar: H
Encoding: 72 72 41
Width: 774
VWidth: 1507
Flags: W
HStem: -9 21G<88.2857 116.5 590.307 617.5> 330 60<267 659> 707 20G<305.5 333.786 806.5 833.75>
Fore
695 54 m 2
 686 12 649 -9 586 -9 c 1
 659 330 l 1
 253 330 l 1
 194 54 l 2
 185 12 149 -9 84 -9 c 1
 228 663 l 2
 237 706 273 727 338 727 c 1
 267 390 l 1
 672 390 l 1
 730 663 l 2
 739 706 775 727 838 727 c 1
 695 54 l 2
EndSplineSet
EndChar
StartChar: I
Encoding: 73 73 42
Width: 271
VWidth: 1507
Flags: W
HStem: -9 736
Fore
194 54 m 2
 185 12 149 -9 84 -9 c 1
 228 663 l 2
 237 706 273 727 338 727 c 1
 194 54 l 2
EndSplineSet
EndChar
StartChar: J
Encoding: 74 74 43
Width: 670
VWidth: 1507
Flags: W
HStem: -9 60<261.571 420.919> 659 58<459.746 639>
VStem: 101 97<113.905 223.578>
Fore
211 261 m 1
 201 234 198 208 198 190 c 0
 198 115 252 51 338 51 c 0
 435 51 529 137 549 228 c 2
 639 659 l 1
 515 659 l 2
 475 659 455 673 455 700 c 0
 455 705 455 711 457 717 c 1
 702 717 l 2
 733 717 741 701 741 690 c 0
 741 688 740 686 740 684 c 1
 644 228 l 2
 612 86 459 -9 324 -9 c 0
 197 -9 101 69 101 185 c 0
 101 240 166 261 211 261 c 1
EndSplineSet
EndChar
StartChar: K
Encoding: 75 75 44
Width: 714
VWidth: 1507
Flags: W
HStem: -9 21G<88.2857 116.5 530.264 557.5> 366 59<428.091 510.953> 707 20G<305.5 333.718>
VStem: 568 95<171.583 188 188 200.523 200.523 200.988 200.755 303.488>
Fore
572 226 m 0
 572 297 523 366 433 366 c 0
 328 366 241 272 223 188 c 2
 194 54 l 2
 185 12 149 -9 84 -9 c 1
 228 663 l 2
 237 706 273 727 338 727 c 1
 262 372 l 1
 720 737 l 1
 732 722 738 707 738 693 c 0
 738 677 730 661 713 647 c 2
 437 428 l 1
 425 424 l 1
 428 425 432 425 435 425 c 2
 445 425 l 2
 568 425 668 347 668 234 c 0
 668 219 667 204 663 188 c 2
 635 54 l 2
 626 12 589 -9 526 -9 c 1
 568 188 l 2
 571 201 572 214 572 226 c 0
EndSplineSet
EndChar
StartChar: L
Encoding: 76 76 45
Width: 654
VWidth: 1507
Flags: W
HStem: 0 60<196 619.141> 707 20G<305.5 333.742>
Fore
92 28 m 0
 92 30 93 31 93 33 c 1
 228 663 l 2
 237 706 273 727 338 727 c 1
 196 60 l 1
 565 60 l 2
 605 60 625 45 625 15 c 0
 625 10 625 5 624 0 c 1
 136 0 l 2
 113 0 92 11 92 28 c 0
EndSplineSet
EndChar
StartChar: M
Encoding: 77 77 46
Width: 886
VWidth: 1507
Flags: W
HStem: -9 21G<90.256 117.5 425 448.5 700.272 728.5> 707 20G<305 340.441 842.112 882.5>
Fore
229 663 m 2
 238 706 274 727 336 727 c 1
 469 128 l 1
 855 727 l 1
 910 727 938 711 938 678 c 0
 938 674 937 668 936 663 c 2
 806 54 l 2
 797 12 761 -9 696 -9 c 1
 806 506 l 1
 487 12 l 2
 478 1 458 -9 439 -9 c 256
 411 -9 401 7 399 12 c 1
 291 506 l 1
 194 54 l 2
 185 12 149 -9 86 -9 c 1
 229 663 l 2
EndSplineSet
EndChar
StartChar: N
Encoding: 78 78 47
Width: 774
VWidth: 1507
Flags: W
HStem: -9 21G<88.2857 116.5 592.863 629> 707 20G<305.5 348.053 738.767 770.5>
Fore
228 663 m 2
 237 706 273 727 338 727 c 1
 623 160 l 1
 743 727 l 1
 798 727 826 711 826 678 c 0
 826 674 825 668 824 663 c 2
 695 54 l 2
 686 12 655 -9 603 -9 c 1
 306 577 l 1
 194 54 l 2
 185 12 149 -9 84 -9 c 1
 228 663 l 2
EndSplineSet
EndChar
StartChar: O
Encoding: 79 79 48
Width: 884
VWidth: 1507
Flags: W
HStem: -9 60<352.664 563.042> 666 61<470.211 682.105>
VStem: 126 96<183.055 401.129> 811 97<312.928 535.014>
Fore
126 283 m 0
 126 510 347 727 594 727 c 256
 771 727 908 610 908 435 c 0
 908 212 690 -9 437 -9 c 256
 248 -9 126 120 126 283 c 0
580 666 m 0
 396 666 222 481 222 290 c 0
 222 153 313 51 451 51 c 0
 640 51 811 238 811 429 c 0
 811 558 726 666 580 666 c 0
EndSplineSet
EndChar
StartChar: P
Encoding: 80 80 49
Width: 744
VWidth: 1507
Flags: W
HStem: -9 21G<88.2713 116.5> 330 60<267 625.214> 659 58<323 672.173>
VStem: 702 97<477.568 628.912>
Fore
799 564 m 0
 799 447 682 330 556 330 c 2
 253 330 l 1
 194 54 l 2
 185 12 149 -9 84 -9 c 1
 232 684 l 2
 236 705 260 717 288 717 c 2
 639 717 l 2
 746 717 799 637 799 564 c 0
702 557 m 0
 702 604 678 659 626 659 c 2
 323 659 l 1
 267 390 l 1
 570 390 l 2
 622 390 702 464 702 557 c 0
EndSplineSet
EndChar
StartChar: Q
Encoding: 81 81 50
Width: 884
VWidth: 1507
Flags: W
HStem: -13 54<761.396 817.621> -9 60<347.42 564.855> 243 60<292.207 440.829> 666 61<472.614 682.105>
VStem: 126 96<286 398.11> 811 97<348.515 535.014>
Fore
724 92 m 1x7c
 747 72 780 41 832 41 c 1
 824 5 803 -13 771 -13 c 0xbc
 762 -13 707 -9 653 45 c 1
 600 18 523 -9 437 -9 c 0
 248 -9 126 120 126 283 c 0
 126 510 347 727 594 727 c 256
 771 727 908 610 908 435 c 0
 908 298 830 171 724 92 c 1x7c
580 666 m 0
 387 666 222 474 222 286 c 1
 264 297 305 303 344 303 c 0
 526 303 639 187 674 142 c 1
 807 253 811 406 811 429 c 0
 811 558 726 666 580 666 c 0
229 222 m 1
 249 137 318 51 451 51 c 0x7c
 505 51 558 65 609 93 c 1
 528 184 443 243 332 243 c 0
 301 243 267 236 229 222 c 1
EndSplineSet
EndChar
StartChar: R
Encoding: 82 82 51
Width: 761
VWidth: 1507
Flags: W
HStem: -9 21G<88.2713 116.5 592.293 619.5> 330 60<267 609.786> 659 58<323 672.173>
VStem: 632 95<179.968 196 196 210.601 210.601 212.5 211.551 303.971> 702 97<480.955 628.912>
Fore
702 557 m 0xe8
 702 604 678 659 626 659 c 2
 323 659 l 1
 267 390 l 1
 570 390 l 2
 622 390 702 464 702 557 c 0xe8
637 238 m 0
 637 295 604 330 556 330 c 2
 253 330 l 1
 194 54 l 2
 185 12 149 -9 84 -9 c 1
 232 684 l 2
 236 705 260 717 288 717 c 2
 639 717 l 2
 746 717 799 637 799 564 c 0xe8
 799 481 735 403 660 357 c 1
 703 330 730 280 730 229 c 0
 730 218 729 207 727 196 c 2
 696 54 l 2
 687 12 651 -9 588 -9 c 1
 632 196 l 2xf0
 635 211 637 226 637 238 c 0
EndSplineSet
EndChar
StartChar: S
Encoding: 83 83 52
Width: 714
VWidth: 1507
Flags: W
HStem: -9 60<274.343 465.156> 666 61<397.223 576.774>
VStem: 98 97<124.791 224.141> 194 97<452.892 570.504> 605 98<170.938 282.287> 633 97<496.525 610.245>
Fore
206 261 m 1xe8
 201 249 195 212 195 195 c 0
 195 118 265 51 365 51 c 0
 487 51 605 147 605 235 c 0xe8
 605 285 552 309 494 323 c 2
 418 341 l 2
 265 372 194 400 194 487 c 0
 194 623 345 727 508 727 c 0
 688 727 730 615 730 540 c 0
 730 497 665 458 620 458 c 1
 620 458 633 497 633 532 c 0
 633 611 584 666 494 666 c 256
 382 666 291 584 291 504 c 0xd4
 291 461 310 431 448 399 c 0
 630 367 703 332 703 250 c 0
 703 122 530 -9 351 -9 c 0
 208 -9 98 72 98 185 c 0
 98 246 172 261 206 261 c 1xe8
EndSplineSet
EndChar
StartChar: T
Encoding: 84 84 53
Width: 592
VWidth: 1507
Flags: W
HStem: -9 21G<250.222 277.5> 659 58<156.583 387 482 725.417>
Fore
745 717 m 1
 736 678 707 659 660 659 c 2
 482 659 l 1
 354 54 l 2
 345 12 309 -9 246 -9 c 1
 387 659 l 1
 137 659 l 1
 146 698 175 717 222 717 c 2
 745 717 l 1
EndSplineSet
EndChar
StartChar: U
Encoding: 85 85 54
Width: 774
VWidth: 1507
Flags: W
HStem: -9 60<305.739 492.804> 707 20G<305.5 333.751 806.5 833.792>
VStem: 131 98<122.166 213.019 212.477 213.562 213.562 228 228 244.476>
Fore
383 -9 m 256
 239 -9 131 78 131 185 c 0
 131 199 133 213 136 228 c 2
 228 663 l 2
 237 706 273 727 338 727 c 1
 232 228 l 2
 230 217 229 207 229 197 c 0
 229 110 302 51 396 51 c 0
 500 51 616 124 638 228 c 2
 730 663 l 2
 739 706 775 727 838 727 c 1
 733 228 l 2
 698 76 523 -9 383 -9 c 256
EndSplineSet
EndChar
StartChar: V
Encoding: 86 86 55
Width: 681
VWidth: 1507
Flags: W
HStem: -9 21G<324.5 347.5> 708 20G<202.5 220 763.5 785>
Fore
365 131 m 1
 699 687 l 2
 716 713 749 728 778 728 c 0
 792 728 804 725 817 719 c 1
 386 11 l 2
 376 -2 359 -9 336 -9 c 256
 313 -9 300 -2 297 11 c 2
 167 719 l 1
 182 725 196 728 209 728 c 0
 231 728 263 718 270 687 c 2
 365 131 l 1
EndSplineSet
EndChar
StartChar: W
Encoding: 87 87 56
Width: 991
VWidth: 1507
Flags: MW
HStem: 708 20G<198.5 221.5 1071 1093.5>
Fore
597 491 m 1
 330 -9 l 1
 283 -9 252 3 247 42 c 2
 167 722 l 1
 180 726 193 728 204 728 c 0
 239 728 265 711 268 684 c 2
 329 157 l 1
 582 638 l 2
 590 652 607 659 632 659 c 256
 657 659 670 652 672 638 c 2
 724 157 l 1
 864 420 l 1
 1007 684 l 2
 1022 711 1054 728 1088 728 c 0
 1099 728 1111 726 1123 722 c 1
 754 42 l 2
 730 -7 675 -9 650 -9 c 1
 597 491 l 1
EndSplineSet
EndChar
StartChar: X
Encoding: 88 88 57
Width: 663
VWidth: 1507
Flags: W
HStem: -13 21G<53 66 580.5 601.5> 712 20G<226 239 725.5 744.5>
Fore
182 714 m 1
 201 726 218 732 234 732 c 0
 244 732 272 728 286 701 c 2
 422 436 l 1
 671 701 l 2
 690 720 714 732 737 732 c 0
 752 732 767 726 781 714 c 1
 457 369 l 1
 645 5 l 1
 626 -7 609 -13 594 -13 c 0
 567 -13 550 4 541 20 c 2
 393 303 l 1
 127 20 l 2
 100 -11 71 -13 61 -13 c 0
 45 -13 30 -7 17 5 c 1
 360 369 l 1
 182 714 l 1
EndSplineSet
EndChar
StartChar: Y
Encoding: 89 89 58
Width: 633
VWidth: 1507
Flags: W
HStem: -9 21G<269.339 296.5> 712 20G<211 224 710.5 729.5>
Fore
374 54 m 2
 365 12 328 -9 265 -9 c 1
 347 369 l 1
 167 714 l 1
 186 726 203 732 219 732 c 0
 229 732 257 728 271 701 c 2
 407 436 l 1
 656 701 l 2
 675 720 699 732 722 732 c 0
 737 732 752 726 766 714 c 1
 442 369 l 1
 374 54 l 2
EndSplineSet
EndChar
StartChar: Z
Encoding: 90 90 59
Width: 663
VWidth: 1507
Flags: W
HStem: 0 60<155 628.141> 659 58<183.059 656>
Fore
737 717 m 2
 767 717 773 695 773 686 c 0
 773 679 769 672 763 666 c 2
 155 60 l 1
 574 60 l 2
 614 60 634 45 634 15 c 0
 634 10 634 5 633 0 c 1
 75 0 l 2
 46 0 39 22 39 31 c 0
 39 38 42 45 48 51 c 2
 656 659 l 1
 238 659 l 2
 198 659 179 672 179 699 c 0
 179 705 179 711 181 717 c 1
 737 717 l 2
EndSplineSet
EndChar
StartChar: bracketleft
Encoding: 91 91 60
Width: 318
VWidth: 1507
Flags: MW
HStem: -128 59<166 295.254> 683 60<326 463.263>
Fore
59 -128 m 1
 244 743 l 1
 484 743 l 1
 475 703 446 683 399 683 c 2
 326 683 l 1
 166 -69 l 1
 240 -69 l 2
 280 -69 300 -83 300 -111 c 0
 300 -116 299 -122 298 -128 c 1
 59 -128 l 1
EndSplineSet
EndChar
StartChar: backslash
Encoding: 92 92 61
Width: 450
VWidth: 1507
Flags: MW
Fore
458 -26 m 1
 439 -35 423 -39 409 -39 c 0
 382 -39 366 -23 359 -5 c 2
 142 742 l 1
 163 752 181 756 196 756 c 0
 219 756 234 744 241 720 c 2
 458 -26 l 1
EndSplineSet
EndChar
StartChar: asciicircum
Encoding: 94 94 63
Width: 672
VWidth: 1507
Flags: W
HStem: 700 20G<476.5 498.5>
Fore
440 702 m 2
 449 714 465 720 488 720 c 0
 509 719 523 713 528 702 c 1
 570 519 l 2
 599 397 623 295 644 214 c 1
 629 207 614 203 599 203 c 0
 584 203 551 207 544 232 c 0
 539 250 461 597 461 597 c 1
 222 232 l 2
 206 212 179 203 156 203 c 0
 142 203 129 207 118 214 c 1
 440 702 l 2
EndSplineSet
EndChar
StartChar: underscore
Encoding: 95 95 64
Width: 575
VWidth: 1507
Flags: W
HStem: -280 54<-47 514>
Fore
-59 -280 m 1
 -47 -226 l 1
 526 -226 l 1
 514 -280 l 1
 -59 -280 l 1
EndSplineSet
EndChar
StartChar: grave
Encoding: 96 96 65
Width: 355
VWidth: 1507
Flags: W
HStem: 558 161<313.912 340.92>
Fore
404 558 m 1
 333 558 321 571 311 583 c 2
 214 719 l 1
 267 719 l 2
 312 719 338 709 345 690 c 2
 404 558 l 1
EndSplineSet
EndChar
StartChar: a
Encoding: 97 97 66
Width: 587
VWidth: 1507
Flags: W
HStem: -9 56<216.821 369.471> 282 54<260.412 408.28> 467 55<307.022 446.531>
VStem: 87 92<83.084 206.949> 485 90<351.219 429.912>
Fore
87 135 m 0
 87 241 213 336 348 336 c 0
 397 336 439 325 472 303 c 1
 482 350 l 2
 484 358 485 366 485 373 c 0
 485 419 446 467 375 467 c 0
 308 467 240 398 208 354 c 1
 194 367 180 387 180 414 c 0
 180 428 184 439 194 449 c 0
 238 488 310 522 387 522 c 0
 487 522 575 466 575 382 c 0
 575 372 574 361 571 350 c 2
 506 48 l 2
 498 10 464 -9 405 -9 c 1
 413 23 l 1
 376 4 328 -9 274 -9 c 0
 171 -9 87 49 87 135 c 0
179 142 m 0
 179 98 211 47 286 47 c 0
 377 47 445 116 445 187 c 0
 445 230 413 282 336 282 c 0
 259 282 179 216 179 142 c 0
EndSplineSet
Substitution2: "Single Substitution lookup 22 subtable" uni0E38
Substitution2: "Single Substitution lookup 22 subtable" uni0E38
EndChar
StartChar: b
Encoding: 98 98 67
Width: 602
VWidth: 1507
Flags: W
HStem: -9 56<245.084 398.631> 467 55<326.456 477.456> 705 20G<301.5 327.612>
VStem: 512 89<333.308 362 362 365 363.5 431.145>
Fore
515 374 m 0
 515 411 487 467 405 467 c 0
 325 467 264 406 252 350 c 2
 213 164 l 2
 211 155 210 147 210 139 c 0
 210 102 236 47 317 47 c 0
 399 47 461 105 473 164 c 2
 512 350 l 2
 514 358 515 366 515 374 c 0
418 522 m 0
 519 522 604 465 604 380 c 0
 604 370 603 360 601 350 c 2
 562 164 l 2
 545 78 437 -9 304 -9 c 0
 253 -9 212 3 179 26 c 1
 164 -2 130 -9 84 -9 c 1
 229 668 l 2
 237 706 271 725 332 725 c 1
 280 488 l 1
 323 511 369 522 418 522 c 0
EndSplineSet
Substitution2: "Single Substitution lookup 22 subtable" uni0E39
Substitution2: "Single Substitution lookup 22 subtable" uni0E39
EndChar
StartChar: c
Encoding: 99 99 68
Width: 548
VWidth: 1507
Flags: W
HStem: -9 56<231.495 380.602> 467 55<311.735 459.521>
VStem: 103 91<82.8074 150.25 148 152.5 152.5 178.793> 499 85<366.062 428.937>
Fore
289 -9 m 0
 184 -9 103 50 103 133 c 0
 103 143 104 153 106 163 c 2
 146 348 l 2
 170 458 297 522 402 522 c 0
 550 522 584 430 584 407 c 0
 584 370 523 345 496 345 c 1
 498 353 499 361 499 368 c 0
 499 415 464 467 390 467 c 256
 310 467 249 407 237 348 c 2
 196 163 l 2
 195 156 194 149 194 142 c 0
 194 98 226 47 301 47 c 0
 383 47 449 110 458 167 c 1
 485 167 524 148 524 120 c 0
 524 94 444 -9 289 -9 c 0
EndSplineSet
Substitution2: "Single Substitution lookup 22 subtable" uni0E3A
Substitution2: "Single Substitution lookup 22 subtable" uni0E3A
EndChar
StartChar: d
Encoding: 100 100 69
Width: 602
VWidth: 1507
Flags: W
HStem: -9 56<231.495 384.666> 467 55<311.735 463.735> 705 20G<636.5 661.746>
VStem: 103 91<82.8074 150.25 148 152.5 152.5 178.793>
Fore
194 142 m 0
 194 98 226 47 301 47 c 0
 387 47 446 107 457 163 c 2
 497 348 l 2
 499 357 500 365 500 373 c 0
 500 411 473 467 390 467 c 0
 310 467 249 407 237 348 c 2
 196 163 l 2
 195 156 194 149 194 142 c 0
289 -9 m 0
 184 -9 103 50 103 133 c 0
 103 143 104 153 106 163 c 2
 146 348 l 2
 170 458 297 522 402 522 c 0
 451 522 493 511 526 488 c 1
 565 668 l 2
 573 706 607 725 666 725 c 1
 522 48 l 2
 513 10 480 -9 421 -9 c 1
 428 23 l 1
 391 4 343 -9 289 -9 c 0
EndSplineSet
EndChar
StartChar: e
Encoding: 101 101 70
Width: 587
VWidth: 1507
Flags: W
HStem: -9 56<231.495 380.602> 265 55<231 491> 467 55<311.735 462.808>
VStem: 103 91<82.8074 150.25 148 152.5 152.5 178.522> 497 89<332.25 360.523 360.523 363.023 361.773 430.392>
Fore
402 522 m 0
 506 522 589 464 589 378 c 0
 589 369 588 358 586 348 c 2
 574 294 l 2
 570 278 546 265 523 265 c 2
 219 265 l 1
 196 163 l 2
 195 156 194 149 194 142 c 0
 194 98 226 47 301 47 c 0
 383 47 449 110 458 167 c 1
 485 167 524 148 524 120 c 0
 524 94 444 -9 289 -9 c 0
 184 -9 103 50 103 133 c 0
 103 143 104 153 106 163 c 2
 146 348 l 2
 170 458 297 522 402 522 c 0
500 373 m 0
 500 411 473 467 390 467 c 0
 310 467 249 407 237 348 c 2
 231 320 l 1
 491 320 l 1
 497 348 l 2
 499 357 500 365 500 373 c 0
EndSplineSet
EndChar
StartChar: f
Encoding: 102 102 71
Width: 331
VWidth: 1507
Flags: MW
HStem: -9 21G<100.283 125.5> 458 54<125.646 196 297 375.037> 669 56<347.062 445.196>
Fore
457 653 m 1
 423 667 417 669 407 669 c 0
 350 669 321 626 312 586 c 2
 297 512 l 1
 392 512 l 1
 384 476 357 458 312 458 c 2
 285 458 l 1
 197 48 l 2
 189 10 155 -9 96 -9 c 1
 196 458 l 1
 109 458 l 1
 117 494 143 512 188 512 c 2
 208 512 l 1
 223 586 l 2
 237 655 305 725 419 725 c 0
 462 725 469 701 469 686 c 0
 469 675 465 664 457 653 c 1
EndSplineSet
EndChar
StartChar: g
Encoding: 103 103 72
Width: 602
VWidth: 1507
Flags: W
HStem: -213 56<190.081 337.278> -9 56<231.495 384.666> 467 55<311.735 462.916>
VStem: 65 86<-120.027 -60.5026> 103 91<82.8074 150.25 148 152.5 152.5 178.793>
Fore
194 142 m 0xe8
 194 98 226 47 301 47 c 0
 387 47 446 107 457 163 c 2
 497 348 l 2
 499 357 500 365 500 373 c 0
 500 411 473 467 390 467 c 0
 310 467 249 407 237 348 c 2
 196 163 l 2
 195 156 194 149 194 142 c 0xe8
151 -61 m 0xf0
 151 -107 186 -157 258 -157 c 0
 342 -157 402 -94 415 -41 c 2
 428 23 l 1
 391 4 343 -9 289 -9 c 0
 184 -9 103 50 103 133 c 0xe8
 103 143 104 153 106 163 c 2
 146 348 l 2
 170 458 297 522 402 522 c 0
 454 522 496 508 528 487 c 1
 543 514 578 522 623 522 c 1
 503 -41 l 2
 485 -134 370 -213 247 -213 c 0
 101 -213 65 -119 65 -95 c 0
 65 -64 119 -36 154 -36 c 1
 152 -45 151 -53 151 -61 c 0xf0
EndSplineSet
EndChar
StartChar: h
Encoding: 104 104 73
Width: 617
VWidth: 1507
Flags: W
HStem: -9 21G<88.2836 114.5 440.258 465.5> 467 55<326.456 477.674> 705 20G<301.5 327.612>
VStem: 512 89<331.594 360.523 360.523 363.023 361.773 430.392>
Fore
515 373 m 0
 515 411 488 467 405 467 c 0
 325 467 264 407 252 348 c 2
 187 48 l 2
 179 10 145 -9 84 -9 c 1
 229 668 l 2
 237 706 271 725 332 725 c 1
 280 488 l 1
 323 511 369 522 418 522 c 0
 519 522 604 464 604 378 c 0
 604 369 603 358 601 348 c 2
 537 48 l 2
 529 10 495 -9 436 -9 c 1
 512 348 l 2
 514 357 515 365 515 373 c 0
EndSplineSet
EndChar
StartChar: i
Encoding: 105 105 74
Width: 265
VWidth: 1507
Flags: MW
HStem: -9 21G<88.2526 113.5> 502 20G<256.5 281.738> 597 107<221.206 317.602>
VStem: 199 140<618.229 681.827>
Fore
185 466 m 2
 193 503 227 522 286 522 c 1
 185 48 l 2
 177 10 143 -9 84 -9 c 1
 185 466 l 2
199 643 m 0
 199 674 238 704 282 704 c 256
 325 704 339 677 339 660 c 0
 339 635 312 597 259 597 c 256
 213 597 199 624 199 643 c 0
EndSplineSet
EndChar
StartChar: j
Encoding: 106 106 75
Width: 265
VWidth: 1507
Flags: W
HStem: -213 56<-59.6252 34.0013> 502 20G<256.5 281.772> 597 107<221.206 317.602>
VStem: 185 101<-67.5184 512.257> 199 140<618.229 681.827>
Fore
-33 -213 m 0xf0
 -76 -213 -83 -188 -83 -172 c 0
 -83 -161 -79 -150 -71 -139 c 1
 -50 -151 -34 -157 -23 -157 c 0
 33 -157 62 -111 71 -74 c 2
 185 466 l 2
 193 503 227 522 286 522 c 1
 160 -74 l 2
 147 -136 86 -213 -33 -213 c 0xf0
199 643 m 0xe8
 199 674 238 704 282 704 c 256
 325 704 339 677 339 660 c 0
 339 635 312 597 259 597 c 256
 213 597 199 624 199 643 c 0xe8
EndSplineSet
EndChar
StartChar: k
Encoding: 107 107 76
Width: 602
VWidth: 1507
Flags: W
HStem: -9 21G<88.2836 114.5 440.257 465.5> 511 20G<559.513 597> 705 20G<301.5 327.733>
VStem: 479 89<176.629 205.523 205.523 208.523 207.023 274.725>
Fore
482 218 m 0
 482 255 455 311 372 311 c 0
 292 311 231 252 219 193 c 2
 187 48 l 2
 179 10 145 -9 84 -9 c 1
 229 668 l 2
 237 706 271 725 332 725 c 1
 249 336 l 1
 595 531 l 1
 599 519 602 508 602 498 c 0
 602 474 588 454 561 440 c 2
 427 365 l 1
 411 365 l 1
 504 356 571 302 571 224 c 0
 571 214 570 204 568 193 c 2
 537 48 l 2
 529 10 495 -9 436 -9 c 1
 479 193 l 2
 481 202 482 210 482 218 c 0
EndSplineSet
EndChar
StartChar: l
Encoding: 108 108 77
Width: 319
VWidth: 1507
Flags: W
HStem: -9 56<212.292 293.693> 705 20G<301.5 327.731>
VStem: 112 90<57.5957 116.5 115 118 118 146.398>
Fore
322 51 m 0
 322 32 306 -9 250 -9 c 0
 139 -9 112 56 112 100 c 0
 112 110 113 120 115 130 c 2
 229 668 l 2
 237 706 271 725 332 725 c 1
 205 130 l 2
 203 122 202 114 202 106 c 0
 202 79 214 47 262 47 c 0
 273 47 293 53 320 65 c 1
 321 60 322 56 322 51 c 0
EndSplineSet
EndChar
StartChar: m
Encoding: 109 109 78
Width: 816
VWidth: 1507
Flags: W
HStem: -9 21G<90.2526 115.5 363.235 389 637.235 662.5> 467 55<318.737 424.036 575.23 697.696>
VStem: 633 101<19.3632 391.691> 716 89<366.486 392 392 392 392 447.14>
Fore
718 401 m 0xd0
 718 427 698 467 641 467 c 0
 590 467 543 430 532 383 c 2
 461 48 l 2
 453 10 419 -9 359 -9 c 1
 442 383 l 2
 443 389 444 394 444 399 c 0
 444 429 421 467 368 467 c 0
 312 467 267 427 258 383 c 2
 187 48 l 2
 179 10 145 -9 86 -9 c 1
 187 466 l 2
 195 503 229 522 288 522 c 1
 283 503 l 1
 312 516 344 522 380 522 c 0
 454 522 491 486 503 473 c 1
 551 509 604 522 653 522 c 0
 754 522 808 465 808 407 c 0
 808 399 807 391 805 383 c 2xd0
 734 48 l 2
 726 10 692 -9 633 -9 c 1xe0
 716 383 l 2
 717 389 718 395 718 401 c 0xd0
EndSplineSet
EndChar
StartChar: n
Encoding: 110 110 79
Width: 617
VWidth: 1507
Flags: W
HStem: -9 21G<88.2526 114.5 440.258 465.5> 467 55<326.456 477.674>
VStem: 512 89<331.594 360.523 360.523 363.023 361.773 430.392>
Fore
515 373 m 0
 515 411 488 467 405 467 c 0
 325 467 264 407 252 348 c 2
 187 48 l 2
 179 10 145 -9 84 -9 c 1
 185 466 l 2
 193 503 227 522 288 522 c 1
 280 488 l 1
 323 511 369 522 418 522 c 0
 519 522 604 464 604 378 c 0
 604 369 603 358 601 348 c 2
 537 48 l 2
 529 10 495 -9 436 -9 c 1
 512 348 l 2
 514 357 515 365 515 373 c 0
EndSplineSet
EndChar
StartChar: o
Encoding: 111 111 80
Width: 679
VWidth: 1507
Flags: W
HStem: -9 56<265.643 434.771> 467 55<352.511 513.268>
VStem: 107 90<119.567 302.787> 588 91<208.063 389.44>
Fore
107 201 m 0
 107 375 279 522 448 522 c 256
 577 522 679 435 679 305 c 0
 679 140 510 -9 335 -9 c 256
 205 -9 107 75 107 201 c 0
436 467 m 256
 311 467 197 337 197 208 c 0
 197 122 249 47 347 47 c 256
 473 47 588 172 588 305 c 0
 588 397 527 467 436 467 c 256
EndSplineSet
EndChar
StartChar: p
Encoding: 112 112 81
Width: 602
VWidth: 1507
Flags: W
HStem: -213 21G<46.2121 71.5> -9 56<245.263 398.272> 467 55<326.456 477.674>
VStem: 512 89<331.812 360.523 360.523 363.023 361.773 430.392>
Fore
515 373 m 0
 515 411 488 467 405 467 c 0
 325 467 264 407 252 348 c 2
 211 163 l 2
 210 156 209 149 209 142 c 0
 209 98 240 47 317 47 c 0
 401 47 461 107 472 163 c 2
 512 348 l 2
 514 357 515 365 515 373 c 0
304 -9 m 0
 254 -9 213 3 182 23 c 1
 145 -155 l 2
 136 -194 101 -213 42 -213 c 1
 185 466 l 2
 193 503 227 522 288 522 c 1
 280 488 l 1
 323 511 369 522 418 522 c 0
 519 522 604 464 604 378 c 0
 604 369 603 358 601 348 c 2
 561 163 l 2
 539 63 423 -9 304 -9 c 0
EndSplineSet
EndChar
StartChar: q
Encoding: 113 113 82
Width: 602
VWidth: 1507
Flags: W
HStem: -213 21G<382.237 407.5> -9 56<231.495 384.666> 467 55<311.735 462.916>
VStem: 103 91<82.8074 150.25 148 152.5 152.5 178.793>
Fore
194 142 m 0
 194 98 226 47 301 47 c 0
 387 47 446 107 457 163 c 2
 497 348 l 2
 499 357 500 365 500 373 c 0
 500 411 473 467 390 467 c 0
 310 467 249 407 237 348 c 2
 196 163 l 2
 195 156 194 149 194 142 c 0
402 522 m 0
 454 522 496 508 528 487 c 1
 543 514 578 522 623 522 c 1
 479 -155 l 2
 470 -194 437 -213 378 -213 c 1
 428 23 l 1
 391 4 343 -9 289 -9 c 0
 184 -9 103 50 103 133 c 0
 103 143 104 153 106 163 c 2
 146 348 l 2
 170 458 297 522 402 522 c 0
EndSplineSet
EndChar
StartChar: r
Encoding: 114 114 83
Width: 408
VWidth: 1507
Flags: MW
HStem: -9 21G<88.2526 114.5> 467 55<330.336 439.734>
Fore
488 512 m 1
 477 474 435 466 404 467 c 0
 329 463 264 409 252 348 c 2
 187 48 l 2
 179 10 145 -9 84 -9 c 1
 185 466 l 2
 193 503 227 522 288 522 c 1
 280 487 l 1
 321 510 367 522 418 522 c 0
 439 522 459 520 475 515 c 2
 488 512 l 1
EndSplineSet
EndChar
StartChar: s
Encoding: 115 115 84
Width: 526
VWidth: 1507
Flags: W
HStem: -9 56<202.41 350.165> 467 55<286.807 415.216>
VStem: 72 89<86.2959 173.123> 139 92<316.93 415.611> 425 91<115.783 202.348> 448 89<345.677 435.234>
Fore
537 385 m 0xd4
 537 333 486 319 457 319 c 0
 450 319 443 320 436 321 c 1
 444 339 448 357 448 374 c 0
 448 425 412 467 359 467 c 0
 285 467 231 409 231 360 c 0xd4
 231 303 283 303 410 274 c 0
 498 253 516 217 516 182 c 0
 516 78 380 -9 258 -9 c 0
 156 -9 72 47 72 130 c 0
 72 154 90 191 154 191 c 0
 160 191 166 191 172 190 c 1
 165 174 161 160 161 145 c 0
 161 95 203 47 270 47 c 0
 356 47 425 118 425 166 c 0xe8
 425 224 308 233 226 255 c 0
 180 268 139 291 139 344 c 0
 139 439 247 522 371 522 c 0
 512 522 537 437 537 385 c 0xd4
EndSplineSet
EndChar
StartChar: t
Encoding: 116 116 85
Width: 331
VWidth: 1507
Flags: W
HStem: -6 56<225.657 306.216> 458 54<125.646 196 298 375.037> 708 20G<313.5 339.741>
VStem: 124 91<61.43 120.477 118.977 121.977 121.977 149.486>
Fore
334 54 m 0
 334 35 318 -6 264 -6 c 0
 152 -6 124 61 124 105 c 0
 124 114 125 123 127 133 c 2
 196 458 l 1
 109 458 l 1
 117 494 143 512 188 512 c 2
 208 512 l 1
 241 671 l 2
 249 709 283 728 344 728 c 1
 298 512 l 1
 392 512 l 1
 384 476 357 458 312 458 c 2
 286 458 l 1
 217 133 l 2
 215 125 215 118 215 111 c 0
 215 82 227 50 276 50 c 0
 286 50 305 56 332 68 c 1
 333 63 334 59 334 54 c 0
EndSplineSet
EndChar
StartChar: u
Encoding: 117 117 86
Width: 617
VWidth: 1507
Flags: W
HStem: -9 56<246.917 399.155> 502 20G<257.5 283.81 608.5 633.738>
VStem: 119 91<81.4398 150.238 149 151.477 151.477 180.707>
Fore
210 139 m 0
 210 102 236 47 317 47 c 0
 399 47 461 105 473 164 c 2
 537 466 l 2
 545 503 579 522 638 522 c 1
 537 48 l 2
 529 10 495 -9 436 -9 c 1
 443 23 l 1
 406 4 358 -9 304 -9 c 0
 200 -9 119 48 119 134 c 0
 119 144 120 154 122 164 c 2
 185 466 l 2
 193 503 227 522 288 522 c 1
 213 164 l 2
 211 155 210 147 210 139 c 0
EndSplineSet
EndChar
StartChar: v
Encoding: 118 118 87
Width: 536
VWidth: 1507
Flags: W
HStem: -9 21G<255 275> 502 20G<169.5 188.5 568 586.5>
VStem: 131 490<512 512 512 512> 131 91<431.647 509.248>
Fore
264 -9 m 256xe0
 246 -9 231 -1 229 9 c 2
 131 512 l 1xe0
 148 519 163 522 176 522 c 0
 201 522 219 508 222 488 c 2xd0
 291 118 l 1
 519 488 l 2
 531 509 556 522 580 522 c 0
 593 522 607 519 621 512 c 1
 309 9 l 2
 304 2 286 -9 264 -9 c 256xe0
EndSplineSet
EndChar
StartChar: w
Encoding: 119 119 88
Width: 759
VWidth: 1507
Flags: W
HStem: -9 21G<244 278.788 479.818 506.5> 502 20G<169 188.5 791 810>
Fore
446 321 m 1
 268 -9 l 1
 220 -9 197 2 193 33 c 2
 131 514 l 1
 148 520 163 522 175 522 c 0
 202 522 216 507 220 484 c 2
 267 137 l 1
 431 448 l 2
 440 462 459 469 478 469 c 256
 496 469 514 463 515 448 c 2
 547 136 l 1
 742 484 l 2
 757 509 778 521 804 521 c 0
 816 521 829 519 843 514 c 1
 576 33 l 2
 559 2 531 -9 482 -9 c 1
 446 321 l 1
EndSplineSet
EndChar
StartChar: x
Encoding: 120 120 89
Width: 539
VWidth: 1507
Flags: W
HStem: -13 21G<62.5 79 450.5 467> 506 20G<200.5 217 540 558.5>
Fore
515 9 m 1
 493 -6 475 -13 459 -13 c 0
 442 -13 429 -4 419 15 c 2
 312 211 l 1
 125 15 l 2
 106 -4 88 -14 70 -14 c 0
 55 -14 40 -6 26 9 c 1
 279 273 l 1
 155 506 l 1
 175 519 193 526 208 526 c 0
 226 526 241 516 252 497 c 2
 339 335 l 1
 496 497 l 2
 509 510 529 527 551 527 c 0
 566 527 581 520 597 506 c 1
 372 273 l 1
 515 9 l 1
EndSplineSet
EndChar
StartChar: y
Encoding: 121 121 90
Width: 536
VWidth: 1507
Flags: W
HStem: -214 51<-9.65549 82.9994> 502 20G<169.5 188.5 568 586.5>
VStem: 131 91<434.274 509.248>
Fore
181 -156 m 0
 132 -194 60 -214 30 -214 c 0
 1 -214 -13 -200 -13 -173 c 0
 -13 -170 -12 -167 -12 -163 c 1
 70 -163 134 -123 194 -35 c 2
 228 18 l 1
 131 512 l 1
 148 519 163 522 176 522 c 0
 201 522 219 508 222 488 c 2
 291 118 l 1
 519 488 l 2
 531 509 556 522 580 522 c 0
 593 522 607 519 621 512 c 1
 270 -53 l 2
 243 -96 213 -130 181 -156 c 0
EndSplineSet
EndChar
StartChar: z
Encoding: 122 122 91
Width: 485
VWidth: 1507
Flags: W
HStem: 0 56<137 459.716> 458 54<131.547 452>
Fore
407 56 m 2
 438 56 465 45 465 14 c 0
 465 10 464 5 463 0 c 1
 65 0 l 2
 39 0 32 21 32 30 c 0
 32 37 36 44 42 50 c 2
 452 458 l 1
 184 458 l 2
 147 458 128 471 128 497 c 0
 128 501 129 506 130 512 c 1
 526 512 l 2
 553 512 559 490 559 483 c 0
 559 476 556 470 550 464 c 2
 137 56 l 1
 407 56 l 2
EndSplineSet
EndChar
StartChar: braceleft
Encoding: 123 123 92
Width: 318
VWidth: 1507
Flags: MW
HStem: -127 53<221.139 298.281> 285 45<97.967 164.249> 689 54<382.173 468.162>
VStem: 116 93<-72.7094 -6.65649> 167 94<179.375 185 196 217.39 217.39 226.538 221.964 272.974>
Fore
97 302 m 0
 97 313 107 330 139 330 c 0
 167 330 192 343 210 421 c 2
 250 610 l 2
 264 687 311 743 395 743 c 2
 484 743 l 1
 477 707 451 689 407 689 c 0
 388 689 364 693 347 624 c 2
 306 431 l 2
 291 366 264 327 203 307 c 1
 260 290 261 256 261 236 c 0
 261 222 259 205 255 185 c 2
 213 -8 l 2
 210 -21 209 -33 209 -41 c 0
 209 -75 228 -74 244 -74 c 0
 282 -74 302 -87 302 -113 c 0
 302 -117 301 -122 300 -127 c 1
 211 -127 l 2
 135 -127 116 -81 116 -38 c 0
 116 -25 118 -10 121 6 c 2
 161 196 l 2
 165 215 167 231 167 244 c 0
 167 270 159 285 130 285 c 0
 104 285 97 295 97 302 c 0
EndSplineSet
EndChar
StartChar: bar
Encoding: 124 124 93
Width: 262
VWidth: 1507
Flags: W
HStem: -155 949
Fore
244 740 m 2
 252 776 285 794 342 794 c 1
 151 -101 l 2
 143 -137 111 -155 54 -155 c 1
 244 740 l 2
EndSplineSet
EndChar
StartChar: asciitilde
Encoding: 126 126 95
Width: 682
VWidth: 1507
Flags: W
HStem: 234 57<449.144 602.292> 304 61<198.647 344.336>
Fore
256 304 m 0
 230 304 193 300 128 253 c 1
 121 269 117 283 117 294 c 0
 117 337 176 365 270 365 c 0
 388 365 451 291 531 291 c 0
 573 291 621 316 674 366 c 1
 689 353 697 338 697 322 c 0
 697 269 597 234 517 234 c 0
 406 234 343 304 256 304 c 0
EndSplineSet
EndChar
StartChar: quotedbl
Encoding: 34 34 97
Width: 409
VWidth: 1507
Flags: W
HStem: 503 222<243.585 252 402.493 412>
VStem: 210 125<651 743.318> 369 125<651 742.575>
Fore
210 651 m 2
 219 705 270 725 335 725 c 1
 291 564 l 2
 285 548 252 503 187 503 c 1
 210 651 l 2
369 651 m 2
 377 705 430 725 494 725 c 1
 451 564 l 2
 445 548 412 503 347 503 c 1
 369 651 l 2
EndSplineSet
EndChar
StartChar: exclam
Encoding: 33 33 98
Width: 251
VWidth: 1507
Flags: MW
HStem: -9 118<85.2436 184.504> 705 20G<285.5 337.057>
VStem: 60 151<17.5707 84.1423> 112 101<172.77 275.068>
Fore
202 641 m 2
 206 663 229 725 342 725 c 1
 213 203 l 2
 199 154 157 143 112 143 c 1
 202 641 l 2
60 37 m 0
 60 80 102 109 148 109 c 0
 183 109 211 89 211 59 c 0
 211 29 174 -9 122 -9 c 0
 85 -9 60 9 60 37 c 0
EndSplineSet
EndChar
StartChar: exclamdown
Encoding: 161 161 100
Width: 251
VWidth: 1507
Flags: W
HStem: -213 21G<22.9042 76> 404 118<174.911 272.242>
VStem: 18 140<-213 -103.148> 150 149<429.678 497.983>
Fore
158 -127 m 2xe0
 154 -148 134 -213 18 -213 c 1
 146 309 l 2
 156 349 190 369 249 369 c 1
 158 -127 l 2xe0
299 474 m 0xd0
 299 439 259 404 213 404 c 0
 166 404 150 433 150 452 c 0
 150 492 191 522 238 522 c 0
 272 522 299 503 299 474 c 0xd0
EndSplineSet
EndChar
StartChar: cent
Encoding: 162 162 101
Width: 548
VWidth: 1507
Flags: W
VStem: 105 91<85.4975 153.805 153.109 154.5 154.5 166 166 182.603> 499 87<367.598 431.506>
Fore
247 -2 m 1
 177 10 105 54 105 133 c 0
 105 144 107 155 109 166 c 2
 148 351 l 2
 163 432 251 503 359 520 c 1
 363 543 l 2
 370 579 404 597 463 597 c 1
 446 522 l 1
 556 506 586 431 586 408 c 0
 586 372 525 348 499 348 c 1
 500 355 501 362 501 369 c 0
 501 416 472 450 434 463 c 1
 347 56 l 1
 404 72 449 116 461 170 c 1
 489 170 526 152 526 122 c 0
 526 91 451 13 335 -3 c 1
 329 -30 l 2
 320 -73 284 -84 231 -84 c 1
 247 -2 l 1
347 463 m 1
 291 445 249 403 238 351 c 2
 199 166 l 2
 197 158 196 151 196 143 c 0
 196 118 209 74 259 56 c 1
 347 463 l 1
EndSplineSet
EndChar
StartChar: sterling
Encoding: 163 163 102
Width: 605
VWidth: 1507
Flags: W
HStem: 0 60<220 554.11> 329 60<150.015 262 357 513.432> 666 59<473.8 607.344>
Fore
351 329 m 1
 339 194 325 126 220 60 c 1
 499 60 l 2
 540 60 560 45 560 15 c 0
 560 10 560 5 559 0 c 1
 74 0 l 1
 87 75 158 53 226 166 c 0
 248 204 254 254 256 276 c 2
 262 329 l 1
 130 329 l 1
 139 369 166 389 213 389 c 2
 267 389 l 1
 278 508 288 599 376 668 c 0
 442 720 510 725 544 725 c 0
 614 725 670 704 670 673 c 0
 670 663 662 640 636 621 c 1
 609 651 572 666 526 666 c 0
 414 666 383 567 367 460 c 2
 357 389 l 1
 532 389 l 1
 525 349 498 329 449 329 c 2
 351 329 l 1
EndSplineSet
EndChar
StartChar: currency
Encoding: 164 164 103
Width: 773
VWidth: 1507
Flags: W
HStem: 78 58<331.527 503.402> 582 60<420.18 588.866>
VStem: 159 95<217.32 408.219> 665 99<341.871 501.154>
Fore
401 78 m 256
 298 78 262 109 241 130 c 1
 166 66 l 1
 119 125 l 1
 190 188 l 1
 169 224 159 264 159 306 c 0
 159 396 208 477 265 532 c 1
 219 594 l 1
 289 654 l 1
 339 592 l 1
 354 602 411 642 520 642 c 0
 577 642 632 629 683 589 c 1
 764 656 l 1
 805 594 l 1
 733 532 l 1
 754 499 764 461 764 420 c 0
 764 385 760 290 660 188 c 1
 705 125 l 1
 636 68 l 1
 586 131 l 1
 571 121 512 78 401 78 c 256
508 582 m 256
 384 582 254 452 254 310 c 0
 254 216 311 136 413 136 c 256
 545 136 665 273 665 410 c 0
 665 509 602 582 508 582 c 256
EndSplineSet
EndChar
StartChar: yen
Encoding: 165 165 104
Width: 633
VWidth: 1507
Flags: W
HStem: -6 21G<272.179 299.5> 262 59<156.51 324 433 595.557> 396 61<184.804 304 522 624.49>
Fore
164 396 m 1
 173 437 202 457 250 457 c 2
 304 457 l 1
 170 717 l 1
 189 729 206 735 222 735 c 0
 232 735 260 731 274 704 c 2
 408 439 l 1
 659 704 l 2
 686 733 718 735 724 735 c 0
 740 735 755 729 769 717 c 1
 522 457 l 1
 645 457 l 1
 636 416 608 396 559 396 c 2
 464 396 l 1
 443 372 l 1
 433 321 l 1
 616 321 l 1
 607 282 579 262 531 262 c 2
 419 262 l 1
 377 57 l 2
 368 15 331 -6 268 -6 c 1
 324 262 l 1
 136 262 l 1
 145 301 173 321 222 321 c 2
 338 321 l 1
 348 372 l 1
 335 396 l 1
 164 396 l 1
EndSplineSet
EndChar
StartChar: brokenbar
Encoding: 166 166 105
Width: 262
VWidth: 1507
Flags: MW
Fore
244 740 m 2
 252 776 285 794 342 794 c 1
 262 424 l 2
 254 387 222 369 166 369 c 1
 244 740 l 2
133 216 m 2
 141 252 174 270 231 270 c 1
 151 -101 l 2
 143 -137 111 -155 54 -155 c 1
 133 216 l 2
EndSplineSet
EndChar
StartChar: section
Encoding: 167 167 106
Width: 622
VWidth: 1507
Flags: W
HStem: -9 57<220.425 392.779> 672 53<383.677 546.699>
VStem: 169 95<341.91 442.065> 246 96<536.256 629.472> 444 93<93.3656 201.739> 510 97<315.89 403.381>
Fore
607 369 m 0xd4
 607 313 569 268 515 225 c 1
 521 215 537 188 537 162 c 0
 537 74 441 -9 289 -9 c 0
 225 -9 180 8 160 23 c 0
 152 30 148 39 148 50 c 0
 148 73 163 93 175 107 c 1
 203 74 245 48 304 48 c 0
 389 48 444 90 444 154 c 0
 444 244 293 236 203 309 c 0
 181 327 169 350 169 377 c 0xe8
 169 404 180 455 265 511 c 1
 252 526 246 543 246 562 c 0
 246 643 337 725 481 725 c 0
 549 725 612 708 612 677 c 0
 612 667 607 645 588 626 c 1
 563 644 512 672 461 672 c 0
 397 672 342 634 342 577 c 0
 342 481 607 505 607 369 c 0xd4
467 264 m 1
 500 299 510 337 510 355 c 0xe4
 510 394 479 418 427 437 c 2
 371 456 l 2
 351 464 334 471 320 478 c 1
 293 457 264 421 264 391 c 0
 264 338 319 317 363 303 c 0
 431 277 443 279 467 264 c 1
EndSplineSet
EndChar
StartChar: dieresis
Encoding: 168 168 107
Width: 354
VWidth: 1507
Flags: W
HStem: 601 107<167.093 265.247 363.093 461.247>
VStem: 147 140<622.706 687.828> 343 140<622.706 687.828>
Fore
147 645 m 0
 147 676 177 708 228 708 c 256
 271 708 287 682 287 665 c 0
 287 630 249 601 205 601 c 256
 161 601 147 628 147 645 c 0
343 645 m 0
 343 676 373 708 424 708 c 256
 467 708 483 682 483 665 c 0
 483 630 445 601 401 601 c 256
 357 601 343 628 343 645 c 0
EndSplineSet
EndChar
StartChar: copyright
Encoding: 169 169 108
Width: 854
VWidth: 1507
Flags: W
HStem: -9 54<332.307 540.677> 140 51<411.461 533.99> 526 50<474.897 596.619> 671 54<462.502 666.849>
VStem: 110 90<181.261 402.406> 300 88<214.052 281.649> 622 88<436.611 501.81> 800 92<313.09 531.842>
Fore
110 281 m 0
 110 499 323 725 579 725 c 256
 778 725 892 585 892 434 c 0
 892 210 673 -9 422 -9 c 256
 220 -9 110 134 110 281 c 0
567 671 m 256
 376 671 200 479 200 286 c 0
 200 155 288 45 434 45 c 256
 619 45 800 228 800 424 c 0
 800 566 707 671 567 671 c 256
622 446 m 0
 622 485 594 526 541 526 c 0
 483 526 433 477 424 436 c 2
 390 282 l 2
 389 276 388 271 388 265 c 0
 388 227 418 191 469 191 c 256
 523 191 579 236 589 289 c 1
 597 290 605 291 612 291 c 0
 644 291 666 279 666 260 c 0
 666 221 582 140 458 140 c 0
 374 140 300 193 300 257 c 0
 300 265 301 273 303 282 c 2
 336 436 l 2
 351 514 456 576 552 576 c 0
 641 576 710 531 710 473 c 0
 710 441 679 426 643 426 c 0
 636 426 628 427 620 428 c 1
 621 434 622 440 622 446 c 0
EndSplineSet
EndChar
StartChar: ordfeminine
Encoding: 170 170 109
Width: 440
VWidth: 1507
Flags: W
HStem: 307 52<211.345 312.401> 529 51<235.507 357.187> 669 51<274.065 385.964>
VStem: 103 88<377.623 483.888> 398 92<569.229 573.5 573.5 595 595 596.5 595.75 651.495>
Fore
191 425 m 0
 191 399 211 359 265 359 c 256
 326 359 374 411 374 463 c 0
 374 487 360 529 301 529 c 256
 236 529 191 473 191 425 c 0
176 634 m 0
 176 676 262 720 342 720 c 0
 421 720 492 675 492 607 c 0
 492 600 491 593 490 586 c 2
 442 356 l 2
 434 323 401 307 344 307 c 1
 347 326 l 1
 320 313 289 307 255 307 c 0
 158 307 103 359 103 417 c 0
 103 500 197 580 312 580 c 0
 343 580 372 574 398 561 c 1
 402 586 l 2
 403 592 404 598 404 604 c 0
 404 634 382 669 332 669 c 0
 281 669 227 611 206 582 c 1
 187 597 176 615 176 634 c 0
EndSplineSet
EndChar
StartChar: logicalnot
Encoding: 172 172 111
Width: 633
VWidth: 1507
Flags: MW
HStem: 360 58<137.727 576>
Fore
675 418 m 1
 638 235 l 2
 630 199 597 181 538 181 c 1
 576 360 l 1
 119 360 l 1
 128 399 155 418 199 418 c 2
 675 418 l 1
EndSplineSet
EndChar
StartChar: registered
Encoding: 174 174 112
Width: 853
VWidth: 1507
Flags: W
HStem: -9 54<332.307 540.677> 332 51<415 587.405> 517 50<443 622.539> 671 54<462.502 666.849>
VStem: 110 90<181.261 402.406> 588 87<249.056 275 275 277.523 276.262 329.746> 627 87<408.525 503.104> 800 92<313.09 531.842>
Fore
627 466 m 0xfb
 627 484 622 517 598 517 c 2
 443 517 l 1
 415 383 l 1
 570 383 l 2
 593 383 627 427 627 466 c 0xfb
591 290 m 0
 591 314 578 332 559 332 c 2
 404 332 l 1
 374 185 l 2
 366 152 320 142 277 142 c 1
 363 541 l 2
 367 556 382 567 411 567 c 2
 609 567 l 2
 684 567 714 515 714 475 c 0xfb
 714 420 672 377 641 357 c 1
 663 341 677 314 677 285 c 0
 677 278 677 272 675 265 c 2
 659 185 l 2
 653 160 620 142 561 142 c 1
 588 265 l 2xfd
 590 274 591 282 591 290 c 0
110 281 m 0
 110 499 323 725 579 725 c 256
 778 725 892 585 892 434 c 0
 892 210 673 -9 422 -9 c 256
 220 -9 110 134 110 281 c 0
567 671 m 256
 376 671 200 479 200 286 c 0
 200 155 288 45 434 45 c 256
 619 45 800 228 800 424 c 0
 800 566 707 671 567 671 c 256
EndSplineSet
EndChar
StartChar: macron
Encoding: 175 175 113
Width: 355
VWidth: 1507
Flags: W
HStem: 632 52<184 448 173 458 184 184>
Fore
173 632 m 1
 184 684 l 1
 458 684 l 1
 448 632 l 1
 173 632 l 1
EndSplineSet
EndChar
StartChar: degree
Encoding: 176 176 114
Width: 355
VWidth: 1507
Flags: W
HStem: 448 49<232.392 340.553> 675 50<261.998 368.825>
VStem: 140 75<514.26 629.026> 385 73<543.977 658.961>
Fore
140 561 m 0
 140 638 221 725 330 725 c 0
 419 725 458 666 458 614 c 0
 458 528 375 448 271 448 c 0
 181 448 140 506 140 561 c 0
320 675 m 256
 266 675 215 624 215 567 c 0
 215 526 242 497 282 497 c 256
 338 497 385 552 385 606 c 0
 385 646 360 675 320 675 c 256
EndSplineSet
EndChar
StartChar: plusminus
Encoding: 177 177 115
Width: 633
VWidth: 1507
Flags: W
HStem: 2 58<67.8087 582.466> 271 56<119.013 327 430 638.213>
Fore
327 271 m 1
 101 271 l 1
 109 308 136 327 181 327 c 2
 339 327 l 1
 366 457 l 2
 374 494 408 512 469 512 c 1
 430 327 l 1
 657 327 l 1
 648 290 621 271 576 271 c 2
 418 271 l 1
 389 142 l 2
 382 105 348 86 288 86 c 1
 327 271 l 1
603 60 m 1
 595 24 564 2 519 2 c 2
 47 2 l 1
 53 36 86 60 130 60 c 2
 603 60 l 1
EndSplineSet
EndChar
StartChar: twosuperior
Encoding: 178 178 116
Width: 449
VWidth: 1507
Flags: W
HStem: 311 51<223 433.139> 671 49<305.46 417.201>
VStem: 187 77<579.883 629.609> 433 85<559.01 654.802>
Fore
375 720 m 0
 453 720 518 679 518 618 c 0
 518 532 431 495 332 457 c 0
 277 435 240 403 223 362 c 1
 410 362 l 2
 431 362 457 355 457 326 c 0
 457 321 456 316 455 311 c 1
 164 311 l 2
 150 311 127 316 127 330 c 0
 127 347 156 443 307 503 c 0
 385 537 433 554 433 611 c 0
 433 642 405 671 365 671 c 0
 305 671 265 611 265 584 c 0
 265 581 265 575 264 567 c 1
 219 567 187 589 187 604 c 0
 187 627 260 720 375 720 c 0
EndSplineSet
EndChar
StartChar: threesuperior
Encoding: 179 179 117
Width: 449
VWidth: 1507
Flags: W
HStem: 306 50<245.153 359.385> 505 50<309.046 381.676> 671 49<314.049 406.608>
VStem: 145 85<371.744 437.347> 210 81<594.252 632.172> 397 86<392.696 490.132> 414 87<576.97 663.43>
Fore
365 671 m 0xea
 306 671 291 612 291 602 c 0
 291 599 292 595 294 591 c 1
 285 590 276 589 267 589 c 0
 242 589 210 596 210 617 c 0
 210 644 266 720 375 720 c 0
 442 720 501 684 501 630 c 0xea
 501 591 467 556 433 532 c 1
 451 519 483 488 483 449 c 0
 483 376 393 306 288 306 c 256
 191 306 145 365 145 405 c 0
 145 437 169 458 240 458 c 1
 239 456 230 428 230 415 c 0
 230 381 259 356 298 356 c 256
 360 356 397 410 397 446 c 0xf4
 397 479 369 505 330 505 c 0
 314 505 291 512 291 525 c 0
 291 538 309 555 341 555 c 0
 381 555 414 590 414 626 c 0
 414 652 395 671 365 671 c 0xea
EndSplineSet
EndChar
StartChar: acute
Encoding: 180 180 118
Width: 349
VWidth: 1507
Flags: W
HStem: 558 161
Fore
295 690 m 2
 314 709 344 719 386 719 c 2
 439 719 l 1
 286 583 l 2
 258 561 225 558 179 558 c 1
 295 690 l 2
EndSplineSet
EndChar
StartChar: mu
Encoding: 181 181 119
Width: 617
VWidth: 1507
Flags: W
HStem: -213 21G<46.2121 71.5> -9 56<245.563 399.155> 502 20G<257.5 283.81 608.5 633.738>
Fore
443 23 m 1
 406 4 358 -9 304 -9 c 256
 254 -9 213 3 182 23 c 1
 145 -155 l 2
 136 -194 101 -213 42 -213 c 1
 185 466 l 2
 193 503 227 522 288 522 c 1
 213 164 l 2
 211 155 210 147 210 139 c 0
 210 102 236 47 317 47 c 0
 399 47 461 105 473 164 c 2
 537 466 l 2
 545 503 579 522 638 522 c 1
 537 48 l 2
 529 10 495 -9 436 -9 c 1
 443 23 l 1
EndSplineSet
EndChar
StartChar: paragraph
Encoding: 182 182 120
Width: 619
VWidth: 1507
Flags: W
HStem: 671 54<512 576.701>
Fore
335 270 m 1
 225 272 131 338 131 439 c 0
 131 477 149 579 235 646 c 0
 319 712 427 725 511 725 c 0
 579 725 647 721 680 714 c 1
 511 -81 l 2
 508 -96 494 -137 407 -137 c 1
 579 671 l 1
 512 671 l 1
 353 -81 l 2
 344 -122 300 -137 247 -137 c 1
 335 270 l 1
EndSplineSet
EndChar
StartChar: periodcentered
Encoding: 183 183 121
Width: 376
VWidth: 1507
Flags: W
HStem: 199 200<195.683 306.867>
VStem: 134 234<256.373 341.991>
Fore
134 279 m 0
 134 347 202 399 273 399 c 256
 330 399 368 365 368 317 c 0
 368 257 305 199 231 199 c 256
 160 199 134 247 134 279 c 0
EndSplineSet
EndChar
StartChar: cedilla
Encoding: 184 184 122
Width: 293
VWidth: 1507
Flags: W
HStem: -210 47<40.5818 133.54>
VStem: 143 90<-154.584 -90.5524>
Fore
233 -105 m 0
 233 -162 159 -210 84 -210 c 0
 48 -210 3 -200 3 -165 c 0
 3 -154 10 -142 24 -127 c 1
 49 -151 73 -163 95 -163 c 0
 116 -163 143 -145 143 -116 c 0
 143 -88 97 -82 64 -82 c 0
 58 -82 52 -83 45 -83 c 1
 133 17 l 1
 208 17 l 1
 155 -42 l 1
 218 -50 233 -86 233 -105 c 0
EndSplineSet
EndChar
StartChar: onesuperior
Encoding: 185 185 123
Width: 449
VWidth: 1507
Flags: MW
HStem: 665 51<298.694 347>
Fore
347 665 m 1
 303 665 294 690 294 706 c 0
 294 709 294 712 295 716 c 1
 396 716 l 2
 429 716 438 702 438 692 c 0
 438 690 437 689 437 687 c 1
 368 360 l 2
 360 324 328 306 271 306 c 1
 347 665 l 1
EndSplineSet
EndChar
StartChar: ordmasculine
Encoding: 186 186 124
Width: 473
VWidth: 1507
Flags: W
HStem: 307 52<231.49 367.545> 669 51<288.869 426.343>
VStem: 103 86<401.931 560.028> 469 87<465.375 623.605>
Fore
103 475 m 0
 103 597 230 720 371 720 c 0
 476 720 556 654 556 554 c 0
 556 424 420 307 283 307 c 0
 168 307 103 391 103 475 c 0
360 669 m 0
 275 669 189 577 189 474 c 0
 189 412 229 359 294 359 c 0
 382 359 469 449 469 549 c 0
 469 620 426 669 360 669 c 0
EndSplineSet
EndChar
StartChar: onequarter
Encoding: 188 188 126
Width: 884
VWidth: 1507
Flags: W
HStem: -5 21G<687.2 711.5> 95 51<597 704 800 825.258> 665 51<305.933 353>
Fore
353 665 m 1
 310 665 302 688 302 704 c 0
 302 708 302 712 303 716 c 1
 404 716 l 2
 435 716 446 701 446 692 c 0
 446 690 445 689 445 687 c 1
 375 360 l 2
 367 324 334 306 277 306 c 1
 353 665 l 1
822 412 m 0
 839 412 850 403 850 389 c 0
 850 383 l 1
 800 146 l 1
 865 146 l 1
 854 92 810 95 790 95 c 1
 778 39 l 2
 772 10 740 -5 683 -5 c 1
 704 95 l 1
 525 95 l 2
 494 95 490 114 490 119 c 0
 490 125 493 131 499 137 c 2
 770 390 l 2
 783 400 801 412 822 412 c 0
714 146 m 1
 743 282 l 1
 597 146 l 1
 714 146 l 1
730 724 m 2
 754 755 780 759 792 759 c 0
 806 759 822 754 838 745 c 1
 304 -2 l 2
 287 -27 267 -39 244 -39 c 0
 230 -39 214 -34 197 -23 c 1
 730 724 l 2
EndSplineSet
LCarets2: 2 0 0 
Ligature2: "'frac' Diagonal Fractions in Latin lookup 0 subtable" one fraction four
Ligature2: "'frac' Diagonal Fractions in Latin lookup 0 subtable" one slash four
EndChar
StartChar: onehalf
Encoding: 189 189 127
Width: 884
VWidth: 1507
Flags: W
HStem: 0 51<583 815> 360 50<668.168 778.01> 665 51<305.933 353>
VStem: 549 77<269.572 275.679 275.679 320.141> 793 85<248.905 344.956>
Fore
353 665 m 1
 310 665 302 688 302 704 c 0
 302 708 302 712 303 716 c 1
 404 716 l 2
 435 716 446 701 446 692 c 0
 446 690 445 689 445 687 c 1
 375 360 l 2
 367 324 334 306 277 306 c 1
 353 665 l 1
737 410 m 0
 812 410 878 367 878 304 c 0
 878 240 830 195 693 145 c 0
 654 128 602 99 583 51 c 1
 770 51 l 2
 802 51 818 38 818 13 c 0
 818 9 818 5 817 0 c 1
 528 0 l 2
 513 0 489 4 489 19 c 0
 489 34 513 133 669 193 c 0
 746 225 793 246 793 299 c 0
 793 320 778 360 727 360 c 256
 677 360 637 319 627 282 c 1
 627 274 626 277 626 256 c 1
 585 256 549 278 549 293 c 0
 549 314 614 410 737 410 c 0
730 724 m 2
 754 755 780 759 792 759 c 0
 806 759 822 754 838 745 c 1
 304 -2 l 2
 287 -27 267 -39 244 -39 c 0
 230 -39 214 -34 197 -23 c 1
 730 724 l 2
EndSplineSet
LCarets2: 2 0 0 
Ligature2: "'frac' Diagonal Fractions in Latin lookup 0 subtable" one fraction two
Ligature2: "'frac' Diagonal Fractions in Latin lookup 0 subtable" one slash two
EndChar
StartChar: threequarters
Encoding: 190 190 128
Width: 884
VWidth: 1507
Flags: W
HStem: -5 21G<687.2 711.5> 95 51<597 704 800 825.258> 306 50<251.098 366.162> 505 50<299.314 389.432> 671 49<320.217 414.224>
VStem: 153 83<371.403 437.389> 219 78<594.207 648.069> 404 85<393.095 490.74> 422 85<592.483 664.119>
Fore
819 412 m 0xf8
 838 412 850 403 850 386 c 0
 850 383 l 2
 800 146 l 1
 865 146 l 1
 854 92 810 95 790 95 c 1
 778 39 l 2
 772 10 740 -5 683 -5 c 1
 704 95 l 1
 525 95 l 2
 494 95 490 114 490 119 c 0
 490 125 493 131 499 137 c 2
 770 390 l 2
 787 405 803 412 819 412 c 0xf8
714 146 m 1
 743 282 l 1
 597 146 l 1
 714 146 l 1
219 619 m 0xfa80
 219 641 268 720 383 720 c 0
 458 720 507 678 507 630 c 0xfa80
 507 610 499 576 440 532 c 1
 459 519 489 489 489 450 c 0
 489 384 414 306 295 306 c 0
 204 306 153 362 153 405 c 0
 153 446 193 458 246 458 c 1
 245 456 236 428 236 415 c 0
 236 380 266 356 306 356 c 0
 363 356 404 405 404 448 c 0xfd
 404 480 376 505 338 505 c 0
 312 505 297 517 297 525 c 0
 297 543 325 555 348 555 c 0
 389 555 422 589 422 624 c 0
 422 643 411 671 372 671 c 256
 319 671 297 622 297 602 c 0
 297 599 298 595 300 591 c 1
 291 590 283 589 275 589 c 0
 242 589 219 600 219 619 c 0xfa80
730 724 m 2
 754 755 780 759 792 759 c 0
 806 759 822 754 838 745 c 1
 304 -2 l 2
 287 -27 267 -39 244 -39 c 0
 230 -39 214 -34 197 -23 c 1
 730 724 l 2
EndSplineSet
LCarets2: 2 0 0 
Ligature2: "'frac' Diagonal Fractions in Latin lookup 0 subtable" three fraction four
Ligature2: "'frac' Diagonal Fractions in Latin lookup 0 subtable" three slash four
EndChar
StartChar: questiondown
Encoding: 191 191 129
Width: 533
VWidth: 1507
Flags: W
HStem: -213 58<170.665 315.183> 404 118<320.219 417.312>
VStem: 37 93<-115.918 36.0066> 294 150<430.371 497.498> 408 80<-59.7089 1.29646>
Fore
226 -213 m 0xe8
 116 -213 37 -150 37 -55 c 0
 37 -6 56 54 100 95 c 0
 210 199 266 196 285 279 c 2
 291 309 l 2
 300 349 335 369 396 369 c 1
 377 279 l 2
 355 181 264 152 178 72 c 0
 144 39 130 -12 130 -48 c 0
 130 -111 173 -155 238 -155 c 0
 339 -155 408 -60 408 20 c 1
 461 20 488 -14 488 -36 c 0
 488 -67 385 -213 226 -213 c 0xe8
444 474 m 0xf0
 444 444 410 404 356 404 c 0
 322 404 294 423 294 452 c 0
 294 493 339 522 381 522 c 0
 429 522 444 493 444 474 c 0xf0
EndSplineSet
EndChar
StartChar: AE
Encoding: 198 198 135
Width: 939
VWidth: 1507
Flags: W
HStem: 0 60<635 914.691> 232 60<333 552> 330 60<666 941.196> 659 58<690 1043.94>
Fore
60 -17 m 1
 41 -8 25 6 25 32 c 0
 25 46 30 60 42 74 c 2
 615 717 l 1
 989 717 l 2
 1029 717 1048 704 1048 677 c 0
 1048 671 1048 665 1046 659 c 1
 690 659 l 1
 666 390 l 1
 962 390 l 1
 953 350 924 330 876 330 c 2
 660 330 l 1
 635 60 l 1
 935 60 l 1
 926 20 898 0 852 0 c 2
 528 0 l 1
 552 232 l 1
 279 232 l 1
 60 -17 l 1
588 585 m 1
 333 292 l 1
 559 292 l 1
 588 585 l 1
EndSplineSet
EndChar
StartChar: Eth
Encoding: 208 208 145
Width: 759
VWidth: 1507
Flags: W
HStem: 3 60<197 496.503> 332 57<86.4481 158 266 415.987> 662 58<324 613.85>
VStem: 695 93<468.821 485 485 499.438 499.438 500.023 499.731 588.255>
Back
68 332 m 1
 76.6667 370 103.333 389 148 389 c 2
 434 389 l 1
 426 351 399.333 332 354 332 c 2
 68 332 l 1
540 720 m 2
 574.667 720 608.667 714.833 642 704.5 c 128
 675.333 694.167 704 679.167 728 659.5 c 128
 752 639.833 770 615.167 782 585.5 c 128
 794 555.833 796 522.333 788 485 c 2
 736 240 l 2
 728 203.333 712.167 170.5 688.5 141.5 c 128
 664.833 112.5 636.833 87.6667 604.5 67 c 128
 572.167 46.3333 537 30.5 499 19.5 c 128
 461 8.5 423.667 3 387 3 c 2
 137 3 l 2
 123 3 112 6.33333 104 13 c 128
 96 19.6667 93 27.3333 95 36 c 2
 234 687 l 2
 236 697 242.167 705 252.5 711 c 128
 262.833 717 275 720 289 720 c 2
 540 720 l 2
324 662 m 1
 197 63 l 1
 399 63 l 2
 427.667 63 455.333 67.8333 482 77.5 c 128
 508.667 87.1667 533 99.8333 555 115.5 c 128
 577 131.167 595.833 149.667 611.5 171 c 128
 627.167 192.333 637.333 215.333 642 240 c 2
 695 485 l 2
 699.667 509.667 698.833 532.667 692.5 554 c 128
 686.167 575.333 675.167 593.833 659.5 609.5 c 128
 643.833 625.167 624.667 637.833 602 647.5 c 128
 579.333 657.167 554 662 526 662 c 2
 324 662 l 1
EndSplineSet
Fore
698 515 m 0
 698 603 617 662 526 662 c 2
 324 662 l 1
 266 389 l 1
 434 389 l 1
 426 351 399 332 354 332 c 2
 254 332 l 1
 197 63 l 1
 399 63 l 2
 511 63 624 146 642 240 c 2
 695 485 l 2
 697 495 698 506 698 515 c 0
137 3 m 2
 100 3 94 25 94 31 c 0
 94 33 95 34 95 36 c 1
 158 332 l 1
 68 332 l 1
 77 370 103 389 148 389 c 2
 170 389 l 1
 234 687 l 2
 238 708 261 720 289 720 c 2
 540 720 l 2
 676 720 793 643 793 528 c 0
 793 514 791 500 788 485 c 2
 736 240 l 2
 706 103 545 3 387 3 c 2
 137 3 l 2
EndSplineSet
EndChar
StartChar: multiply
Encoding: 215 215 152
Width: 633
VWidth: 1507
Flags: W
HStem: 91 414<514 604 604 604>
Fore
182 481 m 1
 196 491 216 503 239 503 c 0
 256 503 270 496 282 482 c 2
 386 347 l 1
 552 482 l 2
 571 498 588 505 604 505 c 0
 620 505 635 497 648 481 c 1
 425 297 l 1
 571 115 l 1
 550 99 531 91 514 91 c 0
 498 91 484 99 472 113 c 2
 365 247 l 1
 202 113 l 2
 183 98 166 91 150 91 c 0
 134 91 119 99 106 115 c 1
 326 297 l 1
 182 481 l 1
EndSplineSet
EndChar
StartChar: Thorn
Encoding: 222 222 159
Width: 625
VWidth: 1507
Flags: W
HStem: -9 21G<88.2857 118> 173 64<232 245.742 245.742 255.67 255.67 431.956> 546 55<337.355 510.229> 705 20G<308 331.538>
VStem: 564 94<349.552 497.412>
Fore
418 601 m 0
 623 601 658 502 658 436 c 0
 658 325 542 173 300 173 c 2
 260 173 l 2
 247 173 233 174 219 176 c 1
 193 53 l 2
 184 19 152 -9 84 -9 c 1
 228 663 l 2
 237 704 280 725 336 725 c 1
 307 595 l 1
 351 600 396 601 418 601 c 0
315 231 m 0
 508 231 564 353 564 434 c 0
 564 479 539 546 405 546 c 256
 383 546 338 545 295 535 c 1
 232 237 l 1
 258 233 286 231 315 231 c 0
EndSplineSet
EndChar
StartChar: uni00DF
Encoding: 223 223 160
Width: 589
VWidth: 1507
Flags: W
HStem: -9 54<276.873 396.278> 357 53<326 413.631> 671 54<371.542 473.744>
VStem: 467 95<149.279 314.768> 493 97<525.724 652.692>
Fore
493 590 m 0xe8
 493 655 456 671 413 671 c 0
 389 671 321 663 295 537 c 2
 166 -75 l 2
 157 -116 120 -137 57 -137 c 1
 200 532 l 2
 225 647 299 725 436 725 c 0
 559 725 590 644 590 587 c 0xe8
 590 533 569 447 460 393 c 1
 542 360 562 301 562 252 c 0
 562 187 518 -9 323 -9 c 0
 277 -9 246 -2 246 37 c 0
 246 48 251 61 262 75 c 1
 270 70 312 45 339 45 c 0
 442 45 467 203 467 248 c 0xf0
 467 313 430 357 315 357 c 1
 326 410 l 1
 460 416 480 505 488 546 c 0
 491 562 493 577 493 590 c 0xe8
EndSplineSet
EndChar
StartChar: ae
Encoding: 230 230 167
Width: 925
VWidth: 1507
Flags: W
HStem: -9 56<212.135 367.917 565.882 715.981> 265 55<250.078 464 567 826> 467 55<307.778 445.876 648.419 798.618>
VStem: 87 90<80.575 198.252> 832 90<332.25 360.523 360.523 363.023 361.773 431.492>
Fore
87 127 m 0
 87 232 207 320 347 320 c 2
 476 320 l 1
 482 350 l 2
 484 357 484 364 484 371 c 0
 484 427 437 467 377 467 c 0
 307 467 240 397 210 354 c 1
 196 367 182 387 182 414 c 0
 182 428 186 439 196 449 c 0
 239 489 311 522 389 522 c 0
 443 522 516 503 552 455 c 1
 594 492 662 522 739 522 c 0
 840 522 925 465 925 378 c 0
 925 369 924 358 922 348 c 2
 910 294 l 2
 906 278 882 265 859 265 c 2
 555 265 l 1
 532 163 l 2
 531 155 530 148 530 141 c 0
 530 103 554 47 638 47 c 0
 709 47 778 97 793 167 c 1
 822 167 860 148 860 120 c 0
 860 92 776 -9 626 -9 c 0
 531 -9 484 35 467 59 c 1
 411 9 338 -9 276 -9 c 0
 164 -9 87 45 87 127 c 0
177 135 m 0
 177 98 204 47 288 47 c 0
 367 47 430 103 442 163 c 2
 464 265 l 1
 335 265 l 2
 241 265 177 200 177 135 c 0
835 373 m 0
 835 411 809 467 727 467 c 0
 647 467 585 407 573 348 c 2
 567 320 l 1
 826 320 l 1
 832 348 l 2
 834 357 835 365 835 373 c 0
EndSplineSet
EndChar
StartChar: eth
Encoding: 240 240 177
Width: 660
VWidth: 1507
Flags: W
HStem: -9 54<258.767 421.931> 469 53<343.166 482.944>
VStem: 104 90<112.196 296.469> 568 100<228.404 392.514>
Fore
104 188 m 0
 104 360 264 522 439 522 c 0
 487 522 528 509 559 490 c 1
 538 540 507 583 464 620 c 1
 276 540 l 1
 274 547 273 554 273 561 c 0
 273 588 289 609 321 623 c 2
 408 659 l 1
 391 671 374 682 356 690 c 2
 304 716 l 1
 344 772 l 1
 383 755 453 724 493 693 c 1
 654 763 l 1
 656 756 657 749 657 742 c 0
 657 708 629 689 607 680 c 2
 543 653 l 1
 621 569 668 482 668 367 c 0
 668 116 483 -9 321 -9 c 0
 163 -9 104 95 104 188 c 0
332 45 m 0
 502 45 568 229 568 336 c 0
 568 367 561 393 549 411 c 1
 497 465 454 469 428 469 c 0
 288 469 194 315 194 197 c 0
 194 110 249 45 332 45 c 0
EndSplineSet
EndChar
StartChar: divide
Encoding: 247 247 184
Width: 633
VWidth: 1507
Flags: W
HStem: 66 116<291.629 390.144> 270 59<122.278 635.399> 416 116<367.625 464.031>
VStem: 267 149<91.1465 157.617> 341 149<440.739 505.541>
Fore
101 270 m 1xe0
 107 299 134 329 184 329 c 2
 656 329 l 1
 648 292 617 270 571 270 c 2
 101 270 l 1xe0
341 465 m 0xe8
 341 497 383 532 428 532 c 256
 461 532 490 513 490 485 c 0
 490 446 446 416 402 416 c 256
 356 416 341 447 341 465 c 0xe8
267 115 m 0xf0
 267 152 311 182 353 182 c 256
 388 182 416 162 416 132 c 0
 416 98 372 66 329 66 c 0
 283 66 267 96 267 115 c 0xf0
EndSplineSet
EndChar
StartChar: oslash
Encoding: 248 248 185
Width: 679
VWidth: 1507
Flags: W
HStem: -6 56<306.898 437.757> 470 55<353.326 479.96>
VStem: 108 90<123.206 304.877> 590 90<209.583 394.783>
Back
532 517 m 2
 562 555 598.333 562 641 538 c 1
 253 -5 l 2
 239 -23 222.5 -34 203.5 -38 c 128
 184.5 -42 164.333 -38 143 -26 c 1
 532 517 l 2
115 259 m 0
 121.667 295.667 135.833 330 157.5 362 c 128
 179.167 394 205 422 235 446 c 128
 265 470 298.333 489.167 335 503.5 c 128
 371.667 517.833 409.667 525 449 525 c 256
 488.333 525 523.5 517.833 554.5 503.5 c 128
 585.5 489.167 611.167 470 631.5 446 c 128
 651.833 422 666 394 674 362 c 128
 682 330 682.333 295.667 675 259 c 0
 667 221.667 652.167 187 630.5 155 c 128
 608.833 123 582.667 95 552 71 c 128
 521.333 47 487.5 28.1667 450.5 14.5 c 128
 413.5 0.833333 375.333 -6 336 -6 c 256
 296.667 -6 261.667 0.833333 231 14.5 c 128
 200.333 28.1667 175 47 155 71 c 128
 135 95 121.167 123 113.5 155 c 128
 105.833 187 106.333 221.667 115 259 c 0
203 259 m 256
 197 230.333 196.333 203.167 201 177.5 c 128
 205.667 151.833 214.5 129.333 227.5 110 c 128
 240.5 90.6667 257.333 75.8333 278 65.5 c 128
 298.667 55.1667 322 50 348 50 c 256
 374 50 399.833 55.1667 425.5 65.5 c 128
 451.167 75.8333 474.833 90.6667 496.5 110 c 128
 518.167 129.333 536.833 151.833 552.5 177.5 c 128
 568.167 203.167 579 230.333 585 259 c 256
 591 288.333 591.667 315.833 587 341.5 c 128
 582.333 367.167 573.333 389.5 560 408.5 c 128
 546.667 427.5 529.333 442.5 508 453.5 c 128
 486.667 464.5 463 470 437 470 c 256
 411 470 385.5 464.5 360.5 453.5 c 128
 335.5 442.5 312.333 427.5 291 408.5 c 128
 269.667 389.5 251.333 367.167 236 341.5 c 128
 220.667 315.833 209.667 288.333 203 259 c 256
EndSplineSet
Fore
437 470 m 0
 312 470 198 338 198 212 c 0
 198 171 210 131 234 101 c 1
 492 461 l 1
 475 467 457 470 437 470 c 0
529 513 m 1
 548 539 570 552 594 552 c 0
 609 552 624 547 641 538 c 1
 598 478 l 1
 651 437 680 375 680 310 c 0
 680 150 519 -6 336 -6 c 0
 309 -6 283 -2 260 5 c 1
 253 -5 l 2
 237 -26 215 -40 189 -40 c 0
 174 -40 159 -35 143 -26 c 1
 189 39 l 1
 139 76 108 133 108 202 c 0
 108 377 279 525 449 525 c 0
 478 525 505 521 529 513 c 1
554 416 m 1
 298 58 l 1
 313 53 330 50 348 50 c 0
 476 50 590 177 590 307 c 0
 590 350 577 388 554 416 c 1
EndSplineSet
EndChar
StartChar: thorn
Encoding: 254 254 191
Width: 617
VWidth: 1507
Flags: W
HStem: -213 21G<46.2452 63.5> -9 56<245.563 398.631> 467 55<326.456 477.456> 705 20G<301.5 327.612>
VStem: 512 89<333.308 362 362 365 363.5 431.145>
Fore
515 374 m 0
 515 411 487 467 405 467 c 0
 325 467 264 406 252 350 c 2
 213 164 l 2
 211 155 210 147 210 139 c 0
 210 102 236 47 317 47 c 0
 399 47 461 105 473 164 c 2
 512 350 l 2
 514 358 515 366 515 374 c 0
418 522 m 0
 519 522 604 465 604 380 c 0
 604 370 603 360 601 350 c 2
 562 164 l 2
 545 78 437 -9 304 -9 c 0
 254 -9 213 3 182 23 c 1
 143 -161 l 2
 132 -205 85 -213 42 -213 c 1
 229 668 l 2
 237 706 271 725 332 725 c 1
 280 488 l 1
 323 511 369 522 418 522 c 0
EndSplineSet
EndChar
StartChar: Lslash
Encoding: 321 321 193
Width: 654
VWidth: 1507
Flags: W
HStem: 3 60<197 621.141> 509 20G<419.385 456.5> 710 20G<307 334.738>
Back
69 237 m 1
 53 273.667 63 302.667 99 324 c 2
 454 529 l 1
 470 489.667 460.333 460.667 425 442 c 2
 69 237 l 1
567 63 m 2
 613 63 632.667 43 626 3 c 1
 137 3 l 2
 123 3 112 6.33333 104 13 c 128
 96 19.6667 93 27.3333 95 36 c 2
 229 666 l 2
 238.333 708.667 275 730 339 730 c 1
 197 63 l 1
 567 63 l 2
EndSplineSet
Fore
137 3 m 2
 100 3 94 25 94 31 c 0
 94 33 95 34 95 36 c 1
 147 282 l 1
 69 237 l 1
 64 248 62 259 62 269 c 0
 62 291 74 309 99 324 c 2
 164 362 l 1
 229 666 l 2
 238 709 275 730 339 730 c 1
 274 425 l 1
 454 529 l 1
 459 517 461 505 461 495 c 0
 461 473 449 455 425 442 c 2
 257 345 l 1
 197 63 l 1
 567 63 l 2
 607 63 627 48 627 17 c 0
 627 13 627 8 626 3 c 1
 137 3 l 2
EndSplineSet
EndChar
StartChar: lslash
Encoding: 322 322 194
Width: 271
VWidth: 1507
Flags: MW
HStem: -6 21G<88.3056 116.5> 710 20G<305.5 333.7>
Back
68 238 m 1
 52 273.333 62 301.667 98 323 c 2
 350 467 l 1
 366 429.667 356.333 401 321 381 c 2
 68 238 l 1
194 57 m 2
 185.333 15 148.667 -6 84 -6 c 1
 228 666 l 2
 236.667 708.667 273.333 730 338 730 c 1
 194 57 l 2
EndSplineSet
Fore
194 57 m 2
 185 15 149 -6 84 -6 c 1
 146 282 l 1
 68 238 l 1
 63 249 61 259 61 269 c 0
 61 290 73 308 98 323 c 2
 162 360 l 1
 228 666 l 2
 237 709 273 730 338 730 c 1
 272 423 l 1
 350 467 l 1
 355 455 357 445 357 435 c 0
 357 413 345 395 321 381 c 2
 255 344 l 1
 194 57 l 2
EndSplineSet
EndChar
StartChar: OE
Encoding: 338 338 195
Width: 1234
VWidth: 1507
Flags: W
HStem: -9 60<294.798 481.351 793.671 985.175> 330 60<755 1031.49> 666 61<412.353 606.94 914.195 1107.47>
VStem: 117 98<122.757 214.654 213.289 216.02 216.02 228 228 244.438> 1130 82<182.449 244.761> 1185 98<487.552 593.041>
Fore
1185 521 m 0xf4
 1185 592 1127 666 1014 666 c 256
 895 666 796 583 776 491 c 2
 755 390 l 1
 1052 390 l 1
 1043 350 1015 330 966 330 c 2
 742 330 l 1
 720 228 l 2
 718 217 717 206 717 196 c 0
 717 109 792 51 885 51 c 0
 1008 51 1130 150 1130 261 c 1
 1160 261 1212 250 1212 206 c 0xf8
 1212 143 1070 -9 871 -9 c 0
 776 -9 686 27 644 98 c 1
 567 22 455 -9 369 -9 c 0
 236 -9 117 68 117 184 c 0
 117 198 119 213 122 228 c 2
 178 491 l 2
 203 629 376 727 526 727 c 0
 615 727 713 693 755 621 c 1
 831 697 939 727 1028 727 c 0
 1112 727 1277 691 1283 535 c 0
 1283 473 1205 458 1173 458 c 1
 1173 458 1185 495 1185 521 c 0xf4
215 193 m 0
 215 108 292 51 383 51 c 0
 486 51 602 124 624 228 c 2
 680 491 l 2
 682 501 683 512 683 521 c 0
 683 579 639 666 512 666 c 256
 393 666 294 583 274 491 c 2
 219 228 l 2
 216 216 215 204 215 193 c 0
EndSplineSet
EndChar
StartChar: oe
Encoding: 339 339 196
Width: 940
VWidth: 1507
Flags: W
HStem: -9 56<229.991 382.374 580.261 730.893> 265 55<582 841> 467 55<313.906 462.646 661.443 812.777>
VStem: 104 90<82.0306 150.488 148.477 152.5 152.5 178.793> 847 91<333.462 360.5 360.5 362.023 361.262 430.312>
Fore
754 522 m 0
 856 522 941 464 941 376 c 0
 941 367 940 358 938 348 c 2
 925 294 l 2
 921 278 897 265 874 265 c 2
 570 265 l 1
 547 163 l 2
 546 155 545 148 545 141 c 0
 545 103 569 47 653 47 c 0
 736 47 796 111 808 167 c 1
 837 167 875 148 875 120 c 0
 875 90 790 -9 641 -9 c 0
 544 -9 496 35 479 59 c 1
 437 22 366 -9 291 -9 c 0
 160 -9 104 71 104 134 c 0
 104 143 105 153 107 163 c 2
 148 348 l 2
 167 444 281 522 404 522 c 0
 477 522 536 494 565 455 c 1
 597 482 659 522 754 522 c 0
500 373 m 0
 500 411 472 467 392 467 c 0
 310 467 249 407 237 348 c 2
 196 163 l 2
 195 156 194 149 194 142 c 0
 194 104 220 47 303 47 c 0
 381 47 445 104 457 163 c 2
 497 348 l 2
 499 357 500 365 500 373 c 0
850 373 m 0
 850 413 819 467 742 467 c 0
 657 467 600 406 588 348 c 2
 582 320 l 1
 841 320 l 1
 847 348 l 2
 849 356 850 365 850 373 c 0
EndSplineSet
EndChar
StartChar: florin
Encoding: 402 402 202
Width: 605
VWidth: 1507
Flags: W
HStem: -86 54<36.3731 155.597> -25 20G<22.5 41.5> 384 55<255 318 427 564.701> 671 56<538.935 659.983>
Fore
623 727 m 0
 690 727 704 696 704 678 c 0
 704 644 671 656 669 653 c 1
 657 658 626 671 603 671 c 0
 539 671 481 614 443 485 c 2
 427 439 l 1
 582 439 l 1
 572 398 540 384 506 384 c 2
 411 384 l 1
 338 160 l 2
 313 85 281 26 242 -19 c 0
 202 -64 150 -86 84 -86 c 0
 24 -86 13 -61 13 -44 c 0
 13 -33 18 -20 27 -5 c 1
 56 -22 76 -32 102 -32 c 0
 183 -32 229 105 237 134 c 2
 318 384 l 1
 205 384 l 1
 215 438 270 439 282 439 c 2
 335 439 l 1
 336 444 340 456 344 461 c 1
 352 508 388 598 453 660 c 0
 499 705 556 727 623 727 c 0
EndSplineSet
EndChar
StartChar: circumflex
Encoding: 710 710 203
Width: 491
VWidth: 1507
Flags: W
HStem: 558 162<396 472 396 396>
VStem: 206 322<576 576 576 576>
Fore
396 720 m 256
 411 720 420 717 425 711 c 2
 528 576 l 1
 509 564 490 558 472 558 c 0
 452 558 439 563 430 574 c 2
 380 642 l 1
 300 574 l 2
 286 563 270 558 252 558 c 0
 234 558 219 564 206 576 c 1
 365 711 l 2
 372 717 382 720 396 720 c 256
EndSplineSet
EndChar
StartChar: breve
Encoding: 728 728 205
Width: 482
VWidth: 1507
Flags: W
HStem: 558 57<315.822 431.327> 558 167
VStem: 204 361<644 691 668 689 668 668> 204 92<635.156 707.817>
Fore
488 725 m 1x50
 530 725 565 711 565 689 c 0
 565 644 476 558 357 558 c 256xa0
 274 558 204 607 204 668 c 0
 204 691 209 701 236 713 c 0
 255 721 276 725 300 725 c 1x60
 297 714 296 703 296 693 c 0
 296 646 325 615 369 615 c 0x90
 430 615 476 666 488 725 c 1x50
EndSplineSet
EndChar
StartChar: dotaccent
Encoding: 729 729 206
Width: 268
VWidth: 1507
Flags: W
HStem: 638 107<231.753 328.262>
VStem: 210 139<658.708 723.076>
Fore
210 681 m 0
 210 715 248 745 292 745 c 256
 336 745 349 719 349 702 c 0
 349 666 312 638 268 638 c 256
 224 638 210 664 210 681 c 0
EndSplineSet
EndChar
StartChar: ring
Encoding: 730 730 207
Width: 449
VWidth: 1507
Flags: W
HStem: 591 42<327.208 396.644> 751 42<344.638 410.953>
VStem: 250 74<635.184 732.121> 416 73<652.384 737.187>
Fore
250 673 m 0
 250 732 315 793 390 793 c 0
 469 793 489 735 489 707 c 0
 489 661 443 591 348 591 c 0
 290 591 250 627 250 673 c 0
381 751 m 256
 346 751 324 705 324 673 c 0
 324 650 337 633 357 633 c 0
 393 633 416 678 416 705 c 0
 416 722 409 751 381 751 c 256
EndSplineSet
EndChar
StartChar: ogonek
Encoding: 731 731 208
Width: 292
VWidth: 1507
Flags: MW
HStem: -210 47<105.72 177.02>
VStem: 15 88<-160.914 -97.8865>
Fore
15 -133 m 0
 15 -76 79 -48 127 -42 c 1
 98 17 l 1
 173 17 l 1
 219 -83 l 1
 212 -83 206 -82 200 -82 c 0
 162 -82 103 -91 103 -132 c 0
 103 -150 120 -163 136 -163 c 0
 156 -163 185 -151 222 -127 c 1
 226 -136 228 -144 228 -151 c 0
 228 -187 182 -210 125 -210 c 0
 69 -210 15 -179 15 -133 c 0
EndSplineSet
EndChar
StartChar: tilde
Encoding: 732 732 209
Width: 381
VWidth: 1507
Flags: MW
HStem: 592 53<365.092 420.545> 662 52<234.845 289.389>
VStem: 151 78<601.451 660.15> 427 76<647.586 704.074>
Fore
151 626 m 0
 151 647 187 714 267 714 c 0
 354 714 365 645 398 645 c 0
 411 645 427 667 427 689 c 0
 427 695 426 701 424 708 c 1
 436 712 447 715 457 715 c 0
 490 715 503 692 503 677 c 0
 503 660 471 592 387 592 c 0
 303 592 291 662 256 662 c 0
 242 662 229 638 229 617 c 0
 229 611 230 606 231 600 c 1
 217 595 205 593 195 593 c 0
 169 593 151 606 151 626 c 0
EndSplineSet
EndChar
StartChar: uni0E01
Encoding: 3585 3585 212
Width: 660
VWidth: 1507
Flags: W
HStem: -9 21G<183 209.3 477.3 500> 550 57<345.514 506.752>
VStem: 143 95<394.843 457.48> 562 94<388.719 405 405 417.523 417.523 417.539 417.531 494.334>
Fore
205 -9 m 1
 161 -9 125 12 125 43 c 0
 125 48 126 52 127 57 c 2
 176 291 l 1
 173 301 167 332 146 390 c 0
 144 394 143 397 143 400 c 0
 143 449 243 607 442 607 c 0
 558 607 660 541 660 441 c 0
 660 430 659 418 656 405 c 2
 582 57 l 2
 571 20 527 -9 473 -9 c 1
 562 405 l 2
 564 414 565 422 565 430 c 0
 565 492 511 550 430 550 c 0
 348 550 261 491 238 413 c 1
 238 410 240 403 244 392 c 2
 255 359 l 2
 259 345 264 330 270 314 c 1
 271 298 l 1
 205 -9 l 1
EndSplineSet
EndChar
StartChar: uni0E02
Encoding: 3586 3586 213
Width: 634
VWidth: 1507
Flags: W
HStem: -9 57<325.581 436.099> 309 48<194.839 275.983> 454 40<232.79 287.073> 550 57<268.73 380.92>
VStem: 121 70<360.18 439.668> 215 94<65.1404 128.449 127.977 128.922 128.922 139 139 155.333> 291 62<371.832 450.226> 404 94<416.374 527.374>
Fore
309 117 m 0xfd
 309 77 335 48 375 48 c 256
 417 48 466 77 479 139 c 2
 565 540 l 2
 573 574 617 606 672 606 c 1
 573 139 l 2
 551 47 456 -9 363 -9 c 256
 282 -9 215 38 215 109 c 0xfd
 215 119 216 129 219 139 c 2
 225 167 l 2
 238 224 268 268 353 359 c 0
 400 404 404 443 404 464 c 0
 404 507 379 550 333 550 c 0
 288 550 252 521 232 491 c 1
 242 493 248 494 259 494 c 0
 315 494 353 465 353 423 c 0xfb
 353 368 294 309 220 309 c 0
 141 309 121 371 121 407 c 0
 121 506 224 607 345 607 c 0
 447 607 498 534 498 470 c 0
 498 349 355 324 317 167 c 2
 311 139 l 2
 309 131 309 124 309 117 c 0xfd
250 454 m 256
 211 454 191 420 191 393 c 0
 191 371 207 357 231 357 c 256
 266 357 291 386 291 418 c 0xfb
 291 439 274 454 250 454 c 256
EndSplineSet
EndChar
StartChar: uni0E03
Encoding: 3587 3587 214
Width: 634
VWidth: 1507
Flags: W
HStem: -9 57<325.581 436.099> 309 48<194.839 275.983> 454 40<230.474 287.073> 587 20G<242 308.5 384.5 421 644.5 667.76>
VStem: 121 70<360.18 438.648> 215 94<65.1404 137.875> 291 62<371.832 450.226> 406 92<398.159 534.374>
Fore
326 505 m 0xfb
 305 505 300 513 274 547 c 1
 263 539 247 521 229 490 c 1
 239 493 249 494 259 494 c 0
 315 494 353 465 353 423 c 0xfb
 353 368 294 309 220 309 c 0
 141 309 121 371 121 407 c 0
 121 470 184 607 300 607 c 0
 317 607 327 600 342 583 c 1
 359 598 374 607 395 607 c 0
 447 607 498 572 498 484 c 0
 498 334 358 336 317 167 c 2
 311 139 l 2
 309 131 309 124 309 117 c 0
 309 77 335 48 375 48 c 256
 417 48 466 77 479 139 c 2
 565 540 l 2
 573 574 617 606 672 606 c 1
 573 139 l 2
 551 47 456 -9 363 -9 c 256
 282 -9 215 38 215 109 c 0xfd
 215 119 216 129 219 139 c 2
 225 167 l 2
 238 224 268 268 353 359 c 0
 391 395 406 431 406 486 c 0
 406 515 402 535 395 546 c 1
 368 524 351 505 326 505 c 0xfb
250 454 m 256
 211 454 191 420 191 393 c 0
 191 371 207 357 231 357 c 256
 266 357 291 386 291 418 c 0
 291 439 274 454 250 454 c 256
EndSplineSet
EndChar
StartChar: uni0E04
Encoding: 3588 3588 215
Width: 690
VWidth: 1507
Flags: W
HStem: -9 21G<153.5 187.731 507.3 531> 261 46<371.872 453.591> 404 48<382.506 464.6> 550 57<376.349 537.469>
VStem: 468 64<320.404 391.786> 592 94<388.719 417.523 417.523 422.023 419.773 494.54>
Fore
176 -9 m 1
 131 -9 97 12 97 44 c 0
 97 48 98 53 99 57 c 2
 173 405 l 2
 193 507 323 607 472 607 c 0
 579 607 689 545 689 439 c 0
 689 428 688 417 686 405 c 2
 612 57 l 2
 602 21 559 -9 503 -9 c 1
 592 405 l 2
 594 414 595 422 595 430 c 0
 595 492 541 550 460 550 c 256
 378 550 284 487 267 405 c 2
 225 213 l 1
 326 393 l 2
 336 409 371 452 439 452 c 0
 491 452 532 416 532 371 c 0
 532 314 464 261 398 261 c 0
 374 261 355 265 342 274 c 1
 176 -9 l 1
428 404 m 256
 393 404 369 376 369 343 c 0
 369 321 385 307 408 307 c 256
 442 307 468 334 468 365 c 0
 468 381 460 404 428 404 c 256
EndSplineSet
EndChar
StartChar: uni0E05
Encoding: 3589 3589 216
Width: 690
VWidth: 1507
Flags: W
HStem: -9 21G<153.5 188.074 507.289 531> 247 47<368.872 450.688> 390 49<380.905 462.521> 587 20G<346 399 543.5 585>
VStem: 466 63<308.017 386.128> 602 94<417.679 434 434 446.539 446.539 447.503 447.021 529.601>
Fore
696 470 m 0
 696 459 695 447 692 434 c 2
 612 57 l 2
 602 21 559 -9 503 -9 c 1
 598 434 l 2
 600 446 602 457 602 468 c 0
 602 515 574 540 562 546 c 1
 511 513 471 475 444 475 c 0
 421 475 410 492 356 546 c 1
 342 541 288 508 273 434 c 2
 225 208 l 1
 323 380 l 2
 332 394 368 439 436 439 c 0
 502 439 529 393 529 358 c 0
 529 303 468 247 395 247 c 0
 371 247 352 252 339 261 c 1
 176 -9 l 1
 131 -9 97 12 97 44 c 0
 97 48 98 53 99 57 c 2
 179 434 l 2
 202 538 306 607 386 607 c 0
 412 607 461 556 461 556 c 1
 461 556 532 608 555 608 c 0
 615 608 696 559 696 470 c 0
427 390 m 256
 389 390 366 359 366 329 c 0
 366 308 382 294 405 294 c 256
 443 294 466 325 466 355 c 0
 466 376 450 390 427 390 c 256
EndSplineSet
EndChar
StartChar: uni0E06
Encoding: 3590 3590 217
Width: 721
VWidth: 1507
Flags: W
HStem: -9 51<142.838 222.947> 139 49<154.636 229.836> 309 48<194.839 275.855> 454 40<230.474 287.29> 587 20G<242 308.5 384.5 421 733.5 755.774>
VStem: 73 66<54.1135 123.843> 121 70<360.18 440.197> 291 63<372.253 449.777> 406 92<397.08 534.374>
Fore
326 505 m 0xfd80
 305 505 300 513 274 547 c 1
 263 539 247 521 229 490 c 1
 239 493 249 494 259 494 c 0
 316 494 354 465 354 421 c 0
 354 366 293 309 220 309 c 0
 141 309 121 371 121 407 c 0xfb80
 121 468 184 607 300 607 c 0
 317 607 327 600 342 583 c 1
 359 598 374 607 395 607 c 0
 447 607 498 572 498 484 c 0
 498 429 487 394 411 320 c 0
 332 244 324 199 316 165 c 0
 316 162 l 0
 316 161 316 159 317 157 c 1
 552 66 l 1
 653 540 l 2
 661 577 707 606 760 606 c 1
 644 57 l 2
 634 21 595 -9 547 -9 c 1
 301 86 l 1
 286 35 235 -9 167 -9 c 0
 109 -9 73 25 73 70 c 0
 73 128 132 188 210 188 c 0
 218 188 224 188 229 187 c 1
 242 225 260 259 353 359 c 0
 391 395 406 431 406 486 c 0
 406 515 402 535 395 546 c 1
 365 521 354 505 326 505 c 0xfd80
250 454 m 256
 211 454 191 420 191 393 c 0
 191 371 207 357 231 357 c 256
 266 357 291 386 291 418 c 0
 291 439 274 454 250 454 c 256
199 139 m 256
 163 139 139 107 139 79 c 0xfd80
 139 64 147 42 178 42 c 256
 211 42 238 70 238 101 c 0
 238 116 230 139 199 139 c 256
EndSplineSet
EndChar
StartChar: uni0E07
Encoding: 3591 3591 218
Width: 575
VWidth: 1507
Flags: W
HStem: -9 21G<382.233 421> 418 45<438.21 480.017> 559 48<448.662 529.323>
VStem: 370 64<466.135 545.075> 533 62<494.278 546.225>
Fore
370 492 m 0
 370 550 433 607 503 607 c 0
 571 607 595 559 595 527 c 0
 595 522 595 517 594 511 c 2
 497 57 l 2
 488 21 446 -9 396 -9 c 1
 142 360 l 2
 137 367 135 375 135 384 c 0
 135 398 140 426 176 455 c 1
 416 107 l 1
 481 418 l 1
 463 418 l 2
 407 418 370 450 370 492 c 0
493 559 m 256
 458 559 434 531 434 498 c 0
 434 477 450 463 473 463 c 256
 503 463 533 487 533 520 c 0
 533 536 525 559 493 559 c 256
EndSplineSet
EndChar
StartChar: uni0E08
Encoding: 3592 3592 219
Width: 617
VWidth: 1507
Flags: W
HStem: -9 21G<430.357 464> 262 47<312.649 385.289> 405 49<325.753 407.56> 550 57<312.778 468.935>
VStem: 248 62<312.902 389.787> 520 93<388.974 405 405 417.652 417.652 419.023 418.338 498.774>
Fore
407 607 m 0
 562 607 617 508 617 442 c 0
 617 430 616 418 613 405 c 2
 540 57 l 2
 532 29 495 -9 433 -9 c 1
 396 271 l 1
 379 265 360 262 339 262 c 0
 285 262 248 296 248 338 c 0
 248 389 302 454 380 454 c 0
 439 454 466 419 472 386 c 2
 482 231 l 1
 520 405 l 2
 522 415 523 424 523 433 c 0
 523 503 465 550 395 550 c 0
 311 550 226 482 210 405 c 1
 204 390 207 393 203 374 c 1
 162 374 123 393 123 421 c 0
 123 466 229 607 407 607 c 0
371 405 m 256
 335 405 310 373 310 345 c 0
 310 323 326 309 350 309 c 256
 386 309 410 339 410 370 c 0
 410 391 394 405 371 405 c 256
EndSplineSet
EndChar
StartChar: uni0E09
Encoding: 3593 3593 220
Width: 655
VWidth: 1507
Flags: W
HStem: -9 48<466.894 548.623> 184 48<182.896 223.606> 329 46<192.912 273.796> 550 57<317.669 480.487>
VStem: 116 62<243.659 313.72> 277 63<263.14 325.574> 539 94<406.312 491.489> 566 65<55.6843 137.693>
Fore
267 -9 m 1xfd
 228 -9 197 12 197 42 c 0
 197 47 198 52 199 57 c 2
 225 184 l 1
 206 184 l 2
 139 184 116 231 116 262 c 0
 116 323 175 375 247 375 c 256
 317 375 340 328 340 297 c 0
 340 291 339 286 338 280 c 2
 294 77 l 1
 451 161 l 2
 469 171 492 194 497 220 c 2
 537 405 l 2
 539 413 539 421 539 428 c 0
 539 477 497 550 402 550 c 256
 310 550 223 477 208 402 c 1
 145 402 134 428 134 445 c 0
 134 485 247 607 415 607 c 0
 521 607 633 544 633 440 c 0xfe
 633 429 632 417 629 405 c 2
 589 220 l 2
 586 209 580 196 571 182 c 1
 600 172 631 145 631 107 c 0
 631 52 572 -9 493 -9 c 0
 442 -9 402 18 398 62 c 1
 267 -9 l 1xfd
238 329 m 256
 202 329 178 297 178 269 c 0
 178 254 186 232 217 232 c 256
 253 232 277 263 277 291 c 0
 277 314 261 329 238 329 c 256
525 142 m 256
 489 142 462 110 462 78 c 0
 462 55 480 39 503 39 c 256
 537 39 566 68 566 102 c 0xfd
 566 124 550 142 525 142 c 256
EndSplineSet
EndChar
StartChar: uni0E0A
Encoding: 3594 3594 221
Width: 634
VWidth: 1507
Flags: W
HStem: -9 57<325.581 436.099> 309 48<194.839 275.983> 454 40<232.79 287.073> 550 57<268.73 379.874>
VStem: 121 70<360.18 439.668> 215 94<65.1404 128.449 127.977 128.922 128.922 139 139 155.333> 291 62<371.832 450.226> 404 90<393.983 439 470 524.806> 529 89<347.396 424.735>
Fore
363 -9 m 256xfb80
 282 -9 215 38 215 109 c 0xfd80
 215 119 216 129 219 139 c 2
 225 167 l 2
 238 224 268 268 353 359 c 0
 400 404 404 443 404 464 c 0
 404 507 379 550 333 550 c 0
 288 550 252 521 232 491 c 1
 242 493 248 494 259 494 c 0
 315 494 353 465 353 423 c 0
 353 368 294 309 220 309 c 0
 141 309 121 371 121 407 c 0
 121 506 224 607 345 607 c 0
 440 607 496 542 497 470 c 1
 520 479 l 2
 578 500 609 591 609 606 c 2
 609 626 l 1
 664 626 691 598 691 579 c 0
 691 561 655 485 589 457 c 1
 610 438 618 414 618 377 c 0
 618 362 616 345 613 327 c 2
 573 139 l 2
 551 47 456 -9 363 -9 c 256xfb80
309 117 m 0
 309 77 335 48 375 48 c 256
 417 48 466 77 479 139 c 2
 520 327 l 2
 526 356 529 378 529 393 c 0
 529 414 523 428 511 433 c 1
 503 435 497 437 494 439 c 1
 494 437 l 1
 474 346 352 308 317 167 c 2
 311 139 l 2
 309 131 309 124 309 117 c 0
250 454 m 256
 211 454 191 420 191 393 c 0
 191 371 207 357 231 357 c 256
 266 357 291 386 291 418 c 0xfb80
 291 439 274 454 250 454 c 256
EndSplineSet
EndChar
StartChar: uni0E0B
Encoding: 3595 3595 222
Width: 634
VWidth: 1507
Flags: W
HStem: -9 57<325.581 436.099> 309 48<194.839 275.983> 454 40<230.474 287.073> 587 20G<242 308.5 384.5 437>
VStem: 121 70<360.18 438.648> 215 94<65.1404 128.449 127.977 128.922 128.922 139 139 155.333> 291 62<371.832 450.226> 406 88<397.63 439 470 525.503> 529 89<347.396 424.735> 609 82<559.849 610.497>
Fore
363 -9 m 256xf980
 282 -9 215 38 215 109 c 0xfd80
 215 119 216 129 219 139 c 2
 225 167 l 2
 238 224 268 268 353 359 c 0
 391 395 406 431 406 486 c 0
 406 515 402 535 395 546 c 1
 365 521 354 505 326 505 c 0
 305 505 300 513 274 547 c 1
 263 539 247 521 229 490 c 1
 239 493 249 494 259 494 c 0
 315 494 353 465 353 423 c 0
 353 368 294 309 220 309 c 0
 141 309 121 371 121 407 c 0
 121 470 184 607 300 607 c 0
 317 607 327 600 342 583 c 1
 359 598 374 607 395 607 c 0
 479 607 499 531 499 481 c 2
 499 470 l 1
 509 480 551 473 594 559 c 0
 603 577 609 602 609 606 c 2
 609 626 l 1
 664 626 691 598 691 579 c 0xfb40
 691 561 655 485 589 457 c 1
 610 438 618 414 618 377 c 0
 618 362 616 345 613 327 c 2
 573 139 l 2
 551 47 456 -9 363 -9 c 256xf980
309 117 m 0
 309 77 335 48 375 48 c 256
 417 48 466 77 479 139 c 2
 520 327 l 2
 526 356 529 378 529 393 c 0
 529 414 523 428 511 433 c 1
 503 435 497 437 494 439 c 1
 494 437 l 1
 474 346 352 308 317 167 c 2
 311 139 l 2
 309 131 309 124 309 117 c 0
250 454 m 256
 211 454 191 420 191 393 c 0
 191 371 207 357 231 357 c 256
 266 357 291 386 291 418 c 0xfb
 291 439 274 454 250 454 c 256
EndSplineSet
EndChar
StartChar: uni0E0C
Encoding: 3596 3596 223
Width: 939
VWidth: 1507
Flags: W
HStem: -9 48<196.883 278.814 430.667 513.19> 136 46<246.457 290.501 442.387 517.147> 550 57<341.337 507.388>
VStem: 132 62<42.3288 103.937> 294 62<53.4486 124.359> 364 64<42.5286 121.247> 566 94<389 405 405 416.523 416.523 417.539 417.031 493.705>
Fore
431 550 m 256
 346 550 261 491 238 413 c 1
 238 410 240 403 244 392 c 2
 255 359 l 2
 259 345 264 330 270 314 c 1
 271 298 l 1
 246 181 l 1
 249 182 255 182 264 182 c 0
 330 182 356 141 356 105 c 0
 356 49 297 -9 223 -9 c 256
 156 -9 132 37 132 67 c 0
 132 74 132 80 134 87 c 2
 178 291 l 1
 143 400 l 1
 167 518 303 607 443 607 c 0
 560 607 660 541 660 441 c 0
 660 430 659 418 656 405 c 2
 600 146 l 1
 767 66 l 1
 868 540 l 2
 876 574 920 606 975 606 c 1
 859 57 l 2
 850 21 811 -9 761 -9 c 1
 585 74 l 1
 570 29 518 -9 457 -9 c 0
 389 -9 364 37 364 68 c 0
 364 128 425 182 497 182 c 0
 505 182 511 182 515 181 c 1
 564 405 l 2
 566 413 566 421 566 428 c 0
 566 479 522 550 431 550 c 256
255 136 m 256
 219 136 194 106 194 75 c 0
 194 53 210 39 234 39 c 256
 268 39 294 67 294 100 c 0
 294 115 286 136 255 136 c 256
488 136 m 256
 450 136 428 104 428 74 c 0
 428 53 444 39 467 39 c 256
 501 39 528 66 528 100 c 0
 528 122 512 136 488 136 c 256
EndSplineSet
EndChar
StartChar: uni0E0D
Encoding: 3597 3597 224
Width: 908
VWidth: 1507
Flags: W
HStem: -267 57<566.251 637.499> -81 43<505.512 579.099> -9 63<585.516 708.761> -9 48<196.883 278.814> 136 46<246.457 290.501> 550 57<333.769 489.936>
VStem: 132 62<42.3288 103.937> 294 62<53.4486 124.359> 432 61<-166.224 -92.9618> 475 93<71.7952 126.977 124.477 129.477 129.477 155.333> 538 93<388.667 405 405 417.988 417.988 419.523 418.756 502.114> 583 61<-156.048 -83.7762> 698 85<-136.611 -52.7117>
Fore
416 550 m 0xef28
 349 550 268 505 238 413 c 1
 238 410 240 403 244 392 c 2
 255 359 l 2
 259 345 264 330 270 314 c 1
 271 298 l 1
 246 181 l 1
 249 182 255 182 264 182 c 0
 330 182 356 141 356 105 c 0
 356 49 297 -9 223 -9 c 256
 156 -9 132 37 132 67 c 0
 132 74 132 80 134 87 c 2
 178 291 l 1
 143 400 l 1
 168 518 285 607 428 607 c 0
 545 607 631 542 631 443 c 0xdf28
 631 431 630 418 627 405 c 2
 570 139 l 2
 569 132 568 126 568 120 c 0
 568 91 586 54 644 54 c 256
 699 54 743 93 752 139 c 2
 838 540 l 2
 846 574 890 606 945 606 c 1
 846 139 l 2
 825 54 731 -9 630 -9 c 256
 539 -9 475 45 475 110 c 0xef58
 475 119 476 129 478 139 c 2
 535 405 l 2
 537 415 538 425 538 434 c 0
 538 504 485 550 416 550 c 0xef28
644 -109 m 0xcf98
 644 -146 614 -186 561 -202 c 1
 571 -207 579 -210 585 -210 c 0
 642 -210 698 -138 698 -39 c 1
 764 -39 783 -67 783 -85 c 0
 783 -132 705 -267 573 -267 c 0
 490 -267 432 -212 432 -152 c 0
 432 -85 491 -38 556 -38 c 0
 619 -38 644 -79 644 -109 c 0xcf98
255 136 m 256
 219 136 194 106 194 75 c 0
 194 53 210 39 234 39 c 256xdf08
 268 39 294 67 294 100 c 0
 294 115 286 136 255 136 c 256
547 -81 m 256
 520 -81 493 -105 493 -135 c 0
 493 -155 509 -169 529 -169 c 256
 559 -169 583 -139 583 -117 c 0xcf98
 583 -97 568 -81 547 -81 c 256
EndSplineSet
Substitution2: "Single Substitution lookup 22 subtable" uni0E0D.alt1
Substitution2: "Single Substitution lookup 22 subtable" uni0E0D.alt1
EndChar
StartChar: uni0E0E
Encoding: 3598 3598 225
AltUni2: 00f71b.ffffffff.0
Width: 688
VWidth: 1507
Flags: W
HStem: -268 49<194.253 265.76> -141 52<192.071 280.532> -9 48<124.877 207.6> 136 46<136.991 211.712> 550 57<369.564 533.752>
VStem: 60 62<42.3176 121.749> 107 74<-213.953 -152.978> 592 95<406.423 494.334>
Fore
182 136 m 256xfd
 144 136 122 104 122 74 c 0
 122 53 138 39 161 39 c 256
 195 39 222 66 222 100 c 0
 222 122 206 136 182 136 c 256xfd
244 -141 m 0
 221 -141 181 -155 181 -187 c 0xfb
 181 -209 209 -219 218 -219 c 0
 234 -219 266 -205 298 -164 c 1
 280 -149 263 -141 244 -141 c 0
432 -94 m 0
 432 -113 413 -123 392 -155 c 1
 401 -166 l 2
 407 -174 411 -182 413 -190 c 1
 473 -142 l 1
 589 405 l 2
 591 414 592 422 592 430 c 0
 592 492 538 550 457 550 c 0
 369 550 286 485 265 413 c 1
 269 402 281 380 294 360 c 2
 320 317 l 2
 324 309 326 303 326 299 c 2
 326 297 l 1
 282 87 l 2
 271 38 216 -9 151 -9 c 256
 84 -9 60 37 60 67 c 0xfd
 60 131 121 182 191 182 c 0
 199 182 205 182 210 181 c 1
 232 288 l 1
 224 299 223 306 199 347 c 2
 169 396 l 1
 169 473 293 607 469 607 c 0
 585 607 687 541 687 441 c 0
 687 430 686 418 683 405 c 2
 573 -109 l 2
 570 -118 561 -139 546 -149 c 0
 541 -152 456 -224 410 -261 c 0
 408 -263 399 -269 383 -269 c 0
 372 -269 349 -264 347 -250 c 0
 345 -237 341 -225 336 -214 c 1
 294 -250 251 -268 205 -268 c 0
 154 -268 107 -250 107 -200 c 0
 107 -124 189 -89 251 -89 c 0
 281 -89 312 -96 341 -112 c 1
 352 -97 366 -73 383 -42 c 1
 409 -52 432 -72 432 -94 c 0
EndSplineSet
Substitution2: "Single Substitution lookup 22 subtable" uni0E0E.alt1
Substitution2: "Single Substitution lookup 22 subtable" uni0E0E.alt1
EndChar
StartChar: uni0E0F
Encoding: 3599 3599 226
AltUni2: 00f71c.ffffffff.0
Width: 687
VWidth: 1507
Flags: W
HStem: -268 49<96.8243 155.231> -141 52<109.936 184.335> -9 48<124.517 205.34> 136 46<136.841 210.712> 550 57<369.564 533.752>
VStem: 10 73<-214.361 -153.025> 60 61<50.8483 120.593> 589 94<388.715 405 405 417.523 417.523 417.539 417.531 494.334>
Fore
181 136 m 256xfb
 145 136 121 104 121 76 c 0
 121 61 129 39 160 39 c 256
 193 39 220 67 220 98 c 0
 220 113 212 136 181 136 c 256xfb
265 413 m 1
 304 332 326 317 326 299 c 2
 326 297 l 1
 282 87 l 2
 271 38 216 -9 151 -9 c 256
 84 -9 60 37 60 67 c 0xfb
 60 131 121 182 191 182 c 0
 199 182 205 182 210 181 c 1
 232 288 l 1
 169 396 l 1
 169 473 293 607 469 607 c 0
 585 607 687 541 687 441 c 0
 687 430 686 418 683 405 c 2
 562 -158 l 2
 561 -166 549 -183 535 -193 c 2
 452 -261 l 2
 441 -269 430 -273 419 -273 c 0
 408 -273 400 -269 395 -261 c 2
 363 -220 l 1
 314 -261 l 2
 312 -263 303 -269 287 -269 c 0
 266 -269 251 -261 247 -249 c 1
 246 -237 242 -224 238 -214 c 1
 198 -250 154 -268 108 -268 c 0
 55 -268 10 -249 10 -199 c 0xfd
 10 -131 82 -89 153 -89 c 0
 185 -89 214 -96 241 -112 c 1
 251 -100 262 -87 285 -44 c 1
 315 -54 333 -75 333 -95 c 0
 333 -101 331 -107 327 -113 c 2
 292 -157 l 1
 302 -167 311 -179 318 -193 c 1
 353 -164 l 2
 364 -156 374 -151 383 -151 c 0
 392 -151 401 -156 408 -164 c 2
 439 -202 l 1
 464 -184 l 1
 589 405 l 2
 591 414 592 422 592 430 c 0
 592 492 538 550 457 550 c 0
 369 550 286 485 265 413 c 1
83 -187 m 0xfd
 83 -208 111 -219 120 -219 c 0
 137 -219 172 -208 202 -164 c 1
 183 -149 167 -141 148 -141 c 0
 131 -141 83 -150 83 -187 c 0xfd
EndSplineSet
Substitution2: "Single Substitution lookup 22 subtable" uni0E0F.alt1
Substitution2: "Single Substitution lookup 22 subtable" uni0E0F.alt1
EndChar
StartChar: uni0E10
Encoding: 3600 3600 227
Width: 610
VWidth: 1507
Flags: W
HStem: -298 42<82.9842 129.51> -233 20G<314.5 326.5> -193 45<91.7027 153.576 341.571 376.778> -72 43<346.929 415.389> -9 21G<405.03 438.5> 102 49<259.188 328.651> 247 47<269.588 351.585> 550 57<332.573 468.494>
VStem: 15 61<-255.368 -197.53> 194 62<154.24 232.959> 278 62<-146.773 -79.3846> 417 60<-125.333 -73.4724>
Fore
272 -150 m 0
 272 -172 257 -192 246 -205 c 1
 270 -238 l 1
 289 -220 l 2
 295 -214 309 -213 320 -213 c 256
 333 -213 336 -214 342 -220 c 1
 360 -244 l 1
 368 -237 l 1
 377 -193 l 1
 360 -193 l 2
 315 -193 278 -166 278 -125 c 0
 278 -79 330 -29 395 -29 c 0
 452 -29 477 -68 477 -96 c 0
 477 -100 476 -105 475 -110 c 2
 455 -203 l 2
 451 -222 425 -242 420 -246 c 2
 368 -291 l 2
 363 -296 354 -298 341 -298 c 0
 330 -298 322 -296 317 -291 c 1
 295 -261 l 1
 259 -291 l 2
 254 -296 243 -298 231 -298 c 0
 214 -298 203 -272 203 -272 c 1
 203 -271 201 -268 197 -261 c 1
 172 -280 131 -298 89 -298 c 0
 32 -298 15 -264 15 -241 c 0
 15 -197 56 -148 127 -148 c 0
 173 -148 190 -156 203 -163 c 1
 206 -157 217 -139 234 -101 c 1
 263 -115 272 -127 272 -150 c 0
76 -231 m 0
 76 -246 92 -256 99 -256 c 0
 113 -256 142 -245 167 -210 c 1
 152 -197 138 -191 118 -191 c 0
 112 -191 76 -198 76 -231 c 0
150 430 m 0
 150 458 229 607 413 607 c 0
 507 607 555 560 570 543 c 1
 618 607 l 1
 646 593 663 575 663 551 c 0
 663 541 659 532 653 523 c 2
 600 449 l 2
 585 429 570 419 555 419 c 0
 534 419 524 433 520 449 c 0
 508 506 462 550 401 550 c 0
 330 550 273 486 250 448 c 1
 526 377 l 2
 552 367 572 345 572 324 c 0
 572 320 571 316 570 312 c 2
 517 57 l 2
 507 21 464 -9 413 -9 c 1
 360 124 l 1
 337 109 312 102 285 102 c 0
 220 102 194 148 194 180 c 0
 194 238 255 294 326 294 c 0
 371 294 402 274 415 244 c 2
 443 146 l 1
 481 323 l 1
 359 353 300 372 178 402 c 0
 159 406 150 419 150 430 c 0
315 247 m 256
 280 247 256 219 256 186 c 0
 256 165 272 151 295 151 c 256
 329 151 355 177 355 208 c 0
 355 224 347 247 315 247 c 256
386 -72 m 256
 358 -72 340 -94 340 -119 c 0
 340 -137 352 -148 371 -148 c 256
 396 -148 417 -128 417 -102 c 0
 417 -84 404 -72 386 -72 c 256
EndSplineSet
Substitution2: "Single Substitution lookup 22 subtable" uni0E10.alt1
Substitution2: "Single Substitution lookup 22 subtable" uni0E10.alt1
EndChar
StartChar: uni0E11
Encoding: 3601 3601 228
Width: 764
VWidth: 1507
Flags: W
HStem: -9 21G<270.5 305.659 581.264 604.5> 309 48<194.839 275.855> 454 40<230.474 287.29> 587 20G<242 308.5 385 429 672.5 724>
VStem: 121 70<360.742 438.654> 291 63<372.253 449.777> 406 92<421.449 534.968>
Fore
326 505 m 0
 305 505 300 513 274 547 c 1
 263 539 247 521 229 490 c 1
 239 493 249 494 259 494 c 0
 316 494 354 465 354 421 c 0
 354 366 293 309 220 309 c 0
 141 309 121 373 121 408 c 0
 121 468 184 607 300 607 c 0
 317 607 327 600 342 583 c 1
 359 598 374 607 396 607 c 0
 462 607 498 556 498 484 c 0
 498 429 487 394 411 320 c 0
 367 279 347 235 333 172 c 1
 639 591 l 2
 644 597 661 607 684 607 c 0
 764 607 781 560 781 528 c 0
 781 521 781 513 779 505 c 2
 684 57 l 2
 675 22 632 -9 577 -9 c 1
 690 521 l 1
 691 523 691 524 691 526 c 0
 691 529 690 531 689 534 c 1
 291 -9 l 1
 250 -9 215 12 215 44 c 0
 215 48 216 53 217 57 c 2
 240 167 l 2
 275 323 382 353 401 437 c 0
 404 452 406 469 406 486 c 0
 406 515 402 535 395 546 c 1
 369 523 352 505 326 505 c 0
250 454 m 256
 211 454 191 420 191 393 c 0
 191 371 207 357 231 357 c 256
 266 357 291 386 291 418 c 0
 291 439 274 454 250 454 c 256
EndSplineSet
EndChar
StartChar: uni0E12
Encoding: 3602 3602 229
Width: 967
VWidth: 1507
Flags: W
HStem: -9 48<457.831 540.308> 142 46<469.939 546.649> 390 49<380.27 462.759> 587 20G<343.5 393.5 550.5 589.5 976.5 999.774>
VStem: 303 63<297.125 375.348> 388 65<43.5792 124.91> 466 63<308.082 386.891> 604 92<436.888 529.54>
Fore
388 70 m 0
 388 125 446 188 526 188 c 0
 535 188 542 188 547 187 c 1
 600 434 l 2
 602 446 604 457 604 468 c 0
 604 516 575 541 562 546 c 1
 518 518 470 475 444 475 c 0
 421 475 394 513 356 546 c 1
 342 541 288 508 273 434 c 2
 203 109 l 1
 360 253 l 1
 322 264 303 294 303 322 c 0
 303 369 353 439 436 439 c 0
 489 439 529 402 529 357 c 0
 529 330 515 306 487 282 c 2
 172 -9 l 1
 133 -9 99 12 99 43 c 0
 99 47 100 52 101 57 c 2
 181 434 l 2
 203 531 298 607 389 607 c 0
 398 607 413 604 461 556 c 1
 524 602 546 608 555 608 c 0
 624 608 696 552 696 470 c 0
 696 459 695 447 692 434 c 2
 632 151 l 1
 796 66 l 1
 897 540 l 2
 905 574 949 606 1004 606 c 1
 888 57 l 2
 878 22 837 -9 790 -9 c 1
 615 78 l 1
 597 27 545 -9 484 -9 c 0
 427 -9 388 24 388 70 c 0
427 390 m 256
 389 390 366 359 366 329 c 0
 366 308 382 294 405 294 c 256
 443 294 466 325 466 355 c 0
 466 376 450 390 427 390 c 256
515 142 m 256
 481 142 453 111 453 78 c 0
 453 55 471 39 494 39 c 256
 525 39 557 67 557 102 c 0
 557 125 541 142 515 142 c 256
EndSplineSet
EndChar
StartChar: uni0E13
Encoding: 3603 3603 230
Width: 934
VWidth: 1507
Flags: W
HStem: -9 48<196.883 278.472 743.693 825.787> 136 46<246.457 290.684> 550 57<334.511 489.62>
VStem: 132 62<42.3288 103.937> 294 63<53.8712 124.58> 540 93<388.683 405 405 417.652 417.652 421.546 419.599 500.855> 844 64<56.3144 136.535>
Fore
418 550 m 256
 366 550 272 520 238 415 c 1
 238 412 240 404 244 394 c 2
 255 359 l 2
 259 345 264 330 270 314 c 1
 271 298 l 1
 246 181 l 1
 249 182 255 182 264 182 c 0
 331 182 357 140 357 103 c 0
 357 47 295 -9 223 -9 c 256
 156 -9 132 37 132 67 c 0
 132 74 132 80 134 87 c 2
 178 291 l 1
 143 400 l 1
 169 519 288 607 430 607 c 0
 550 607 633 538 633 442 c 0
 633 430 632 418 629 405 c 2
 558 74 l 1
 730 163 l 2
 754 177 768 195 773 222 c 2
 841 540 l 2
 849 574 893 606 948 606 c 1
 867 222 l 1
 860 202 l 2
 857 194 854 187 850 182 c 1
 877 171 908 145 908 107 c 0
 908 48 841 -9 770 -9 c 0
 716 -9 678 19 677 66 c 1
 531 -9 l 1
 491 -9 461 11 461 42 c 0
 461 47 462 52 463 57 c 2
 537 405 l 2
 539 417 540 428 540 438 c 0
 540 511 474 550 418 550 c 256
255 136 m 256
 219 136 194 106 194 75 c 0
 194 53 210 39 234 39 c 256
 268 39 294 67 294 100 c 0
 294 115 286 136 255 136 c 256
802 142 m 256
 769 142 739 111 739 80 c 0
 739 57 756 39 781 39 c 256
 811 39 844 67 844 101 c 0
 844 123 827 142 802 142 c 256
EndSplineSet
EndChar
StartChar: uni0E14
Encoding: 3604 3604 231
Width: 690
VWidth: 1507
Flags: W
HStem: -9 21G<151.5 192.85 507.3 531> 405 49<383.27 465.521> 550 57<373.433 535.758>
VStem: 306 63<312.659 390.348> 469 63<336.956 401.128> 592 94<388.719 417.523 417.523 419.523 418.523 494.501>
Fore
595 430 m 0
 595 492 541 550 460 550 c 256
 378 550 284 487 267 405 c 2
 203 113 l 1
 363 267 l 1
 336 276 306 300 306 337 c 0
 306 384 356 454 439 454 c 0
 505 454 532 408 532 373 c 0
 532 362 532 338 491 297 c 2
 172 -9 l 1
 131 -9 97 12 97 44 c 0
 97 48 98 52 99 57 c 2
 173 405 l 2
 191 497 309 607 472 607 c 256
 631 607 689 503 689 434 c 0
 689 425 688 415 686 405 c 2
 612 57 l 2
 602 21 559 -9 503 -9 c 1
 592 405 l 2
 594 414 595 422 595 430 c 0
430 405 m 256
 392 405 369 374 369 344 c 0
 369 323 385 309 408 309 c 256
 446 309 469 340 469 370 c 0
 469 391 453 405 430 405 c 256
EndSplineSet
EndChar
StartChar: uni0E15
Encoding: 3605 3605 232
Width: 690
VWidth: 1507
Flags: W
HStem: -9 21G<151.5 193.649 507.289 531> 390 49<380.903 462.759> 587 20G<346 399 550.5 589.5>
VStem: 303 63<297.666 376.014> 466 63<308.082 386.891> 602 94<417.679 434 434 446.539 446.539 447.503 447.021 529.685>
Fore
696 470 m 0
 696 459 695 447 692 434 c 2
 612 57 l 2
 602 21 559 -9 503 -9 c 1
 598 434 l 2
 600 446 602 457 602 468 c 0
 602 515 574 540 562 546 c 1
 518 518 470 475 444 475 c 0
 421 475 410 492 356 546 c 1
 342 541 288 508 273 434 c 2
 203 109 l 1
 359 253 l 1
 332 261 303 285 303 322 c 0
 303 372 356 439 436 439 c 0
 489 439 529 402 529 357 c 0
 529 330 515 306 487 282 c 2
 172 -9 l 1
 131 -9 97 12 97 44 c 0
 97 48 98 52 99 57 c 2
 179 434 l 2
 202 538 306 607 386 607 c 0
 412 607 461 556 461 556 c 1
 524 602 546 608 555 608 c 0
 624 608 696 552 696 470 c 0
427 390 m 256
 389 390 366 359 366 329 c 0
 366 308 382 294 405 294 c 256
 443 294 466 325 466 355 c 0
 466 376 450 390 427 390 c 256
EndSplineSet
EndChar
StartChar: uni0E16
Encoding: 3606 3606 233
Width: 660
VWidth: 1507
Flags: W
HStem: -9 48<197.012 279.408> 136 46<246.457 290.726> 550 57<343.295 506.752>
VStem: 131 63<42.9405 103.937> 294 62<53.0055 124.483> 562 94<388.719 405 405 417.523 417.523 417.539 417.531 494.334>
Fore
565 430 m 0
 565 492 511 550 430 550 c 0
 345 550 261 490 238 413 c 1
 270 314 l 2
 271 311 271 305 271 298 c 1
 246 181 l 1
 249 182 255 182 264 182 c 0
 317 182 356 150 356 105 c 0
 356 47 293 -9 223 -9 c 0
 157 -9 131 35 131 68 c 0
 131 74 131 80 133 87 c 2
 176 291 l 1
 146 390 l 1
 144 393 144 397 144 399 c 0
 144 462 255 607 442 607 c 0
 558 607 660 541 660 441 c 0
 660 430 659 418 656 405 c 2
 582 57 l 2
 571 20 527 -9 473 -9 c 1
 562 405 l 2
 564 414 565 422 565 430 c 0
255 136 m 256
 219 136 194 106 194 75 c 0
 194 53 210 39 234 39 c 256
 268 39 294 67 294 100 c 0
 294 115 286 136 255 136 c 256
EndSplineSet
EndChar
StartChar: uni0E17
Encoding: 3607 3607 234
Width: 731
VWidth: 1507
Flags: W
HStem: -9 21G<239 273.109 548.289 571> 416 47<217.566 258.112> 559 48<225.645 307.141>
VStem: 150 63<474.926 546.176> 312 63<494.049 554.846> 639 94<417.679 434 434 446.875 446.875 447.996 447.436 526.792>
Fore
261 -9 m 1
 217 -9 182 12 182 43 c 0
 182 48 183 52 184 57 c 2
 259 416 l 1
 241 416 l 2
 173 416 150 461 150 491 c 0
 150 549 211 607 282 607 c 0
 352 607 375 559 375 527 c 0
 375 522 375 517 374 511 c 2
 304 190 l 1
 506 542 l 2
 537 595 533 595 551 602 c 0
 560 605 569 607 580 607 c 0
 719 607 737 520 737 475 c 0
 737 462 736 448 733 434 c 2
 653 57 l 2
 642 20 598 -9 544 -9 c 1
 639 434 l 2
 642 447 643 460 643 471 c 0
 643 509 627 533 594 541 c 1
 261 -9 l 1
271 559 m 256
 240 559 213 535 213 500 c 0
 213 485 221 463 252 463 c 256
 285 463 312 491 312 520 c 0
 312 543 295 559 271 559 c 256
EndSplineSet
EndChar
StartChar: uni0E18
Encoding: 3608 3608 235
Width: 610
VWidth: 1507
Flags: W
HStem: -9 57<248.589 387.171> 550 57<332.573 468.494>
VStem: 122 93<80.9491 175.824 175.305 176.344 176.344 191 191 206.833>
Fore
618 607 m 1
 646 593 663 575 663 551 c 0
 663 541 659 532 653 523 c 2
 600 449 l 2
 585 429 570 419 555 419 c 0
 534 419 524 433 520 449 c 0
 508 506 462 550 401 550 c 0
 330 550 273 486 250 448 c 1
 540 372 l 2
 569 363 586 339 586 317 c 0
 586 314 586 310 585 307 c 2
 559 191 l 2
 538 92 455 -9 300 -9 c 256
 153 -9 122 83 122 144 c 0
 122 159 124 175 127 191 c 2
 148 286 l 2
 156 324 203 353 255 353 c 1
 220 191 l 2
 217 176 215 161 215 148 c 0
 215 106 234 48 312 48 c 0
 374 48 447 88 467 191 c 2
 494 318 l 1
 178 402 l 2
 159 406 150 419 150 430 c 0
 150 458 229 607 413 607 c 0
 507 607 555 560 570 543 c 1
 618 607 l 1
EndSplineSet
EndChar
StartChar: uni0E19
Encoding: 3609 3609 236
Width: 740
VWidth: 1507
Flags: W
HStem: -9 48<550.873 633.3> 416 47<217.009 258.112> 559 48<226.877 307.141>
VStem: 150 63<474.543 546.106> 312 63<494.049 554.846> 485 61<45.2636 81> 651 63<56.616 136.785>
Fore
252 -9 m 1
 212 -9 182 11 182 42 c 0
 182 47 183 52 184 57 c 2
 259 416 l 1
 241 416 l 2
 187 416 150 450 150 492 c 0
 150 548 210 607 282 607 c 0
 352 607 375 559 375 527 c 0
 375 522 375 517 374 511 c 2
 279 66 l 1
 534 166 l 2
 560 178 576 206 580 226 c 2
 648 540 l 2
 656 574 700 606 755 606 c 1
 674 226 l 2
 671 211 664 197 653 184 c 1
 695 170 714 140 714 111 c 0
 714 52 658 -9 577 -9 c 0
 524 -9 485 24 485 73 c 2
 485 81 l 1
 252 -9 l 1
271 559 m 256
 240 559 213 535 213 500 c 0
 213 485 221 463 252 463 c 256
 285 463 312 491 312 520 c 0
 312 543 295 559 271 559 c 256
609 142 m 256
 576 142 546 111 546 80 c 0
 546 57 563 39 588 39 c 256
 618 39 651 67 651 101 c 0
 651 123 634 142 609 142 c 256
EndSplineSet
EndChar
StartChar: uni0E1A
Encoding: 3610 3610 237
Width: 715
VWidth: 1507
Flags: W
HStem: -9 57<337.673 484.71> 416 47<217.566 258.112> 559 48<225.645 307.141>
VStem: 150 63<474.926 546.176> 208 93<85.0096 178.918 178.289 179.546 179.546 193 193 209.368> 312 63<494.049 554.846>
Fore
395 -9 m 256xec
 273 -9 208 63 208 149 c 0xec
 208 163 210 178 213 193 c 2
 259 416 l 1
 241 416 l 2
 173 416 150 461 150 491 c 0xf4
 150 549 211 607 282 607 c 0
 352 607 375 559 375 527 c 0
 375 522 375 517 374 511 c 2
 306 193 l 2
 303 179 301 166 301 153 c 0
 301 113 322 48 407 48 c 0
 489 48 556 115 573 193 c 2
 647 540 l 2
 655 577 701 606 754 606 c 1
 666 193 l 2
 643 78 528 -9 395 -9 c 256xec
271 559 m 256
 240 559 213 535 213 500 c 0xf4
 213 485 221 463 252 463 c 256
 285 463 312 491 312 520 c 0
 312 543 295 559 271 559 c 256
EndSplineSet
EndChar
StartChar: uni0E1B
Encoding: 3611 3611 238
Width: 731
VWidth: 1507
Flags: W
HStem: -9 57<341.828 495.62> 416 47<217.566 258.112> 559 48<225.645 307.141>
VStem: 150 63<474.926 546.176> 208 93<87.9237 179.71 179.546 179.874 179.874 193 193 209.368> 312 63<494.049 554.846>
Fore
402 -9 m 0xec
 290 -9 208 60 208 153 c 0xec
 208 166 210 179 213 193 c 2
 259 416 l 1
 241 416 l 2
 173 416 150 461 150 491 c 0xf4
 150 549 211 607 282 607 c 0
 352 607 375 559 375 527 c 0
 375 522 375 517 374 511 c 2
 306 193 l 2
 303 179 301 167 301 155 c 0
 301 112 324 48 415 48 c 0
 503 48 570 113 588 193 c 2
 713 784 l 2
 721 818 764 849 820 849 c 1
 681 193 l 2
 659 82 538 -9 402 -9 c 0xec
271 559 m 256
 240 559 213 535 213 500 c 0xf4
 213 485 221 463 252 463 c 256
 285 463 312 491 312 520 c 0
 312 543 295 559 271 559 c 256
EndSplineSet
EndChar
StartChar: uni0E1C
Encoding: 3612 3612 239
Width: 663
VWidth: 1507
Flags: W
HStem: -9 21G<151.5 188.746 473.761 507.5> 416 47<268 341.573> 559 48<270.923 353.506>
VStem: 357 63<477.737 546.225>
Fore
420 527 m 0
 420 476 361 416 286 416 c 2
 268 416 l 1
 210 140 l 1
 360 332 l 2
 369 342 383 347 402 347 c 0
 418 347 435 342 439 332 c 2
 508 140 l 1
 594 540 l 2
 602 574 646 606 701 606 c 1
 585 57 l 2
 575 22 534 -9 481 -9 c 1
 384 259 l 1
 173 -9 l 1
 130 -9 97 12 97 44 c 0
 97 48 98 52 99 57 c 2
 196 511 l 2
 205 557 260 607 327 607 c 0
 396 607 420 559 420 527 c 0
317 559 m 256
 284 559 258 535 258 500 c 0
 258 485 266 463 297 463 c 256
 330 463 357 491 357 520 c 0
 357 536 349 559 317 559 c 256
EndSplineSet
EndChar
StartChar: uni0E1D
Encoding: 3613 3613 240
Width: 663
VWidth: 1507
Flags: W
HStem: -9 21G<151.5 188.746 473.761 507.5> 416 47<268 341.573> 559 48<270.923 353.506>
VStem: 357 63<477.737 546.225>
Fore
420 527 m 0
 420 476 361 416 286 416 c 2
 268 416 l 1
 210 140 l 1
 360 332 l 2
 369 342 383 347 402 347 c 0
 418 347 435 342 439 332 c 2
 508 140 l 1
 645 784 l 2
 653 818 696 849 752 849 c 1
 585 57 l 2
 575 22 534 -9 481 -9 c 1
 384 259 l 1
 173 -9 l 1
 130 -9 97 12 97 44 c 0
 97 48 98 52 99 57 c 2
 196 511 l 2
 205 557 260 607 327 607 c 0
 396 607 420 559 420 527 c 0
317 559 m 256
 284 559 258 535 258 500 c 0
 258 485 266 463 297 463 c 256
 330 463 357 491 357 520 c 0
 357 536 349 559 317 559 c 256
EndSplineSet
EndChar
StartChar: uni0E1E
Encoding: 3614 3614 241
Width: 744
VWidth: 1507
Flags: W
HStem: -9 21G<239 272.634 555.881 585.5> 416 47<217.566 258.112> 559 48<225.645 307.141>
VStem: 150 63<474.926 546.176> 312 63<494.049 554.846>
Fore
261 -9 m 1
 217 -9 182 12 182 43 c 0
 182 48 183 52 184 57 c 2
 259 416 l 1
 241 416 l 2
 173 416 150 461 150 491 c 0
 150 549 211 607 282 607 c 0
 352 607 375 559 375 527 c 0
 375 522 375 517 374 511 c 2
 307 203 l 1
 472 487 l 2
 482 500 498 506 520 506 c 0
 543 506 556 500 559 487 c 2
 603 203 l 1
 675 540 l 2
 683 576 730 606 781 606 c 1
 665 57 l 2
 654 20 612 -9 559 -9 c 1
 496 395 l 1
 261 -9 l 1
271 559 m 256
 240 559 213 535 213 500 c 0
 213 485 221 463 252 463 c 256
 285 463 312 491 312 520 c 0
 312 543 295 559 271 559 c 256
EndSplineSet
EndChar
StartChar: uni0E1F
Encoding: 3615 3615 242
Width: 744
VWidth: 1507
Flags: W
HStem: -9 21G<239 272.634 555.881 585.5> 416 47<217.566 258.112> 559 48<225.645 307.141>
VStem: 150 63<474.926 546.176> 312 63<494.049 554.846>
Fore
261 -9 m 1
 217 -9 182 12 182 43 c 0
 182 48 183 52 184 57 c 2
 259 416 l 1
 241 416 l 2
 173 416 150 461 150 491 c 0
 150 549 211 607 282 607 c 0
 352 607 375 559 375 527 c 0
 375 522 375 517 374 511 c 2
 307 203 l 1
 472 487 l 2
 482 500 498 506 520 506 c 0
 543 506 556 500 559 487 c 2
 603 203 l 1
 727 784 l 2
 734 818 778 849 832 849 c 1
 665 57 l 2
 654 20 612 -9 559 -9 c 1
 496 395 l 1
 261 -9 l 1
271 559 m 256
 240 559 213 535 213 500 c 0
 213 485 221 463 252 463 c 256
 285 463 312 491 312 520 c 0
 312 543 295 559 271 559 c 256
EndSplineSet
EndChar
StartChar: uni0E20
Encoding: 3616 3616 243
Width: 687
VWidth: 1507
Flags: W
HStem: -9 48<124.877 207.6> 136 46<136.991 211.712> 550 57<369.564 533.752>
VStem: 60 62<42.3176 121.749> 589 94<388.719 405 405 417.523 417.523 417.539 417.531 494.334>
Fore
60 67 m 0
 60 131 121 182 191 182 c 0
 199 182 205 182 210 181 c 1
 232 288 l 1
 169 396 l 1
 169 473 293 607 469 607 c 0
 585 607 687 541 687 441 c 0
 687 430 686 418 683 405 c 2
 609 57 l 2
 599 21 556 -9 500 -9 c 1
 589 405 l 2
 591 414 592 422 592 430 c 0
 592 492 538 550 457 550 c 0
 369 550 286 485 265 413 c 1
 320 317 l 2
 324 309 326 303 326 299 c 2
 326 297 l 1
 282 87 l 2
 271 38 216 -9 151 -9 c 256
 84 -9 60 37 60 67 c 0
182 136 m 256
 144 136 122 104 122 74 c 0
 122 53 138 39 161 39 c 256
 195 39 222 66 222 100 c 0
 222 122 206 136 182 136 c 256
EndSplineSet
EndChar
StartChar: uni0E21
Encoding: 3617 3617 244
Width: 709
VWidth: 1507
Flags: W
HStem: -9 48<126.904 210.76> 142 46<139.42 216.114> 416 47<223.566 264.112> 559 48<231.645 312.976>
VStem: 60 63<43.5736 125.647> 156 63<474.926 546.176> 318 62<498.549 554.635>
Fore
60 69 m 0
 60 129 120 188 196 188 c 0
 205 188 212 188 217 187 c 1
 265 416 l 1
 247 416 l 2
 179 416 156 461 156 491 c 0
 156 549 217 607 288 607 c 0
 357 607 380 560 380 529 c 0
 380 523 379 517 378 511 c 2
 303 157 l 1
 416 110 l 2
 452 95 493 79 538 62 c 1
 641 540 l 2
 649 577 695 606 748 606 c 1
 632 57 l 2
 622 21 583 -9 535 -9 c 1
 288 87 l 1
 275 40 224 -9 154 -9 c 256
 83 -9 60 38 60 69 c 0
277 559 m 256
 246 559 219 535 219 500 c 0
 219 485 227 463 258 463 c 256
 291 463 318 491 318 520 c 0
 318 543 301 559 277 559 c 256
185 142 m 256
 151 142 123 111 123 78 c 0
 123 55 141 39 164 39 c 256
 196 39 227 67 227 102 c 0
 227 126 208 142 185 142 c 256
EndSplineSet
EndChar
StartChar: uni0E22
Encoding: 3618 3618 245
Width: 646
VWidth: 1507
Flags: W
HStem: -9 57<236.237 407.644> 292 64<263.084 402.066> 418 45<261.709 344.585> 559 48<273.312 353.952>
VStem: 94 93<93.4204 226.783> 152 92<373.419 427> 358 63<477.084 546.575>
Fore
94 149 m 0xfa
 94 191 113 266 208 318 c 1
 174 342 152 376 152 430 c 0
 152 522 246 607 329 607 c 0
 384 607 421 571 421 529 c 0
 421 472 359 418 288 418 c 0
 270 418 258 420 244 427 c 1xf6
 244 370 285 356 321 356 c 2
 368 356 l 2
 400 356 408 340 408 330 c 0
 408 315 390 292 354 292 c 0
 275 292 187 251 187 156 c 0
 187 91 242 48 317 48 c 0
 402 48 484 103 500 184 c 2
 577 540 l 2
 585 574 629 606 684 606 c 1
 594 184 l 2
 571 75 449 -9 304 -9 c 0
 176 -9 94 59 94 149 c 0xfa
318 559 m 256
 283 559 259 531 259 498 c 0
 259 477 275 463 298 463 c 256
 332 463 358 489 358 520 c 0
 358 536 350 559 318 559 c 256
EndSplineSet
EndChar
StartChar: uni0E23
Encoding: 3619 3619 246
Width: 610
VWidth: 1507
Flags: W
HStem: -9 48<365.667 448.595> 136 46<377.705 453.142> 550 57<332.573 468.494>
VStem: 299 64<42.5286 121.216>
Fore
299 68 m 0
 299 127 359 182 433 182 c 0
 441 182 447 182 451 181 c 1
 481 323 l 1
 359 353 300 372 178 402 c 0
 159 406 150 419 150 430 c 0
 150 458 229 607 413 607 c 0
 507 607 555 560 570 543 c 1
 618 607 l 1
 646 593 663 575 663 551 c 0
 663 541 659 532 653 523 c 2
 600 449 l 2
 585 429 570 419 555 419 c 0
 534 419 524 433 520 449 c 0
 508 506 462 550 401 550 c 0
 330 550 273 486 250 448 c 1
 526 377 l 2
 552 367 572 345 572 324 c 0
 572 320 571 316 570 312 c 2
 523 87 l 2
 512 38 456 -9 392 -9 c 0
 324 -9 299 37 299 68 c 0
424 136 m 256
 384 136 363 102 363 74 c 0
 363 53 379 39 402 39 c 256
 440 39 463 70 463 100 c 0
 463 115 455 136 424 136 c 256
EndSplineSet
EndChar
StartChar: uni0E24
Encoding: 3620 3620 247
Width: 660
VWidth: 1507
Flags: W
HStem: -9 48<197.012 279.408> 136 46<246.457 290.726> 550 57<343.295 506.752>
VStem: 131 63<42.9405 103.937> 294 62<53.0055 124.483> 562 94<388.629 405 405 417.523 417.523 417.539 417.531 494.334>
Fore
565 430 m 0
 565 492 511 550 430 550 c 0
 345 550 261 490 238 413 c 1
 270 314 l 2
 271 311 271 305 271 298 c 1
 246 181 l 1
 249 182 255 182 264 182 c 0
 317 182 356 150 356 105 c 0
 356 47 293 -9 223 -9 c 0
 157 -9 131 35 131 68 c 0
 131 74 131 80 133 87 c 2
 176 291 l 1
 146 390 l 1
 144 393 144 397 144 399 c 0
 144 462 255 607 442 607 c 0
 558 607 660 541 660 441 c 0
 660 430 659 418 656 405 c 2
 532 -175 l 2
 524 -213 476 -241 424 -241 c 1
 562 405 l 2
 564 414 565 422 565 430 c 0
255 136 m 256
 219 136 194 106 194 75 c 0
 194 53 210 39 234 39 c 256
 268 39 294 67 294 100 c 0
 294 115 286 136 255 136 c 256
EndSplineSet
EndChar
StartChar: uni0E25
Encoding: 3621 3621 248
Width: 657
VWidth: 1507
Flags: W
HStem: -9 48<166.667 249.031> 136 46<216.933 261.08> 335 57<305.579 462.08> 550 57<341.969 503.421>
VStem: 100 64<42.5286 104.26> 264 62<53.6688 124.282> 562 94<405.491 495.199>
Fore
193 -9 m 256
 125 -9 100 37 100 68 c 0
 100 74 100 80 102 87 c 2
 124 191 l 2
 149 314 275 392 395 392 c 0
 456 392 510 371 546 344 c 1
 559 405 l 2
 561 414 562 422 562 430 c 0
 562 490 511 550 428 550 c 256
 346 550 252 487 235 405 c 0
 230 387 233 392 229 374 c 1
 185 374 149 393 149 421 c 0
 149 475 265 607 440 607 c 0
 555 607 656 540 656 439 c 0
 656 428 655 417 653 405 c 2
 579 57 l 2
 568 20 524 -9 470 -9 c 1
 512 191 l 2
 514 201 516 210 516 219 c 0
 516 285 460 335 383 335 c 0
 317 335 244 292 217 191 c 1
 216 181 l 1
 219 182 225 182 234 182 c 0
 289 182 326 149 326 105 c 0
 326 50 268 -9 193 -9 c 256
225 136 m 256
 185 136 164 102 164 74 c 0
 164 53 180 39 203 39 c 256
 241 39 264 70 264 100 c 0
 264 115 256 136 225 136 c 256
EndSplineSet
EndChar
StartChar: uni0E26
Encoding: 3622 3622 249
Width: 687
VWidth: 1507
Flags: W
HStem: -9 48<124.877 207.6> 136 46<136.991 211.712> 550 57<369.564 533.752>
VStem: 60 62<42.3176 121.749> 589 94<388.629 405 405 417.523 417.523 417.539 417.531 494.334>
Fore
60 67 m 0
 60 131 121 182 191 182 c 0
 199 182 205 182 210 181 c 1
 232 288 l 1
 169 396 l 1
 169 473 293 607 469 607 c 0
 585 607 687 541 687 441 c 0
 687 430 686 418 683 405 c 2
 559 -175 l 2
 551 -213 503 -241 451 -241 c 1
 589 405 l 2
 591 414 592 422 592 430 c 0
 592 492 538 550 457 550 c 0
 369 550 286 485 265 413 c 1
 320 317 l 2
 324 309 326 303 326 299 c 2
 326 297 l 1
 282 87 l 2
 271 38 216 -9 151 -9 c 256
 84 -9 60 37 60 67 c 0
182 136 m 256
 144 136 122 104 122 74 c 0
 122 53 138 39 161 39 c 256
 195 39 222 66 222 100 c 0
 222 122 206 136 182 136 c 256
EndSplineSet
EndChar
StartChar: uni0E27
Encoding: 3623 3623 250
Width: 575
VWidth: 1507
Flags: W
HStem: -9 48<347.95 428.646> 136 46<359.167 432.743> 550 57<299.577 442.42>
VStem: 125 79<383.869 447.557> 280 64<50.8483 120.987> 482 93<388.667 405 405 419.668 419.668 422.023 420.845 509.579>
Fore
280 68 m 0
 280 132 343 182 413 182 c 0
 421 182 427 182 431 181 c 1
 479 405 l 2
 481 417 482 428 482 439 c 0
 482 501 443 550 374 550 c 0
 250 550 204 411 204 382 c 0
 204 379 204 377 205 374 c 1
 162 374 125 393 125 422 c 0
 125 471 219 607 386 607 c 0
 503 607 575 543 575 448 c 0
 575 434 574 420 571 405 c 2
 503 87 l 2
 492 38 437 -9 372 -9 c 0
 306 -9 280 36 280 68 c 0
404 136 m 256
 368 136 344 104 344 76 c 0
 344 61 352 39 383 39 c 256
 416 39 443 67 443 98 c 0
 443 113 435 136 404 136 c 256
EndSplineSet
EndChar
StartChar: uni0E28
Encoding: 3624 3624 251
Width: 690
VWidth: 1507
Flags: W
HStem: -9 21G<155.5 189.731 509.3 533> 261 46<374.348 454.604> 404 48<384.214 466.644> 550 57<375.645 538.785>
VStem: 470 63<322.394 386.609> 666 82<550.106 610.866>
Fore
430 404 m 256
 397 404 371 380 371 345 c 0
 371 322 387 307 410 307 c 256
 445 307 470 338 470 365 c 0
 470 381 462 404 430 404 c 256
178 -9 m 1
 133 -9 100 12 100 44 c 0
 100 48 101 52 102 57 c 2
 176 405 l 2
 197 515 334 607 473 607 c 0
 547 607 605 583 642 546 c 1
 663 575 666 606 666 606 c 1
 666 626 l 1
 711 626 748 606 748 578 c 0
 748 559 724 518 683 479 c 1
 688 460 689 440 689 431 c 0
 689 422 688 413 687 405 c 2
 613 57 l 2
 604 22 561 -9 505 -9 c 1
 594 405 l 1
 594 411 595 412 595 419 c 1
 564 404 l 1
 531 392 l 1
 532 384 533 372 533 367 c 0
 533 323 473 261 399 261 c 0
 375 261 357 265 344 274 c 1
 178 -9 l 1
585 484 m 1
 563 520 518 550 461 550 c 0
 368 550 283 476 268 405 c 2
 228 216 l 1
 327 393 l 2
 348 425 388 452 440 452 c 256
 464 452 483 447 497 436 c 1
 506 439 537 449 585 484 c 1
EndSplineSet
EndChar
StartChar: uni0E29
Encoding: 3625 3625 252
Width: 731
VWidth: 1507
Flags: W
HStem: -9 57<345.689 489.46> 185 58<454.174 526.377> 369 46<392.729 467.251> 416 47<217.566 258.112> 559 48<225.645 307.141>
VStem: 150 63<474.926 546.176> 208 94<90.7254 179.867 179.274 180.461 180.461 193 193 209.967> 312 63<494.049 554.846> 470 60<293.144 359.105>
Fore
530 342 m 0xfd80
 530 305 504 267 449 250 c 1
 459 245 467 243 473 243 c 0
 541 243 586 336 586 402 c 2
 586 413 l 1
 602 413 618 410 633 405 c 1
 662 546 l 2
 671 579 711 606 769 606 c 1
 681 193 l 2
 661 94 554 -9 402 -9 c 0
 289 -9 208 58 208 152 c 0xfb80
 208 165 210 179 213 193 c 2
 259 416 l 1
 241 416 l 2
 173 416 150 461 150 491 c 0
 150 549 211 607 282 607 c 0
 352 607 375 559 375 527 c 0
 375 522 375 517 374 511 c 2
 342 365 l 1
 363 391 400 415 445 415 c 0
 507 415 530 371 530 342 c 0xfd80
302 157 m 0
 302 94 346 48 415 48 c 0
 476 48 564 97 588 193 c 2
 597 238 l 1
 564 208 515 185 461 185 c 0
 392 185 336 223 323 276 c 1
 306 193 l 2
 303 180 302 168 302 157 c 0
271 559 m 256
 240 559 213 535 213 500 c 0xfd80
 213 485 221 463 252 463 c 256
 285 463 312 491 312 520 c 0
 312 543 295 559 271 559 c 256
436 369 m 256
 407 369 380 342 380 318 c 0
 380 296 395 282 416 282 c 256
 443 282 470 305 470 336 c 0
 470 348 463 369 436 369 c 256
EndSplineSet
EndChar
StartChar: uni0E2A
Encoding: 3626 3626 253
Width: 657
VWidth: 1507
Flags: W
HStem: -9 48<169.95 249.733> 136 46<217.465 261.848> 335 57<308.633 384> 550 57<343.741 507.307>
VStem: 102 64<50.8483 104.145> 150 81<388.588 443.646> 265 63<53.2024 123.799> 633 82<549.756 610.469>
Fore
226 136 m 256xfb
 190 136 166 104 166 76 c 0
 166 61 174 39 205 39 c 256
 238 39 265 67 265 98 c 0
 265 113 257 136 226 136 c 256xfb
194 -9 m 256
 128 -9 102 36 102 68 c 0xfb
 102 74 102 80 104 87 c 2
 125 191 l 2
 148 301 255 386 384 392 c 1
 440 413 507 451 553 484 c 1
 542 502 504 550 430 550 c 0
 353 550 244 494 231 374 c 1
 188 374 150 393 150 421 c 0xf7
 150 475 267 607 442 607 c 0
 497 607 565 592 609 546 c 1
 629 571 633 606 633 606 c 1
 633 626 l 1
 679 626 715 605 715 578 c 0
 715 558 693 518 650 481 c 1
 652 471 656 451 656 431 c 0
 656 422 655 413 654 405 c 2
 580 57 l 2
 571 22 528 -9 472 -9 c 1
 514 191 l 2
 516 200 517 209 517 217 c 0
 517 273 475 335 384 335 c 0
 318 335 246 292 219 191 c 2
 217 181 l 1
 220 182 226 182 235 182 c 0
 305 182 328 135 328 104 c 0
 328 49 268 -9 194 -9 c 256
484 377 m 1
 508 368 529 356 547 341 c 1
 561 405 l 1
 561 408 562 409 562 412 c 0
 562 413 562 415 561 418 c 1
 538 403 512 390 484 377 c 1
EndSplineSet
EndChar
StartChar: uni0E2B
Encoding: 3627 3627 254
Width: 732
VWidth: 1507
Flags: W
HStem: -9 21G<236.5 273.509 550.252 574> 416 47<217.566 258.112 607.188 627.678> 559 48<225.645 307.141 618.599 699.512>
VStem: 150 63<474.926 546.176> 312 63<494.049 554.846> 542 62<471.525 546.004> 627 93<355.537 379 379 380.023 379.512 412.743> 703 63<476.859 546.436>
Fore
258 -9 m 1xfe
 215 -9 182 12 182 43 c 0
 182 47 183 52 184 57 c 2
 259 416 l 1
 241 416 l 2
 173 416 150 461 150 491 c 0
 150 549 211 607 282 607 c 0
 352 607 375 559 375 527 c 0
 375 522 375 517 374 511 c 2
 298 158 l 1
 491 407 l 2
 509 429 526 445 552 460 c 1
 548 468 542 483 542 497 c 0
 542 540 594 607 674 607 c 0
 740 607 766 562 766 529 c 0xfd
 766 484 728 451 704 436 c 1
 716 419 722 402 722 386 c 0
 722 381 721 377 720 372 c 2
 654 57 l 2
 645 22 602 -9 546 -9 c 1
 627 372 l 2
 628 378 628 383 628 388 c 0
 628 412 621 418 610 418 c 0
 590 418 570 393 555 374 c 2
 258 -9 l 1xfe
271 559 m 256
 240 559 213 535 213 500 c 0
 213 485 221 463 252 463 c 256
 285 463 312 491 312 520 c 0
 312 543 295 559 271 559 c 256
663 559 m 256
 628 559 604 531 604 499 c 0
 604 477 620 463 644 463 c 256
 674 463 703 487 703 520 c 0
 703 536 695 559 663 559 c 256
EndSplineSet
EndChar
StartChar: uni0E2C
Encoding: 3628 3628 255
AltUni2: 00f71d.ffffffff.0
Width: 747
VWidth: 1507
Flags: W
HStem: -9 21G<239 274.778 556.667 589.5> 416 47<217.009 258.112 606.764 651> 559 48<226.877 307.141 618.599 699.533>
VStem: 150 63<474.543 546.106> 312 63<494.049 554.846> 542 62<466.902 545.519> 775 80<552.747 591.057>
Fore
282 607 m 0
 352 607 375 559 375 527 c 0
 375 522 375 517 374 511 c 2
 300 164 l 1
 452 386 l 2
 461 399 484 404 497 404 c 256
 514 404 532 397 537 386 c 1
 597 161 l 1
 651 416 l 1
 633 416 l 2
 579 416 542 450 542 492 c 0
 542 541 594 607 674 607 c 0
 723 607 753 582 763 552 c 1
 771 568 772 580 775 606 c 1
 820 606 855 584 855 559 c 0
 855 534 813 471 749 437 c 1
 669 57 l 2
 660 22 617 -9 562 -9 c 1
 478 306 l 1
 261 -9 l 1
 217 -9 182 12 182 43 c 0
 182 48 183 52 184 57 c 2
 259 416 l 1
 241 416 l 2
 187 416 150 450 150 492 c 0
 150 548 210 607 282 607 c 0
271 559 m 256
 240 559 213 535 213 500 c 0
 213 485 221 463 252 463 c 256
 285 463 312 491 312 520 c 0
 312 543 295 559 271 559 c 256
663 559 m 256
 628 559 604 531 604 499 c 0
 604 477 620 463 644 463 c 256
 674 463 703 487 703 520 c 0
 703 536 695 559 663 559 c 256
EndSplineSet
Substitution2: "Single Substitution lookup 22 subtable" uni0E2C.alt1
Substitution2: "Single Substitution lookup 22 subtable" uni0E2C.alt1
EndChar
StartChar: uni0E2D
Encoding: 3629 3629 256
Width: 661
VWidth: 1507
Flags: W
HStem: -9 57<265.841 419.513> 211 44<267.548 350.377> 351 48<281.166 361.812> 550 57<347.551 509.962>
VStem: 124 94<94.4641 190.662> 365 62<269.715 347.682> 567 93<405.445 494.721>
Fore
427 322 m 0
 427 258 363 211 295 211 c 0
 266 211 244 219 229 234 c 1
 228 222 l 1
 222 193 l 2
 219 182 218 171 218 160 c 0
 218 102 264 48 338 48 c 0
 413 48 499 104 519 193 c 2
 564 405 l 2
 566 414 567 422 567 430 c 0
 567 493 512 550 431 550 c 256
 349 550 255 487 238 405 c 0
 233 387 236 392 232 374 c 1
 188 374 152 393 152 421 c 0
 152 466 263 607 443 607 c 0
 602 607 660 503 660 434 c 0
 660 425 659 415 657 405 c 2
 612 193 l 2
 586 65 437 -9 326 -9 c 0
 216 -9 124 56 124 153 c 0
 124 166 125 179 128 193 c 2
 134 222 l 2
 149 286 240 399 336 399 c 0
 401 399 427 354 427 322 c 0
326 351 m 256
 288 351 265 320 265 290 c 0
 265 269 281 255 304 255 c 256
 342 255 365 286 365 316 c 0
 365 337 349 351 326 351 c 256
EndSplineSet
EndChar
StartChar: uni0E2E
Encoding: 3630 3630 257
Width: 675
VWidth: 1507
Flags: W
HStem: -9 56<270.059 431.985> 166 45<258.548 340.799> 307 47<271.163 352.339> 383 54<280.317 368.667> 552 57<332.375 515.334>
VStem: 123 94<96.3906 186.479> 172 93<441.952 505.551> 356 62<225.19 303.801> 579 95<388.511 412.569 412.569 419.523 419.523 441.897> 650 80<563.233 607.316>
Fore
317 307 m 256xf9
 279 307 256 276 256 246 c 0
 256 225 272 211 295 211 c 256
 333 211 356 242 356 272 c 0
 356 293 340 307 317 307 c 256xf9
616 549 m 1
 630 561 650 592 650 624 c 1
 702 624 730 594 730 573 c 0xfb40
 730 555 703 516 662 485 c 1
 670 470 674 453 674 434 c 0
 674 425 673 415 671 405 c 2
 626 193 l 2
 595 64 451 -9 333 -9 c 0
 191 -9 123 79 123 156 c 0
 123 262 231 354 326 354 c 0
 391 354 418 309 418 276 c 0
 418 219 358 166 286 166 c 0
 257 166 235 173 220 188 c 1
 218 179 217 170 217 161 c 0xfd80
 217 93 274 47 345 47 c 0
 447 47 516 124 532 193 c 2
 577 405 l 2
 578 412 579 416 579 420 c 2
 579 442 l 1
 556 432 532 424 508 417 c 2
 442 399 l 2
 416 393 361 383 307 383 c 0
 207 383 172 413 172 458 c 0xfb80
 172 532 309 609 448 609 c 0
 498 609 568 594 616 549 c 1
265 469 m 0
 265 442 297 437 323 437 c 0
 369 437 475 450 555 496 c 1
 526 533 481 552 436 552 c 0
 374 552 265 519 265 469 c 0
EndSplineSet
EndChar
StartChar: uni0E2F
Encoding: 3631 3631 258
Width: 604
VWidth: 1507
Flags: MW
HStem: -9 21G<423.213 445> 360 58<311.983 438.891> 559 48<226.517 307.924>
VStem: 150 63<475.306 545.901> 312 59<476.842 555.057> 419 107<30.0555 413.064>
Fore
550 607 m 1
 595 607 630 584 630 552 c 0
 630 548 630 545 629 541 c 2
 526 57 l 2
 517 20 471 -9 419 -9 c 1
 506 404 l 1
 463 380 408 360 347 360 c 0
 268 360 150 406 150 490 c 0
 150 554 215 607 282 607 c 0
 349 607 371 561 371 530 c 0
 371 491 342 451 295 433 c 1
 316 423 337 418 359 418 c 0
 444 418 525 487 550 607 c 1
271 559 m 256
 240 559 213 535 213 500 c 0
 213 485 221 463 252 463 c 256
 285 463 312 491 312 520 c 0
 312 543 295 559 271 559 c 256
EndSplineSet
EndChar
StartChar: uni0E30
Encoding: 3632 3632 259
Width: 536
VWidth: 1507
Flags: W
HStem: 24 57<243.468 329.553> 213 48<167.431 248.72> 338 57<308.396 416.681> 526 48<235.597 316.713>
VStem: 89 65<128.078 198.828> 156 64<433.25 511.943> 253 60<130.2 200.235> 320 59<444.398 522.406> 439 81<181.651 240.711> 505 81<495.406 554.75>
Fore
379 495 m 0xff40
 379 437 318 405 306 399 c 1
 313 397 322 395 345 395 c 0
 416 395 492 454 505 574 c 1
 556 574 586 541 586 519 c 0
 586 472 494 338 333 338 c 0
 247 338 156 384 156 456 c 0
 156 520 221 574 289 574 c 0
 360 574 379 522 379 495 c 0xff40
313 181 m 0
 313 132 263 97 240 86 c 1
 255 81 275 81 279 81 c 0
 330 81 421 118 439 261 c 1
 486 261 520 228 520 206 c 0xff80
 520 183 481 79 348 37 c 0
 321 28 294 24 267 24 c 0
 174 24 89 75 89 141 c 0
 89 207 155 261 223 261 c 0
 280 261 313 223 313 181 c 0
280 526 m 256
 244 526 220 496 220 465 c 0
 220 444 236 430 259 430 c 256
 294 430 320 459 320 490 c 0
 320 512 304 526 280 526 c 256
213 213 m 256
 180 213 154 187 154 153 c 0
 154 138 162 116 193 116 c 256
 226 116 253 144 253 173 c 0
 253 189 245 213 213 213 c 256
EndSplineSet
EndChar
StartChar: uni0E31
Encoding: 3633 3633 260
Width: 0
VWidth: 1507
Flags: W
HStem: 686 57<-53.1299 68.2599> 886 47<-139.687 -57.8027>
VStem: -217 63<794.113 871.001> -54 59<804.341 873.042>
Fore
262 883 m 0
 262 832 163 686 -20 686 c 0
 -104 686 -217 734 -217 813 c 0
 -217 885 -146 933 -84 933 c 0
 -17 933 5 887 5 857 c 0
 5 806 -39 771 -72 758 c 1
 -49 748 -28 743 -8 743 c 0
 59 743 150 790 182 933 c 1
 235 933 262 904 262 883 c 0
-95 886 m 256
 -131 886 -154 855 -154 825 c 0
 -154 804 -138 790 -115 790 c 256
 -78 790 -54 820 -54 850 c 0
 -54 864 -64 886 -95 886 c 256
EndSplineSet
Substitution2: "Single Substitution lookup 22 subtable" uni0E31.alt1
Substitution2: "Single Substitution lookup 22 subtable" uni0E31.alt1
EndChar
StartChar: uni0E32
Encoding: 3634 3634 261
Width: 575
VWidth: 1507
Flags: W
HStem: -9 21G<394.3 416> 550 57<299.577 442.42>
VStem: 125 79<383.869 447.557> 482 93<388.719 405 405 419.668 419.668 422.023 420.845 509.579>
Fore
386 607 m 0
 503 607 575 543 575 448 c 0
 575 434 574 420 571 405 c 2
 497 57 l 2
 488 20 442 -9 390 -9 c 1
 479 405 l 2
 481 417 482 428 482 439 c 0
 482 501 443 550 374 550 c 0
 250 550 204 411 204 382 c 0
 204 379 204 377 205 374 c 1
 162 374 125 393 125 422 c 0
 125 471 219 607 386 607 c 0
EndSplineSet
EndChar
StartChar: uni0E34
Encoding: 3636 3636 263
Width: 0
VWidth: 1507
Flags: MW
HStem: 701 48<-317.169 -58.7407> 831 45<-242.648 -86.2414>
VStem: -23 86<719 771.375>
Fore
-428 716 m 0
 -428 772 -301 876 -145 876 c 256
 -13 876 63 787 63 717 c 0
 63 670 30 663 14 663 c 0
 -7 663 -98 701 -273 701 c 0
 -346 701 -382 694 -394 694 c 0
 -412 694 -428 703 -428 716 c 0
-330 743 m 1
 -299 747 -262 749 -228 749 c 0
 -153 749 -85 739 -23 719 c 1
 -32 781 -92 831 -154 831 c 0
 -207 831 -288 799 -330 743 c 1
EndSplineSet
Substitution2: "Single Substitution lookup 22 subtable" uni0E34.alt1
Substitution2: "Single Substitution lookup 22 subtable" uni0E34.alt1
EndChar
StartChar: uni0E35
Encoding: 3637 3637 264
Width: 0
VWidth: 1507
Flags: MW
HStem: 701 48<-317.169 -58.7407> 831 45<-242.648 -84.4073>
Fore
-428 716 m 0
 -428 772 -301 876 -145 876 c 0
 -86 876 -39 862 -3 834 c 1
 5 876 l 2
 9 891 29 933 107 933 c 1
 63 725 l 1
 63 708 l 2
 63 676 33 663 14 663 c 0
 -7 663 -98 701 -273 701 c 0
 -346 701 -382 694 -394 694 c 0
 -412 694 -428 703 -428 716 c 0
-330 743 m 1
 -299 747 -262 749 -228 749 c 0
 -153 749 -85 739 -23 719 c 1
 -32 781 -92 831 -154 831 c 0
 -207 831 -288 799 -330 743 c 1
EndSplineSet
Substitution2: "Single Substitution lookup 22 subtable" uni0E35.alt1
Substitution2: "Single Substitution lookup 22 subtable" uni0E35.alt1
EndChar
StartChar: uni0E36
Encoding: 3638 3638 265
Width: 0
VWidth: 1507
Flags: MW
HStem: 701 48<-316.818 -58.7407> 831 45<-242.701 -98.1264> 891 42<-5.07432 62.6671>
VStem: 64 59<821.723 882.641>
Fore
-428 716 m 0
 -428 772 -301 876 -145 876 c 0
 -115 876 -91 872 -68 864 c 1
 -50 904 -5 933 42 933 c 0
 87 933 123 906 123 865 c 0
 123 811 71 784 48 775 c 1
 58 757 63 738 63 718 c 0
 63 691 59 681 39 670 c 0
 31 666 23 663 14 663 c 0
 -7 663 -98 701 -273 701 c 0
 -346 701 -382 694 -394 694 c 0
 -412 694 -428 703 -428 716 c 0
-330 743 m 1
 -297 747 -263 749 -228 749 c 0
 -153 749 -85 739 -23 719 c 1
 -32 781 -92 831 -154 831 c 0
 -214 831 -289 796 -330 743 c 1
33 891 m 256
 9 891 -13 870 -13 843 c 0
 -13 830 -7 814 17 814 c 256
 41 814 64 833 64 860 c 0
 64 873 58 891 33 891 c 256
EndSplineSet
Substitution2: "Single Substitution lookup 22 subtable" uni0E36.alt1
Substitution2: "Single Substitution lookup 22 subtable" uni0E36.alt1
EndChar
StartChar: uni0E37
Encoding: 3639 3639 266
Width: 0
VWidth: 1507
Flags: MW
HStem: 701 48<-317.169 -58.7407> 831 45<-242.253 -117.631>
Fore
-428 716 m 0
 -428 770 -308 876 -151 876 c 0
 -139 876 -124 874 -121 873 c 1
 -120 878 -115 933 -27 933 c 1
 -45 844 l 1
 -30 835 -18 824 -8 811 c 1
 5 876 l 2
 9 891 29 933 107 933 c 1
 63 725 l 1
 63 708 l 2
 63 676 33 663 14 663 c 0
 -7 663 -98 701 -273 701 c 0
 -346 701 -382 694 -394 694 c 0
 -412 694 -428 703 -428 716 c 0
-330 743 m 1
 -299 747 -262 749 -228 749 c 0
 -153 749 -85 739 -23 719 c 1
 -32 781 -92 831 -154 831 c 0
 -207 831 -288 799 -330 743 c 1
EndSplineSet
Substitution2: "Single Substitution lookup 22 subtable" uni0E37.alt1
Substitution2: "Single Substitution lookup 22 subtable" uni0E37.alt1
EndChar
StartChar: uni0E38
Encoding: 3640 3640 267
Width: 0
VWidth: 1507
Flags: W
HStem: -231 46<-264.964 -225.322> -98 44<-256.162 -181.614>
VStem: -328 60<-174.758 -110.172> -178 61<-156.992 -101.317>
Fore
-117 -127 m 0
 -117 -132 -118 -137 -119 -142 c 2
 -146 -265 l 2
 -154 -300 -201 -327 -250 -327 c 1
 -229 -232 l 1
 -225 -229 l 1
 -229 -230 -235 -231 -243 -231 c 0
 -303 -231 -328 -189 -328 -158 c 0
 -328 -105 -268 -54 -205 -54 c 0
 -140 -54 -117 -98 -117 -127 c 0
-214 -98 m 256
 -240 -98 -268 -121 -268 -152 c 0
 -268 -164 -261 -185 -234 -185 c 256
 -203 -185 -178 -156 -178 -134 c 0
 -178 -114 -193 -98 -214 -98 c 256
EndSplineSet
Substitution2: "Single Substitution lookup 21 subtable" a
Substitution2: "Single Substitution lookup 22 subtable" uni0E38.alt1
Substitution2: "Single Substitution lookup 21 subtable" a
Substitution2: "Single Substitution lookup 22 subtable" uni0E38.alt1
EndChar
StartChar: uni0E39
Encoding: 3641 3641 268
Width: 0
VWidth: 1507
Flags: MW
HStem: -327 53<-271.94 -236.227> -231 46<-393.539 -353.322> -98 44<-383.898 -308.71>
VStem: -456 60<-175.105 -110.615> -306 59<-156.969 -101.453>
Fore
-247 -125 m 0
 -247 -131 -248 -136 -249 -142 c 2
 -270 -238 l 2
 -271 -243 -272 -248 -272 -252 c 0
 -272 -262 -269 -274 -258 -274 c 256
 -243 -274 -234 -253 -231 -238 c 2
 -205 -118 l 2
 -197 -85 -155 -56 -101 -56 c 1
 -140 -238 l 2
 -150 -285 -204 -327 -270 -327 c 0
 -310 -327 -361 -306 -361 -259 c 0
 -361 -255 -361 -250 -360 -246 c 2
 -357 -232 l 1
 -353 -229 l 1
 -357 -230 -363 -231 -371 -231 c 0
 -435 -231 -456 -187 -456 -158 c 0
 -456 -107 -401 -54 -333 -54 c 0
 -270 -54 -247 -97 -247 -125 c 0
-342 -98 m 256
 -368 -98 -396 -121 -396 -152 c 0
 -396 -164 -389 -185 -362 -185 c 256
 -331 -185 -306 -156 -306 -134 c 0
 -306 -114 -321 -98 -342 -98 c 256
EndSplineSet
Substitution2: "Single Substitution lookup 21 subtable" b
Substitution2: "Single Substitution lookup 22 subtable" uni0E39.alt1
Substitution2: "Single Substitution lookup 21 subtable" b
Substitution2: "Single Substitution lookup 22 subtable" uni0E39.alt1
EndChar
StartChar: uni0E3A
Encoding: 3642 3642 269
Width: 0
VWidth: 1507
Flags: W
HStem: -157 107<-208.181 -110.922>
VStem: -229 140<-135.341 -71.1117>
Fore
-229 -111 m 0
 -229 -83 -197 -50 -148 -50 c 256
 -103 -50 -89 -76 -89 -94 c 0
 -89 -119 -117 -157 -170 -157 c 256
 -215 -157 -229 -129 -229 -111 c 0
EndSplineSet
Substitution2: "Single Substitution lookup 21 subtable" c
Substitution2: "Single Substitution lookup 22 subtable" uni0E3A.alt1
Substitution2: "Single Substitution lookup 21 subtable" c
Substitution2: "Single Substitution lookup 22 subtable" uni0E3A.alt1
EndChar
StartChar: uni0E3F
Encoding: 3647 3647 270
Width: 731
VWidth: 1507
Flags: W
HStem: 0 60<196 294 392 562.227> 329 60<265 363 461 509 556 566.434> 657 59<323 433 531 611.715>
VStem: 635 95<147.527 304.974> 642 97<474.366 627.548>
Fore
739 559 m 0xe8
 739 471 673 405 620 377 c 1
 704 351 730 289 730 237 c 0xf0
 730 145 648 -0 487 0 c 2
 380 0 l 1
 372 -30 l 2
 364 -66 332 -84 276 -84 c 1
 294 0 l 1
 136 0 l 2
 112 0 94 11 94 28 c 0
 94 29 95 31 95 33 c 1
 234 683 l 2
 239 708 265 716 286 716 c 2
 445 716 l 1
 452 746 l 2
 460 782 492 800 549 800 c 1
 531 716 l 1
 579 716 l 2
 669 716 739 653 739 559 c 0xe8
635 241 m 0
 635 295 604 329 556 329 c 2
 449 329 l 1
 392 60 l 1
 499 60 l 2
 591 60 635 170 635 241 c 0
642 555 m 0xe8
 642 610 612 657 567 657 c 2
 519 657 l 1
 461 389 l 1
 509 389 l 2
 569 389 642 470 642 555 c 0xe8
196 60 m 1
 306 60 l 1
 363 329 l 1
 253 329 l 1
 196 60 l 1
265 389 m 1
 375 389 l 1
 433 657 l 1
 323 657 l 1
 265 389 l 1
EndSplineSet
EndChar
StartChar: uni0E40
Encoding: 3648 3648 271
Width: 352
VWidth: 1507
Flags: W
HStem: -9 48<169.667 252.409> 136 46<219.933 263.726> 587 20G<281.5 304.775>
VStem: 103 64<42.6867 104.26> 267 62<53.0041 124.483>
Fore
196 -9 m 0
 128 -9 103 36 103 66 c 0
 103 73 104 80 106 87 c 2
 202 541 l 2
 210 575 254 607 309 607 c 1
 219 181 l 1
 222 182 228 182 237 182 c 0
 290 182 329 150 329 105 c 0
 329 47 266 -9 196 -9 c 0
228 136 m 256
 188 136 167 102 167 74 c 0
 167 53 183 39 206 39 c 256
 244 39 267 70 267 100 c 0
 267 115 259 136 228 136 c 256
EndSplineSet
EndChar
StartChar: uni0E42
Encoding: 3650 3650 273
Width: 456
VWidth: 1507
Flags: MW
HStem: -9 48<273.971 353.733> 136 46<321.465 365.848> 935 57<313.681 442.734>
VStem: 207 63<51.2173 104.144> 369 63<53.2024 123.799>
Fore
159 819 m 0
 159 873 252 992 393 992 c 0
 440 992 492 979 525 942 c 1
 561 992 l 1
 587 977 602 958 602 934 c 0
 602 925 599 916 594 907 c 2
 559 853 l 2
 545 834 529 824 514 824 c 0
 499 824 481 832 476 853 c 0
 467 893 441 935 381 935 c 0
 306 935 268 868 256 840 c 1
 311 827 338 816 393 805 c 0
 427 797 441 773 441 752 c 0
 441 747 440 742 439 737 c 2
 321 181 l 1
 324 182 330 182 339 182 c 0
 409 182 432 135 432 104 c 0
 432 49 372 -9 298 -9 c 256
 232 -9 207 36 207 66 c 0
 207 73 208 80 210 87 c 2
 351 755 l 1
 193 796 159 790 159 819 c 0
330 136 m 256
 294 136 270 104 270 76 c 0
 270 61 278 39 309 39 c 256
 342 39 369 67 369 98 c 0
 369 113 361 136 330 136 c 256
EndSplineSet
EndChar
StartChar: uni0E43
Encoding: 3651 3651 274
Width: 456
VWidth: 1507
Flags: W
HStem: -9 48<273.971 353.733> 136 46<321.465 365.848> 693 49<277.546 359.721> 838 41<316.056 370.917> 935 57<352.727 464.226>
VStem: 207 63<51.2173 104.144 754.061 818.385> 369 63<53.2024 123.799 753.854 835.612> 487 91<780.107 911.833>
Fore
427 992 m 0
 509 992 578 938 578 856 c 0
 578 727 430 701 390 509 c 2
 321 181 l 1
 324 182 330 182 339 182 c 0
 409 182 432 135 432 104 c 0
 432 49 372 -9 298 -9 c 256
 232 -9 207 36 207 66 c 0
 207 73 208 80 210 87 c 2
 298 509 l 2
 343 693 487 734 487 848 c 0
 487 876 472 935 415 935 c 0
 371 935 334 904 315 876 c 1
 331 878 331 879 342 879 c 0
 395 879 436 850 436 807 c 0
 436 753 375 693 303 693 c 0
 222 693 202 756 202 792 c 0
 202 880 298 992 427 992 c 0
330 136 m 256
 294 136 270 104 270 76 c 0
 270 61 278 39 309 39 c 256
 342 39 369 67 369 98 c 0
 369 113 361 136 330 136 c 256
335 838 m 256
 300 838 274 809 274 777 c 0
 274 763 282 742 314 742 c 256
 350 742 374 772 374 803 c 0
 374 824 358 838 335 838 c 256
EndSplineSet
EndChar
StartChar: uni0E44
Encoding: 3652 3652 275
Width: 455
VWidth: 1507
Flags: W
HStem: -9 48<273.971 353.733> 136 46<321.465 365.848>
VStem: 207 63<51.2173 104.144> 369 63<53.2024 123.799>
Fore
298 -9 m 256
 232 -9 207 36 207 66 c 0
 207 73 208 80 210 87 c 2
 298 509 l 2
 310 560 339 649 393 724 c 2
 414 754 l 2
 432 779 475 840 475 897 c 1
 362 760 l 2
 353 750 339 745 320 745 c 0
 304 745 287 749 283 760 c 2
 217 913 l 2
 216 916 216 918 216 921 c 0
 216 938 230 979 274 1004 c 1
 342 837 l 1
 403 906 l 2
 453 964 464 993 500 993 c 0
 510 993 517 990 523 983 c 0
 544 956 555 927 555 895 c 0
 555 874 554 850 516 788 c 2
 460 698 l 2
 438 666 418 636 390 509 c 2
 321 181 l 1
 324 182 330 182 339 182 c 0
 409 182 432 135 432 104 c 0
 432 49 372 -9 298 -9 c 256
330 136 m 256
 294 136 270 104 270 76 c 0
 270 61 278 39 309 39 c 256
 342 39 369 67 369 98 c 0
 369 113 361 136 330 136 c 256
EndSplineSet
EndChar
StartChar: uni0E45
Encoding: 3653 3653 276
Width: 575
VWidth: 1507
Flags: W
HStem: 550 57<299.577 442.42>
VStem: 125 79<383.869 447.557> 482 93<388.616 405 405 419.668 419.668 422.023 420.845 509.579>
Fore
386 607 m 0
 503 607 575 543 575 448 c 0
 575 434 574 420 571 405 c 2
 448 -175 l 2
 440 -212 391 -241 341 -241 c 1
 479 405 l 2
 481 417 482 428 482 439 c 0
 482 501 443 550 374 550 c 0
 250 550 204 411 204 382 c 0
 204 379 204 377 205 374 c 1
 162 374 125 393 125 422 c 0
 125 471 219 607 386 607 c 0
EndSplineSet
EndChar
StartChar: uni0E46
Encoding: 3654 3654 277
Width: 593
VWidth: 1507
Flags: MW
HStem: 276 47<200.003 282.337> 419 44<247.799 294.118> 587 20G<298 358.5 465 500.5>
VStem: 135 62<326.902 387.641> 297 62<336.887 415.308> 503 92<417.594 434 434 447.9 447.9 447.951 447.925 522.818>
Fore
338 607 m 0
 379 607 368 584 398 558 c 1
 398 558 449 607 481 607 c 0
 520 607 553 584 571 559 c 0
 581 544 599 505 599 469 c 0
 599 458 597 446 595 434 c 2
 466 -175 l 2
 458 -211 409 -241 359 -241 c 1
 503 434 l 2
 507 450 509 465 509 478 c 0
 509 483 508 513 497 528 c 2
 482 546 l 1
 466 530 414 481 382 481 c 0
 362 481 358 483 311 546 c 1
 301 540 305 540 289 528 c 1
 268 504 254 475 247 461 c 1
 251 462 258 463 267 463 c 0
 337 463 359 419 359 389 c 0
 359 336 303 276 226 276 c 0
 174 276 135 310 135 352 c 0
 135 358 136 364 137 371 c 2
 151 434 l 2
 170 529 258 607 338 607 c 0
258 419 m 256
 223 419 197 390 197 359 c 0
 197 337 213 323 237 323 c 256
 273 323 297 353 297 384 c 0
 297 405 281 419 258 419 c 256
EndSplineSet
EndChar
StartChar: uni0E47
Encoding: 3655 3655 278
Width: 0
VWidth: 1507
Flags: W
HStem: 687 43<-125.062 -72> 834 43<-44.5207 22.384> 916 49<-191.193 55.5922>
VStem: -322 77<759.648 862.18> -107 55<762.68 826.361> 24 56<766.289 832.637>
Fore
-322 797 m 0
 -322 898 -213 965 -110 965 c 2
 -8 965 l 2
 35 965 76 992 113 1045 c 1
 130 1030 138 1014 138 997 c 0
 138 949 74 916 -18 916 c 2
 -121 916 l 2
 -170 916 -245 882 -245 789 c 0
 -245 774 -241 762 -231 751 c 1
 -219 788 -179 812 -154 812 c 0
 -146 812 -133 809 -133 796 c 0
 -133 793 -134 790 -134 781 c 0
 -134 748 -115 730 -79 730 c 2
 -72 730 l 1
 -102 744 -107 773 -107 787 c 0
 -107 823 -67 877 2 877 c 256
 46 877 80 852 80 814 c 0
 80 749 5 687 -68 687 c 0
 -158 687 -173 736 -178 754 c 1
 -180 748 -181 742 -181 736 c 0
 -181 720 -174 713 -174 707 c 0
 -174 703 -179 687 -210 687 c 0
 -277 687 -322 741 -322 797 c 0
24 804 m 0
 24 821 12 834 -6 834 c 0
 -32 834 -52 812 -52 788 c 0
 -52 770 -40 758 -23 758 c 256
 3 758 24 781 24 804 c 0
EndSplineSet
Substitution2: "Single Substitution lookup 22 subtable" uni0E47.alt1
Substitution2: "Single Substitution lookup 22 subtable" uni0E47.alt1
EndChar
StartChar: uni0E4D
Encoding: 3661 3661 284
Width: 0
VWidth: 1507
Flags: W
HStem: 686 38<-21.8314 62.7565> 841 38<-5.96911 79.1333>
VStem: -83 55<729.687 818.378> 85 57<745.395 824.874>
Fore
-83 763 m 0
 -83 832 -12 879 48 879 c 0
 101 879 142 846 142 800 c 0
 142 741 78 686 8 686 c 0
 -54 686 -83 728 -83 763 c 0
41 841 m 256
 -1 841 -28 799 -28 768 c 0
 -28 741 -8 724 17 724 c 0
 58 724 85 765 85 796 c 0
 85 812 77 841 41 841 c 256
EndSplineSet
Substitution2: "Single Substitution lookup 22 subtable" uni0E4D.alt1
Substitution2: "Single Substitution lookup 22 subtable" uni0E4D.alt1
EndChar
StartChar: uni0E4E
Encoding: 3662 3662 285
Width: 0
VWidth: 1507
Flags: W
HStem: 677 42<-88.2942 4.4353> 844 30<8.98468 38.8753> 965 42<33.0727 111.195>
VStem: -164 73<721.202 798.89> -71 73<875.475 935.456> 113 59<930.923 963.152>
Fore
-71 891 m 0
 -71 946 9 1007 90 1007 c 0
 135 1007 172 987 172 956 c 0
 172 936 144 923 122 923 c 0
 119 923 116 924 113 924 c 1
 113 927 114 929 114 932 c 0
 114 950 99 965 83 965 c 0
 43 965 2 922 2 895 c 0
 2 881 9 874 21 874 c 0
 29 874 46 871 46 863 c 0
 46 855 34 844 17 844 c 0
 -31 840 -91 796 -91 751 c 0
 -91 732 -73 719 -59 719 c 0
 -15 719 25 753 47 776 c 1
 59 767 66 749 66 737 c 0
 66 717 20 677 -68 677 c 0
 -121 677 -164 704 -164 744 c 0
 -164 799 -98 844 -56 862 c 1
 -60 862 l 1
 -67 872 -71 881 -71 891 c 0
EndSplineSet
Substitution2: "Single Substitution lookup 22 subtable" uni0E4E.alt1
Substitution2: "Single Substitution lookup 22 subtable" uni0E4E.alt1
EndChar
StartChar: uni0E4F
Encoding: 3663 3663 286
Width: 718
VWidth: 1507
Flags: W
HStem: -9 53<282.261 461.948> 93 58<334.212 456.015> 344 54<366.224 486.559> 449 53<359.134 539.405>
VStem: 135 68<123.69 293.881> 241 71<172.953 287.716> 509 70<203.725 322.21> 617 69<198.688 372.936>
Fore
579 279 m 0
 579 188 488 93 378 93 c 256
 288 93 241 158 241 218 c 0
 241 315 344 398 443 398 c 0
 544 398 579 330 579 279 c 0
464 502 m 256
 626 502 686 381 686 295 c 0
 686 252 674 156 562 66 c 0
 502 16 433 -9 356 -9 c 0
 211 -9 135 90 135 195 c 0
 135 344 283 502 464 502 c 256
617 293 m 0
 617 371 563 449 454 449 c 0
 323 449 203 331 203 203 c 0
 203 123 262 44 368 44 c 0
 498 44 617 163 617 293 c 0
390 151 m 256
 455 151 509 206 509 269 c 0
 509 309 481 344 431 344 c 256
 366 344 312 283 312 226 c 0
 312 184 342 151 390 151 c 256
EndSplineSet
EndChar
StartChar: uni0E50
Encoding: 3664 3664 287
Width: 725
VWidth: 1507
Flags: W
HStem: -9 57<289.119 458.186> 402 58<355.555 524.276>
VStem: 131 93<111.112 273.982> 591 95<179.051 337.841>
Fore
131 181 m 0
 131 328 289 460 457 460 c 0
 591 460 686 371 686 269 c 0
 686 126 527 -9 357 -9 c 0
 228 -9 131 73 131 181 c 0
445 402 m 0
 334 402 224 302 224 187 c 0
 224 104 287 48 369 48 c 0
 487 48 591 151 591 259 c 0
 591 336 538 402 445 402 c 0
EndSplineSet
EndChar
StartChar: uni0E51
Encoding: 3665 3665 288
Width: 725
VWidth: 1507
Flags: W
HStem: 41 65<240.267 375.378> 202 48<309.543 391.451> 402 58<357.605 520.964>
VStem: 129 92<140.518 262.747> 232 63<131.396 187.373> 395 65<120.709 198.471> 585 94<165.887 332.214>
Fore
129 174 m 0
 129 295 252 460 460 460 c 0
 585 460 679 374 679 244 c 0
 679 62 513 -35 457 -60 c 0
 446 -65 435 -67 425 -67 c 0
 410 -67 372 -59 371 -20 c 1
 389 -16 487 -2 556 120 c 0
 579 161 585 204 585 240 c 0
 585 325 540 402 448 402 c 0
 311 402 221 273 221 176 c 0
 221 159 225 144 232 131 c 1
 232 135 l 2
 232 193 296 250 366 250 c 0
 437 250 460 204 460 173 c 0
 460 100 375 41 277 41 c 0
 183 41 129 100 129 174 c 0
356 202 m 256
 321 202 295 173 295 142 c 0
 295 120 311 106 335 106 c 256
 371 106 395 136 395 167 c 0
 395 188 379 202 356 202 c 256
EndSplineSet
EndChar
StartChar: uni0E52
Encoding: 3666 3666 289
Width: 725
VWidth: 1507
Flags: W
HStem: -9 57<278.92 470.737> 130 49<323.695 404.244> 276 47<370.42 378.885 374.652 414.184>
VStem: 123 94<101.627 174.498 173.977 175.02 175.02 187 187 203.732> 175 94<406.331 519.302> 256 64<191.543 245.763> 419 65<193.249 271.635> 611 92<308.654 386.063>
Fore
378 276 m 256xe7
 345 276 320 251 320 217 c 0
 320 202 328 179 359 179 c 256
 394 179 419 209 419 237 c 0
 419 260 402 276 378 276 c 256xe7
217 161 m 0xf3
 217 80 309 48 371 48 c 0
 444 48 561 91 582 187 c 2
 606 304 l 2
 607 308 611 327 611 343 c 0
 611 369 602 397 583 407 c 1
 528 360 l 2
 519 352 509 348 496 348 c 0
 484 348 474 352 467 360 c 2
 428 410 l 1
 412 402 381 376 369 323 c 1
 373 324 380 324 389 324 c 0
 459 324 484 277 484 246 c 0
 484 187 422 130 348 130 c 0
 295 130 256 164 256 209 c 0
 256 215 257 221 258 228 c 2
 273 304 l 2
 290 383 375 460 455 460 c 0
 469 460 479 457 484 451 c 2
 509 418 l 1
 549 451 l 2
 556 457 567 460 582 460 c 256
 639 460 703 413 703 339 c 0
 703 328 702 316 699 304 c 2
 675 187 l 2
 649 63 482 -9 359 -9 c 256
 255 -9 123 46 123 152 c 0xf7
 123 163 124 175 127 187 c 2
 167 383 l 2
 172 404 175 425 175 445 c 0
 175 492 162 517 133 538 c 1
 150 554 173 566 200 566 c 0
 219 566 234 559 243 544 c 0
 258 519 269 486 269 447 c 0xeb
 269 427 266 406 261 383 c 2
 220 187 l 2
 218 178 217 169 217 161 c 0xf3
EndSplineSet
EndChar
StartChar: uni0E53
Encoding: 3667 3667 290
Width: 725
VWidth: 1507
Flags: W
HStem: -9 50<172.385 253.478> 137 48<195.085 264.794> 402 58<285.909 373.466 507 600.777>
VStem: 90 79<44.4986 166.579> 268 64<55.2698 125.08> 610 94<315.424 339.5 339.5 343 341.25 390.944>
Fore
449 422 m 1
 490 449 534 460 570 460 c 0
 656 460 706 406 706 354 c 0
 706 347 706 339 704 332 c 2
 647 57 l 2
 636 20 592 -9 538 -9 c 1
 610 332 l 2
 611 337 612 342 612 347 c 0
 612 374 592 402 558 402 c 0
 522 402 484 367 476 332 c 2
 445 181 l 2
 441 164 419 149 392 149 c 0
 366 149 350 166 350 177 c 0
 350 178 351 180 351 181 c 2
 383 332 l 2
 384 337 385 342 385 347 c 0
 385 375 364 402 332 402 c 0
 274 402 192 276 184 175 c 1
 201 182 220 185 240 185 c 0
 295 185 332 149 332 107 c 0
 332 46 267 -9 197 -9 c 0
 182 -9 137 -8 113 33 c 0
 98 65 90 100 90 139 c 0
 90 269 181 460 344 460 c 0
 375 460 422 451 449 422 c 1
229 137 m 256
 193 137 169 106 169 78 c 0
 169 63 177 41 208 41 c 256
 244 41 268 72 268 100 c 0
 268 115 260 137 229 137 c 256
EndSplineSet
EndChar
StartChar: uni0E54
Encoding: 3668 3668 291
Width: 725
VWidth: 1507
Flags: W
HStem: 0 57<280.359 398 487.49 622.117> 273 48<404.683 486.286> 393 58<339.865 648.564>
VStem: 130 93<111.824 269.184> 322 68<187.484 257.892> 490 64<190.09 269.682>
Fore
577 451 m 2
 646 451 711 515 749 574 c 1
 773 565 789 549 789 520 c 0
 789 504 784 491 772 479 c 0
 715 425 648 393 565 393 c 2
 418 393 l 2
 325 393 223 295 223 186 c 0
 223 115 273 57 347 57 c 2
 398 57 l 1
 373 71 322 107 322 183 c 0
 322 293 413 321 461 321 c 256
 531 321 554 275 554 245 c 0
 554 185 498 132 425 127 c 1
 461 79 520 63 570 63 c 0
 606 63 635 40 635 7 c 2
 635 0 l 1
 335 0 l 2
 195 0 130 90 130 176 c 0
 130 310 261 451 430 451 c 2
 577 451 l 2
451 273 m 256
 417 273 390 246 390 212 c 0
 390 197 398 176 430 176 c 256
 468 176 490 208 490 238 c 0
 490 259 474 273 451 273 c 256
EndSplineSet
EndChar
StartChar: uni0E55
Encoding: 3669 3669 292
Width: 725
VWidth: 1507
Flags: W
HStem: 0 57<280.359 398 487.49 622.117> 273 48<404.683 486.286> 393 49<450.802 533.255> 538 50<461.501 542.449>
VStem: 130 93<111.824 271.639> 322 68<187.484 257.892> 383 65<458.614 525.358> 490 64<190.09 269.682> 547 64<456.002 524.976>
Fore
130 176 m 0xfd
 130 294 228 421 387 446 c 1
 385 453 383 462 383 471 c 0
 383 527 437 588 517 588 c 256
 588 588 611 541 611 507 c 0xfa80
 611 483 599 464 591 452 c 1
 657 465 720 525 754 576 c 1
 785 553 787 522 787 514 c 0
 787 501 782 489 772 479 c 0
 715 425 648 393 565 393 c 2
 418 393 l 2
 325 393 223 295 223 186 c 0
 223 115 273 57 347 57 c 2
 398 57 l 1
 373 71 322 107 322 183 c 0
 322 293 413 321 461 321 c 256
 531 321 554 275 554 245 c 0
 554 185 498 132 425 127 c 1
 461 79 520 63 570 63 c 0
 606 63 635 40 635 7 c 2
 635 0 l 1
 335 0 l 2
 195 0 130 90 130 176 c 0xfd
451 273 m 256
 417 273 390 246 390 212 c 0
 390 197 398 176 430 176 c 256
 468 176 490 208 490 238 c 0xfd
 490 259 474 273 451 273 c 256
506 538 m 256
 475 538 448 514 448 479 c 0
 448 464 456 442 487 442 c 256
 520 442 547 470 547 499 c 0xfa80
 547 515 539 538 506 538 c 256
EndSplineSet
EndChar
StartChar: uni0E56
Encoding: 3670 3670 293
Width: 725
VWidth: 1507
Flags: W
HStem: -9 57<313.976 474.617> 89 44<294.453 343.734> 229 50<275.999 356.811> 402 58<390.386 522.937>
VStem: 189 72<104.614 210.044> 240 89<431 475.523> 360 66<147.906 216.697> 591 95<175.3 334.118>
Fore
321 229 m 256xfb
 285 229 261 198 261 170 c 0
 261 155 269 133 300 133 c 256
 336 133 360 164 360 192 c 0
 360 207 352 229 321 229 c 256xfb
227 565 m 0
 268 565 324 509 329 431 c 1xf7
 401 460 444 460 457 460 c 0
 592 460 686 370 686 268 c 0
 686 142 562 -9 381 -9 c 0
 274 -9 189 56 189 136 c 0xfb
 189 195 237 279 332 279 c 0
 403 279 426 232 426 201 c 0
 426 136 363 90 294 89 c 1
 313 62 346 48 393 48 c 0
 509 48 591 167 591 257 c 0
 591 332 538 402 445 402 c 0
 358 402 304 331 276 331 c 0
 268 331 238 334 238 351 c 0
 239 362 240 371 240 376 c 2
 240 401 l 2xf7
 240 480 183 520 160 532 c 1
 177 552 203 565 227 565 c 0
EndSplineSet
EndChar
StartChar: uni0E57
Encoding: 3671 3671 294
Width: 725
VWidth: 1507
Flags: W
HStem: -9 50<172.528 253.511> 137 48<195.47 264.625> 402 58<268.413 345.063 458.138 531.715>
VStem: 93 76<44.0943 166.693> 268 64<54.9186 125.341> 537 94<333.875 354 354 359 356.5 386.108>
Fore
229 137 m 256
 193 137 169 106 169 78 c 0
 169 63 177 41 208 41 c 256
 244 41 268 72 268 100 c 0
 268 115 260 137 229 137 c 256
511 460 m 0
 584 460 631 416 631 368 c 0
 631 362 630 356 629 350 c 2
 573 92 l 1
 614 135 624 163 627 182 c 2
 669 383 l 2
 684 448 714 502 757 544 c 0
 772 559 790 566 809 566 c 0
 842 566 858 547 864 538 c 1
 844 527 789 496 761 383 c 2
 719 182 l 2
 685 48 530 -13 499 -13 c 0
 479 -13 466 -1 466 17 c 0
 466 19 467 21 467 23 c 1
 537 350 l 1
 537 353 538 355 538 358 c 0
 538 371 530 402 499 402 c 256
 470 402 446 371 442 350 c 2
 416 229 l 2
 412 212 386 197 362 197 c 0
 339 197 323 208 323 223 c 0
 323 225 324 227 324 229 c 1
 350 350 l 1
 350 353 351 355 351 358 c 0
 351 371 343 402 312 402 c 0
 243 402 202 267 191 211 c 0
 189 193 187 183 185 176 c 1
 202 182 220 185 240 185 c 0
 310 185 332 138 332 107 c 0
 332 50 274 -9 197 -9 c 0
 155 -9 128 5 115 33 c 0
 101 62 93 101 93 145 c 0
 93 279 175 460 324 460 c 0
 362 460 392 451 413 433 c 1
 438 451 471 460 511 460 c 0
EndSplineSet
EndChar
StartChar: uni0E58
Encoding: 3672 3672 295
Width: 725
VWidth: 1507
Flags: W
HStem: -9 57<433.525 519.561> 69 49<508.909 534> 214 50<520.857 602.595> 393 58<344.386 648.525>
VStem: 130 91<102.402 266.157> 444 62<121.441 198.746> 606 65<133.146 210.228>
Fore
577 451 m 2
 646 451 710 515 749 573 c 1
 778 563 790 542 790 521 c 0
 790 504 781 488 772 479 c 0
 715 425 648 393 565 393 c 2
 418 393 l 2
 349 393 221 327 221 161 c 0
 221 137 224 108 240 81 c 1
 262 134 323 180 362 180 c 0
 407 180 370 137 422 80 c 0
 441 59 464 48 491 48 c 0
 506 48 521 55 534 69 c 1
 469 69 444 113 444 146 c 0
 444 207 508 264 577 264 c 0
 649 264 671 217 671 186 c 0
 671 117 594 -9 479 -9 c 0
 436 -9 360 3 326 83 c 1
 316 68 312 53 312 40 c 0
 312 27 315 25 315 19 c 0
 315 13 309 -9 274 -9 c 0
 174 -9 130 75 130 166 c 0
 130 326 274 451 430 451 c 2
 577 451 l 2
567 214 m 256
 532 214 506 185 506 154 c 0
 506 132 522 118 546 118 c 256
 582 118 606 148 606 179 c 0
 606 200 590 214 567 214 c 256
EndSplineSet
EndChar
StartChar: uni0E59
Encoding: 3673 3673 296
Width: 725
VWidth: 1507
Flags: W
HStem: -9 78<279.223 382.676> 166 50<329.669 411.302> 402 58<321.364 411.665 557.273 617.625>
VStem: 130 91<85.9973 269.491> 252 63<85.9941 150.935> 415 65<84.9097 162.827> 718 82<480.769 546.961>
Fore
375 166 m 256
 341 166 315 138 315 105 c 0
 315 90 323 69 354 69 c 256
 390 69 415 101 415 130 c 0
 415 152 399 166 375 166 c 256
480 137 m 0
 480 61 382 -9 298 -9 c 0
 197 -9 130 58 130 168 c 0
 130 329 274 460 387 460 c 0
 436 460 472 448 496 424 c 1
 545 459 584 460 594 460 c 0
 632 460 662 451 683 434 c 1
 710 468 718 511 718 545 c 0
 718 551 718 556 717 562 c 1
 764 562 800 542 800 513 c 0
 800 487 763 387 678 353 c 0
 671 350 665 349 659 349 c 0
 623 349 620 402 582 402 c 0
 565 402 544 379 538 362 c 1
 564 293 571 142 630 42 c 0
 633 38 634 33 634 28 c 0
 634 2 606 -14 585 -14 c 0
 578 -14 562 -13 552 3 c 0
 526 46 501 92 472 250 c 2
 461 302 l 2
 439 401 392 402 375 402 c 256
 305 402 221 278 221 167 c 0
 221 119 234 87 264 65 c 1
 256 78 252 91 252 106 c 0
 252 153 310 216 386 216 c 0
 456 216 480 169 480 137 c 0
EndSplineSet
EndChar
StartChar: uni0E5A
Encoding: 3674 3674 297
Width: 773
VWidth: 1507
Flags: W
HStem: -9 21G<426.213 447.5 592.299 615.5> 363 58<313.889 441.891> 562 48<228.934 310.173>
VStem: 151 63<469.262 548.049> 314 59<481.146 558.43> 588 107<29.0586 414.455>
Fore
719 607 m 1
 765 607 798 584 798 552 c 0
 798 548 798 545 797 541 c 2
 695 57 l 2
 685 21 643 -9 588 -9 c 1
 677 405 l 1
 651 392 623 380 594 372 c 1
 528 60 l 2
 520 22 473 -6 422 -6 c 1
 509 407 l 1
 466 383 411 363 350 363 c 0
 269 363 151 411 151 491 c 0
 151 563 223 610 285 610 c 0
 355 610 373 561 373 532 c 0
 373 481 329 449 297 436 c 1
 317 426 339 421 362 421 c 0
 447 421 528 490 553 610 c 1
 598 610 631 587 631 555 c 0
 631 551 631 548 630 544 c 2
 609 445 l 1
 634 459 698 501 719 607 c 1
274 562 m 256
 238 562 214 532 214 501 c 0
 214 480 230 466 253 466 c 256
 289 466 314 498 314 526 c 0
 314 548 298 562 274 562 c 256
EndSplineSet
EndChar
StartChar: uni0E5B
Encoding: 3675 3675 298
Width: 1080
VWidth: 1507
Flags: W
HStem: 63 55<296.615 439.5> 220 44<361.454 432.969> 277 23<1003.38 1047.68> 345 45<370.802 441.346> 488 53<355.718 464.111>
VStem: 170 89<156.489 349.821> 299 60<266.217 334.256> 469 89<384.616 408.089 394.92 478.533>
Fore
357 118 m 0
 548 118 585 395 585 440 c 1
 645 428 680 397 690 347 c 1
 693 357 l 2
 697 377 697 398 697 409 c 0
 697 418 697 429 696 440 c 1
 745 424 778 394 797 351 c 1
 797 354 l 1
 799 364 801 386 803 419 c 1
 847 404 881 378 897 336 c 1
 900 348 901 364 901 384 c 1
 986 367 980 309 1060 300 c 1
 1072 295 l 1
 1063 283 1044 277 1017 277 c 0
 987 277 963 283 945 295 c 1
 931 263 910 243 882 234 c 1
 857 234 844 253 840 283 c 2
 840 288 l 1
 823 242 801 219 772 219 c 0
 754 219 743 237 740 274 c 0
 740 278 739 281 739 283 c 1
 726 254 698 202 654 202 c 256
 638 202 629 222 626 262 c 0
 626 264 625 266 624 268 c 1
 575 131 482 63 345 63 c 2
 344 63 l 2
 205 63 170 158 170 233 c 0
 170 321 221 541 424 541 c 0
 529 541 558 478 558 425 c 0
 558 366 529 311 500 276 c 1
 502 276 l 1
 475 239 435 220 384 220 c 0
 328 220 299 260 299 290 c 0
 299 338 350 390 421 390 c 0
 439 390 453 387 464 381 c 1
 468 391 469 390 469 396 c 2
 472 409 473 420 473 430 c 0
 473 469 454 488 416 488 c 0
 306 488 259 313 259 237 c 0
 259 186 278 118 357 118 c 0
410 345 m 256
 381 345 359 316 359 297 c 0
 359 279 373 264 393 264 c 256
 419 264 443 287 443 314 c 0
 443 331 430 345 410 345 c 256
EndSplineSet
EndChar
StartChar: zerowidthnonjoiner
Encoding: 8204 8204 299
Width: 30
VWidth: 1507
Flags: W
HStem: -461 826
Fore
36 311 m 2
 44 347 77 365 136 365 c 1
 -27 -407 l 2
 -35 -443 -68 -461 -127 -461 c 1
 36 311 l 2
EndSplineSet
EndChar
StartChar: zerowidthjoiner
Encoding: 8205 8205 300
Width: 30
VWidth: 1507
Flags: MW
Fore
99 196 m 1
 -27 -407 l 2
 -35 -443 -68 -461 -127 -461 c 1
 12 196 l 1
 -3 182 l 1
 -35 220 l 1
 33 279 l 1
 6 312 -4 324 -11 336 c 1
 38 375 l 1
 81 318 l 1
 151 375 l 1
 184 336 l 1
 115 279 l 1
 160 220 l 1
 109 182 l 1
 99 196 l 1
EndSplineSet
EndChar
StartChar: lefttorightmark
Encoding: 8206 8206 301
Width: 30
VWidth: 1507
Flags: MW
HStem: 252 59<112 226>
Fore
112 252 m 1
 -27 -407 l 2
 -35 -443 -68 -461 -125 -461 c 1
 38 311 l 1
 238 311 l 1
 225 330 227 327 223 335 c 1
 267 374 l 1
 341 282 l 1
 226 187 l 1
 200 229 l 1
 226 252 l 1
 112 252 l 1
EndSplineSet
EndChar
StartChar: righttoleftmark
Encoding: 8207 8207 302
Width: 30
VWidth: 1507
Flags: MW
HStem: 252 59<-77 24>
Fore
-29 -407 m 2
 -37 -443 -70 -461 -127 -461 c 1
 24 252 l 1
 -89 252 l 1
 -72 229 l 1
 -116 187 l 1
 -191 282 l 1
 -78 374 l 1
 -50 335 l 1
 -77 311 l 1
 122 311 l 1
 -29 -407 l 2
EndSplineSet
EndChar
StartChar: endash
Encoding: 8211 8211 303
Width: 633
VWidth: 1507
Flags: W
HStem: 270 59<122.278 635.695>
Fore
657 329 m 1
 648 285 608 270 573 270 c 2
 101 270 l 1
 107 299 134 329 184 329 c 2
 657 329 l 1
EndSplineSet
EndChar
StartChar: emdash
Encoding: 8212 8212 304
Width: 1138
VWidth: 1507
Flags: W
HStem: 271 56<119.073 1140.21>
Fore
101 271 m 1
 109 308 136 327 182 327 c 2
 1159 327 l 1
 1150 290 1123 271 1078 271 c 2
 101 271 l 1
EndSplineSet
EndChar
StartChar: dagger
Encoding: 8224 8224 311
Width: 605
VWidth: 1507
Flags: W
HStem: 427 58<161 203.5 203.5 205.462 205.462 298.66 298.66 350 446 475.523 475.523 560.159 560.159 602.479 602.479 638>
Fore
360 482 m 1
 371 535 410 739 411 743 c 1
 505 743 l 1
 460 544 l 2
 454 522 450 501 446 482 c 1
 466 482 486 482 505 483 c 2
 564 485 l 2
 598 485 616 487 650 487 c 1
 638 427 l 1
 557 432 537 429 436 433 c 1
 320 -130 l 1
 226 -130 l 1
 237 -77 244 -60 266 46 c 2
 350 433 l 1
 289 433 206 431 149 427 c 1
 161 487 l 1
 195 487 212 485 246 485 c 0
 314 483 314 482 360 482 c 1
EndSplineSet
EndChar
StartChar: daggerdbl
Encoding: 8225 8225 312
Width: 605
VWidth: 1507
Flags: W
HStem: 145 60<102 143.5 143.5 213.696 213.696 237.385 237.385 289 387 446.084 446.084 517.92 517.92 542.355 542.355 577> 427 58<161 203.5 203.5 205.462 205.462 298.66 298.66 350 446 475.523 475.523 578.3 578.3 602.479 602.479 638>
Fore
638 427 m 1
 571 431 504 433 436 433 c 1
 387 202 l 1
 457 202 480 203 503 205 c 0
 538 205 556 206 591 206 c 1
 577 145 l 1
 511 149 444 151 375 151 c 1
 340 -27 l 2
 331 -70 325 -105 320 -130 c 1
 226 -130 l 1
 250 -27 l 2
 260 16 273 76 289 151 c 1
 269 151 169 150 89 145 c 1
 102 206 l 1
 135 206 152 205 185 205 c 0
 231 202 254 202 300 202 c 1
 350 433 l 1
 289 433 206 431 149 427 c 1
 161 487 l 1
 195 487 212 485 246 485 c 0
 314 483 314 482 360 482 c 1
 371 535 410 739 411 743 c 1
 505 743 l 1
 460 544 l 2
 454 522 450 501 446 482 c 1
 466 482 486 482 505 483 c 2
 564 485 l 2
 598 485 616 487 650 487 c 1
 638 427 l 1
EndSplineSet
EndChar
StartChar: bullet
Encoding: 8226 8226 313
Width: 569
VWidth: 1507
Flags: W
HStem: 163 273<291.272 401.983>
VStem: 193 307<254.446 343.419>
Fore
193 271 m 0
 193 356 278 436 375 436 c 0
 463 436 500 377 500 326 c 0
 500 242 413 163 317 163 c 0
 234 163 193 218 193 271 c 0
EndSplineSet
EndChar
StartChar: perthousand
Encoding: 8240 8240 315
Width: 1275
VWidth: 1507
Flags: W
HStem: -5 50<607.954 723.293 994.343 1110.28> 306 50<251.825 368.187> 360 50<666.228 782.457 1053.65 1170.1> 671 49<308.98 427.043>
VStem: 152 86<370.753 417.738 416.977 418.5 418.5 443.917> 439 86<584.541 608.5 608.5 610.523 609.512 656.463> 508 85<60.7441 107.488 107 107.977 107.977 131.459> 794 85<272.083 297.5 297.5 299.5 298.5 345.814> 895 86<58.4699 106.488 106 106.977 106.977 131.917> 1182 84<272.083 296.5 296.5 300 298.25 345.038>
Fore
1126 410 m 256xf9c0
 1208 410 1269 370 1269 311 c 0
 1269 304 1268 296 1266 289 c 2
 1230 115 l 2
 1216 44 1121 -5 1039 -5 c 256
 958 -5 895 39 895 97 c 0
 895 103 896 109 897 115 c 2
 933 289 l 2
 948 352 1024 410 1126 410 c 256xf9c0
1184 304 m 0
 1184 338 1154 360 1115 360 c 0
 1067 360 1028 328 1019 289 c 2
 983 115 l 2
 981 109 981 104 981 99 c 0
 981 77 998 45 1049 45 c 0
 1096 45 1136 79 1146 115 c 2
 1182 289 l 2
 1183 294 1184 299 1184 304 c 0
384 720 m 0
 473 720 527 674 527 620 c 0
 527 614 526 608 525 601 c 2xfdc0
 488 427 l 2
 470 348 373 306 297 306 c 256
 215 306 152 349 152 407 c 0
 152 413 152 420 154 427 c 2
 190 601 l 2
 205 664 284 720 384 720 c 0
441 616 m 0
 441 649 410 671 374 671 c 0
 325 671 285 640 276 601 c 2
 240 427 l 2
 239 421 238 416 238 410 c 0
 238 378 268 356 307 356 c 0
 354 356 393 389 402 427 c 2
 439 601 l 2
 440 606 441 611 441 616 c 0
739 410 m 256
 828 410 881 363 881 310 c 0
 881 303 881 296 879 289 c 2
 843 115 l 2
 830 50 743 -5 651 -5 c 256
 572 -5 508 37 508 99 c 0xfbc0
 508 104 508 110 509 115 c 2
 546 289 l 2
 561 352 637 410 739 410 c 256
796 306 m 0
 796 338 765 360 728 360 c 256
 682 360 641 329 632 289 c 2
 595 115 l 2
 594 110 593 105 593 101 c 0
 593 69 623 45 662 45 c 0
 710 45 749 79 758 115 c 2
 794 289 l 2
 795 295 796 300 796 306 c 0
730 724 m 2
 754 755 780 759 792 759 c 0
 806 759 822 754 838 745 c 1
 304 -2 l 2
 287 -27 267 -39 244 -39 c 0
 230 -39 214 -34 197 -23 c 1
 730 724 l 2
EndSplineSet
EndChar
StartChar: minute
Encoding: 8242 8242 316
Width: 226
VWidth: 1507
Flags: W
HStem: 503 222<154 202 264 339>
VStem: 154 110<549.038 623.429> 202 137<651 763.656>
Fore
202 651 m 2xa0
 218 701 272 725 339 725 c 1xa0
 264 564 l 2
 256 546 218 503 154 503 c 1xc0
 202 651 l 2xa0
EndSplineSet
EndChar
StartChar: second
Encoding: 8243 8243 317
Width: 357
VWidth: 1507
Flags: W
HStem: 503 222<154 202 264 285 285 332 332 341 341 393 393 470>
VStem: 154 110<549.038 621.223> 202 139<651 764.273> 285 108<547.237 618.916> 332 138<651 763.298>
Fore
202 651 m 2xa0
 218 702 273 725 341 725 c 1xa0
 264 564 l 2
 256 546 218 503 154 503 c 1xc0
 202 651 l 2xa0
332 651 m 2x88
 348 702 403 725 470 725 c 1x88
 393 564 l 2
 386 547 350 503 285 503 c 1x90
 332 651 l 2x88
EndSplineSet
EndChar
StartChar: guilsinglleft
Encoding: 8249 8249 318
Width: 322
VWidth: 1507
Flags: W
HStem: 87 423<260 348 348 348>
VStem: 98 295<295 484 295 295>
Fore
99 298 m 0
 99 304 104 311 115 320 c 2
 295 485 l 2
 313 502 331 510 348 510 c 0
 375 510 388 492 393 484 c 1
 193 298 l 1
 241 224 301 131 314 113 c 1
 297 96 279 87 260 87 c 0
 241 87 227 95 216 112 c 2
 106 279 l 2
 101 285 98 290 98 295 c 0
 98 296 99 297 99 298 c 0
EndSplineSet
EndChar
StartChar: Euro
Encoding: 8364 8364 321
Width: 729
VWidth: 1507
Flags: W
HStem: -9 60<290.133 480.503> 262 59<108.376 128 237 511.624> 396 61<135.506 157 265 540.263> 665 60<410.942 603.424>
VStem: 117 97<122.306 212.883 212.477 213.289 213.289 228 228 247.833> 627 80<181.359 245.397> 682 96<485.584 591.817>
Fore
368 -9 m 0xfc
 236 -9 117 68 117 184 c 0
 117 198 119 213 122 228 c 2
 128 262 l 1
 53 262 l 1
 67 322 125 321 142 321 c 1
 157 396 l 1
 81 396 l 1
 95 458 151 457 170 457 c 1
 178 490 l 2
 202 620 364 725 525 725 c 0
 639 725 778 669 778 534 c 0
 778 478 717 458 669 458 c 1
 669 458 682 495 682 521 c 0xfa
 682 579 634 665 511 665 c 256
 386 665 289 573 273 490 c 2
 265 457 l 1
 561 457 l 1
 552 416 523 396 476 396 c 2
 252 396 l 1
 237 321 l 1
 532 321 l 1
 523 282 495 262 448 262 c 2
 223 262 l 1
 217 228 l 2
 215 217 214 207 214 197 c 0
 214 110 287 51 381 51 c 0
 504 51 627 150 627 261 c 1
 660 261 707 247 707 206 c 0
 707 136 561 -9 368 -9 c 0xfc
EndSplineSet
EndChar
StartChar: uni2113
Encoding: 8467 8467 322
Width: 351
VWidth: 1507
Flags: W
HStem: -5 64<177.77 251.103> 669 56<332.719 385.999>
VStem: 122 88<61.0062 90.2764 89.999 90.5537 90.5537 102 104 118.625> 358 85<550.48 667.236>
Fore
328 68 m 0
 328 54 321 41 304 32 c 0
 259 7 220 -5 187 -5 c 0
 143 -5 122 18 122 65 c 0
 122 76 124 89 127 104 c 2
 172 317 l 1
 161 311 150 308 140 308 c 0
 121 308 105 318 93 341 c 1
 197 404 l 1
 190 401 l 1
 231 592 l 2
 249 681 291 725 357 725 c 0
 414 725 443 699 443 646 c 0
 443 609 417 452 262 365 c 1
 270 368 l 1
 214 102 l 2
 212 91 210 82 210 75 c 0
 210 64 213 59 219 59 c 0
 225 59 236 63 252 71 c 2
 315 104 l 1
 324 92 328 80 328 68 c 0
291 467 m 1
 355 537 358 649 358 649 c 1
 358 662 355 669 348 669 c 0
 338 669 328 643 318 592 c 2
 291 467 l 1
EndSplineSet
EndChar
StartChar: trademark
Encoding: 8482 8482 323
Width: 916
VWidth: 1507
Flags: W
HStem: 668 48<180.787 304 390 520.82>
Fore
534 716 m 1
 528 692 510 668 469 668 c 2
 390 668 l 1
 324 359 l 2
 316 324 284 306 228 306 c 1
 304 668 l 1
 170 668 l 1
 176 700 197 716 234 716 c 2
 534 716 l 1
844 512 m 1
 725 327 l 2
 715 313 699 306 678 306 c 0
 647 306 642 317 641 327 c 2
 600 512 l 1
 567 359 l 2
 559 324 527 306 470 306 c 1
 549 680 l 2
 556 708 586 722 639 722 c 1
 704 427 l 1
 892 722 l 1
 941 722 966 711 966 689 c 0
 966 686 966 683 965 680 c 2
 897 359 l 2
 889 324 857 306 800 306 c 1
 844 512 l 1
EndSplineSet
EndChar
StartChar: Ohm
Encoding: 8486 8486 324
Width: 726
VWidth: 1507
Flags: W
HStem: 0 57<71.0129 240 509 669.276> 669 58<419.872 582.556>
VStem: 153 93<286.26 480.857> 662 93<386.473 582.411>
Fore
515 727 m 256
 672 727 755 613 755 494 c 0
 755 350 639 214 532 169 c 1
 509 57 l 1
 615 57 l 2
 654 57 674 43 674 16 c 0
 674 11 673 6 672 0 c 1
 404 0 l 1
 446 205 l 1
 549 236 662 348 662 490 c 0
 662 592 598 669 503 669 c 0
 370 669 246 518 246 375 c 0
 246 289 295 227 363 205 c 1
 321 0 l 1
 53 0 l 1
 61 38 88 57 133 57 c 2
 240 57 l 1
 262 169 l 1
 197 203 153 280 153 369 c 0
 153 558 331 727 515 727 c 256
EndSplineSet
EndChar
StartChar: estimated
Encoding: 8494 8494 325
Width: 510
VWidth: 1507
Flags: W
HStem: -11 52<215.768 327.685> 295 52<216 448> 537 51<309.579 423.754>
VStem: 99 90<69.578 222.303> 453 88<362.109 505.894>
Fore
448 347 m 1
 451 371 453 393 453 413 c 0
 453 496 425 537 371 537 c 0
 304 537 253 474 216 347 c 1
 448 347 l 1
381 588 m 0
 462 588 541 554 541 417 c 0
 541 382 536 341 526 295 c 1
 203 295 l 1
 194 244 189 201 189 166 c 0
 189 83 215 41 265 41 c 0
 321 41 366 82 405 166 c 1
 447 157 468 144 468 129 c 0
 468 122 412 -11 255 -11 c 0
 155 -11 99 44 99 154 c 0
 99 197 103 248 116 307 c 0
 155 492 244 588 381 588 c 0
EndSplineSet
EndChar
StartChar: partialdiff
Encoding: 8706 8706 326
Width: 660
VWidth: 1507
Flags: W
HStem: -9 54<258.767 421.931> 469 53<343.166 482.568>
VStem: 104 90<112.196 296.469> 568 100<228.404 391.595>
Fore
559 491 m 1
 539 532 482 638 304 716 c 1
 344 772 l 1
 420 737 486 696 542 648 c 0
 626 576 668 475 668 367 c 0
 668 116 483 -9 321 -9 c 0
 163 -9 104 95 104 188 c 0
 104 360 264 522 439 522 c 0
 484 522 524 512 559 491 c 1
332 45 m 0
 502 45 568 229 568 336 c 0
 568 367 561 393 549 411 c 1
 497 465 454 469 428 469 c 0
 288 469 194 315 194 197 c 0
 194 110 249 45 332 45 c 0
EndSplineSet
EndChar
StartChar: Delta
Encoding: 8710 8710 327
Width: 633
VWidth: 1507
Flags: W
HStem: 0 57<122 532>
Fore
431 552 m 1
 122 57 l 1
 532 57 l 1
 431 552 l 1
633 0 m 1
 -2 0 l 1
 476 764 l 1
 633 0 l 1
EndSplineSet
EndChar
StartChar: product
Encoding: 8719 8719 328
Width: 767
VWidth: 1507
Flags: W
HStem: 686 57<326 728>
Fore
163 -78 m 2
 155 -117 120 -137 59 -137 c 1
 246 743 l 1
 832 743 l 1
 657 -78 l 2
 649 -117 614 -137 553 -137 c 1
 728 686 l 1
 326 686 l 1
 163 -78 l 2
EndSplineSet
EndChar
StartChar: summation
Encoding: 8721 8721 329
Width: 813
VWidth: 1507
Flags: W
HStem: -128 59<149 751.232> 683 60<309 920.071>
Fore
48 -128 m 2
 26 -128 14 -114 14 -99 c 0
 14 -91 18 -82 27 -75 c 2
 549 306 l 1
 188 687 l 2
 185 690 184 694 184 698 c 0
 184 716 204 743 234 743 c 2
 939 743 l 1
 932 703 904 683 855 683 c 2
 309 683 l 1
 642 330 l 2
 651 321 656 313 656 308 c 0
 656 306 656 300 635 285 c 2
 149 -69 l 1
 695 -69 l 2
 736 -69 756 -83 756 -111 c 0
 756 -116 755 -122 754 -128 c 1
 48 -128 l 2
EndSplineSet
EndChar
StartChar: minus
Encoding: 8722 8722 330
Width: 633
VWidth: 1507
Flags: W
HStem: 270 59<122.278 635.695>
Fore
657 329 m 1
 648 285 608 270 573 270 c 2
 101 270 l 1
 107 299 134 329 184 329 c 2
 657 329 l 1
EndSplineSet
EndChar
StartChar: radical
Encoding: 8730 8730 331
Width: 560
VWidth: 1507
Flags: W
HStem: -9 21G<247 271> 329 55<116.406 187> 700 20G<664.5 685>
Fore
300 5 m 2
 294 -4 281 -9 261 -9 c 0
 233 -9 228 0 226 5 c 1
 187 329 l 1
 169 329 l 2
 131 329 113 342 113 367 c 0
 113 372 113 378 115 384 c 1
 235 384 l 2
 257 384 268 379 268 368 c 2
 292 136 l 1
 615 683 l 2
 629 708 650 720 679 720 c 0
 691 720 705 718 720 713 c 1
 300 5 l 2
EndSplineSet
EndChar
StartChar: infinity
Encoding: 8734 8734 332
Width: 967
VWidth: 1507
Flags: W
HStem: 163 54<251.165 383.187 674.883 809.511> 452 50<298.145 421.619 723.77 849.988>
VStem: 141 88<238.446 380.015> 506 2<338 339> 875 89<285.08 426.7>
Fore
508 338 m 1
 506 338 l 1
 506 339 506 339 505 339 c 1
 508 341 l 1
 508 338 l 1
229 299 m 0
 229 258 246 217 314 217 c 0
 380 217 467 292 505 339 c 1
 440 437 391 452 362 452 c 0
 290 452 229 380 229 299 c 0
802 502 m 0
 902 502 964 449 964 370 c 0
 964 287 901 163 731 163 c 0
 671 163 624 183 591 222 c 0
 575 241 547 271 538 285 c 1
 461 204 381 163 300 163 c 0
 201 163 141 216 141 296 c 0
 141 378 203 502 371 502 c 0
 431 502 478 483 511 445 c 0
 533 419 547 408 565 380 c 1
 642 461 721 502 802 502 c 0
742 214 m 0
 825 214 875 298 875 366 c 0
 875 405 858 449 790 449 c 0
 731 449 641 388 597 326 c 1
 662 223 713 214 742 214 c 0
EndSplineSet
EndChar
StartChar: integral
Encoding: 8747 8747 333
Width: 405
VWidth: 1507
Flags: W
HStem: -134 57<-46.4106 38.097> 695 52<439.547 526.023 521.5 530.546>
Fore
490 747 m 0
 521 747 555 745 555 717 c 0
 555 708 551 699 544 689 c 1
 499 695 l 2
 452 695 417 665 396 606 c 2
 178 9 l 2
 149 -68 96 -134 -6 -134 c 0
 -36 -134 -69 -129 -69 -100 c 0
 -69 -92 -66 -83 -59 -74 c 1
 -49 -76 -39 -77 -29 -77 c 0
 18 -77 63 -51 89 11 c 2
 307 607 l 2
 341 701 402 747 490 747 c 0
EndSplineSet
EndChar
StartChar: approxequal
Encoding: 8776 8776 334
Width: 633
VWidth: 1507
Flags: W
HStem: 122 57<389.226 532.841> 188 58<166.661 299.932> 301 58<427.71 570.795> 368 57<204.141 337.179>
Fore
256 368 m 0
 233 368 197 364 142 318 c 1
 132 335 127 349 127 361 c 0
 127 386 162 425 268 425 c 0
 379 425 434 359 505 359 c 0
 545 359 592 389 636 430 c 1
 649 416 656 402 656 387 c 0
 656 328 552 301 493 301 c 0
 391 301 330 368 256 368 c 0
219 188 m 0
 196 188 161 184 104 139 c 1
 94 155 89 169 89 181 c 0
 89 207 123 246 231 246 c 0
 342 246 395 179 467 179 c 0
 507 179 554 210 598 250 c 1
 611 237 618 224 618 209 c 0
 618 191 609 174 594 163 c 0
 553 136 506 122 455 122 c 0
 350 122 295 188 219 188 c 0
EndSplineSet
EndChar
StartChar: notequal
Encoding: 8800 8800 335
Width: 633
VWidth: 1507
Flags: W
HStem: 184 57<101.787 250 380 621.815> 363 58<140.013 380 508 659.213>
Fore
83 184 m 1
 92 222 119 241 164 241 c 2
 292 241 l 1
 380 363 l 1
 122 363 l 1
 130 402 157 421 202 421 c 2
 421 421 l 1
 497 528 l 2
 512 550 530 560 551 560 c 0
 565 560 580 556 597 546 c 1
 508 421 l 1
 678 421 l 1
 669 382 642 363 597 363 c 2
 467 363 l 1
 380 241 l 1
 641 241 l 1
 632 203 604 184 558 184 c 2
 338 184 l 1
 258 71 l 2
 243 49 225 39 203 39 c 0
 189 39 174 43 157 53 c 1
 250 184 l 1
 83 184 l 1
EndSplineSet
EndChar
StartChar: lessequal
Encoding: 8804 8804 336
Width: 633
VWidth: 1507
Flags: W
HStem: 2 58<67.8087 582.466>
Fore
139 321 m 2
 689 520 l 1
 689 517 690 513 690 510 c 0
 690 491 681 460 644 445 c 2
 241 298 l 1
 582 154 l 2
 603 143 607 126 607 115 c 0
 607 103 603 91 595 78 c 1
 130 277 l 2
 116 281 110 286 110 295 c 0
 110 302 109 310 139 321 c 2
603 60 m 1
 595 24 564 2 519 2 c 2
 47 2 l 1
 53 36 86 60 130 60 c 2
 603 60 l 1
EndSplineSet
EndChar
StartChar: greaterequal
Encoding: 8805 8805 337
Width: 633
VWidth: 1507
Flags: W
HStem: 2 58<67.8087 130 519 582.466>
Fore
657 298 m 0
 657 289 646 282 629 277 c 2
 78 78 l 1
 77 84 76 90 76 95 c 0
 76 116 85 142 119 154 c 2
 525 298 l 1
 181 445 l 2
 171 449 157 459 157 479 c 0
 157 491 162 505 172 520 c 1
 638 321 l 2
 653 315 657 303 657 298 c 0
519 2 m 2
 564 2 595 24 603 60 c 1
 130 60 l 2
 86 60 53 37 47 2 c 1
 519 2 l 2
EndSplineSet
EndChar
StartChar: lozenge
Encoding: 9674 9674 338
Width: 622
VWidth: 1507
Flags: MW
HStem: -12 21G<290 318.5> 707 20G<456.5 475>
VStem: 128 89<357 357> 555 90<357 357>
Fore
326 77 m 1
 555 357 l 1
 446 639 l 1
 217 357 l 1
 326 77 l 1
464 727 m 0
 486 727 501 721 508 710 c 1
 645 357 l 1
 357 5 l 2
 346 -6 330 -12 307 -12 c 0
 273 -12 266 -1 264 5 c 2
 128 357 l 1
 415 710 l 2
 426 724 449 727 464 727 c 0
EndSplineSet
EndChar
StartChar: dottedcircle
Encoding: 9676 9676 339
Width: 654
VWidth: 1507
Flags: W
HStem: 17 63<292.914 376.523> 36 62<201.124 283.711 392.607 475.711> 90 62<131.477 215.625 486.689 571.625> 170 64<94.8121 176.651 558.482 641.518> 268 62<97.2805 162.648 599.281 683.381> 365 63<135.986 218.199 598.906 682.523> 446 62<207.482 291.254 563.289 647.254> 499 63<298.956 382.183 492.087 574.238> 519 63<399.914 483.523>
VStem: 89 94<179.875 224.924 276.508 321.346> 126 95<100.757 143.996 373.587 418.625> 196 94<48.1892 89.8409 454.508 499.125> 287 95<29.0721 70.9241 506.836 553.142> 388 94<49.0723 90.0277 527.017 572.924> 481 96<100.757 143.707 507.384 553.123> 552 96<181.491 225.119 454.508 499.616> 593 95<275.972 321.346 373.004 418.625>
Fore
91 293 m 0x1c
 91 309 114 330 145 330 c 0
 162 330 185 319 185 303 c 0
 185 282 152 268 131 268 c 0
 105 268 91 283 91 293 c 0x1c
593 293 m 0x1c0080
 593 309 616 330 647 330 c 256
 674 330 688 314 688 303 c 0
 688 282 657 268 633 268 c 256
 607 268 593 283 593 293 c 0x1c0080
394 546 m 0
 394 565 425 582 449 582 c 256
 475 582 489 566 489 555 c 0
 489 540 467 519 436 519 c 256x1c80
 417 519 394 529 394 546 c 0
294 527 m 0
 294 547 327 562 350 562 c 256
 370 562 388 552 388 536 c 0
 388 521 367 499 336 499 c 256x1d04
 310 499 294 516 294 527 c 0
486 526 m 0
 486 542 511 562 541 562 c 256
 567 562 580 546 580 536 c 0
 580 517 553 499 528 499 c 256
 500 499 486 515 486 526 c 0
201 471 m 0
 201 487 225 508 255 508 c 256
 282 508 296 492 296 481 c 0
 296 460 264 446 241 446 c 256x1e
 215 446 201 461 201 471 c 0
557 471 m 0
 557 486 579 508 610 508 c 256
 638 508 652 492 652 481 c 0
 652 460 620 446 597 446 c 256
 571 446 557 461 557 471 c 0
130 392 m 0
 130 411 162 428 184 428 c 0
 210 428 224 412 224 401 c 0
 224 386 201 365 170 365 c 0
 152 365 130 376 130 392 c 0
593 391 m 0x1c0080
 593 411 624 428 648 428 c 256x1c01
 674 428 688 412 688 401 c 0
 688 386 666 365 635 365 c 256
 607 365 593 381 593 391 c 0x1c0080
382 53 m 0x9c08
 382 38 360 17 329 17 c 256
 310 17 287 27 287 44 c 0
 287 63 318 80 342 80 c 256
 368 80 382 64 382 53 c 0x9c08
482 73 m 0x5c04
 482 58 460 36 430 36 c 256
 402 36 388 52 388 63 c 0
 388 84 419 98 442 98 c 256
 468 98 482 83 482 73 c 0x5c04
290 73 m 0x5c10
 290 58 268 36 238 36 c 256
 212 36 196 53 196 64 c 0
 196 78 219 98 250 98 c 256
 276 98 290 83 290 73 c 0x5c10
577 125 m 0x3c02
 577 106 545 90 522 90 c 256
 495 90 481 106 481 116 c 0
 481 132 504 152 535 152 c 256
 554 152 577 142 577 125 c 0x3c02
221 125 m 0x3c20
 221 106 189 90 166 90 c 256
 140 90 126 106 126 116 c 0
 126 131 148 152 179 152 c 256
 198 152 221 142 221 125 c 0x3c20
594 170 m 0
 568 170 552 187 552 198 c 0
 552 212 576 234 606 234 c 256
 632 234 648 217 648 206 c 0x1c01
 648 192 624 170 594 170 c 0
130 170 m 0
 106 170 89 187 89 198 c 0
 89 217 120 234 142 234 c 0
 169 234 183 218 183 207 c 0x1c40
 183 192 160 170 130 170 c 0
EndSplineSet
EndChar
StartChar: uni0E10.alt1
Encoding: 63232 63232 340
Width: 610
VWidth: 1507
Flags: W
HStem: -9 21G<405.03 438.5> 102 49<259.188 328.651> 247 47<269.588 351.585> 550 57<332.573 468.494>
VStem: 194 62<154.24 232.959>
Fore
150 430 m 0
 150 458 229 607 413 607 c 0
 507 607 555 560 570 543 c 1
 618 607 l 1
 646 593 663 575 663 551 c 0
 663 541 659 532 653 523 c 2
 600 449 l 2
 585 429 570 419 555 419 c 0
 534 419 524 433 520 449 c 0
 508 506 462 550 401 550 c 0
 330 550 273 486 250 448 c 1
 526 377 l 2
 552 367 572 345 572 324 c 0
 572 320 571 316 570 312 c 2
 517 57 l 2
 507 21 464 -9 413 -9 c 1
 360 124 l 1
 337 109 312 102 285 102 c 0
 220 102 194 148 194 180 c 0
 194 238 255 294 326 294 c 0
 371 294 402 274 415 244 c 2
 443 146 l 1
 481 323 l 1
 359 353 300 372 178 402 c 0
 159 406 150 419 150 430 c 0
315 247 m 256
 280 247 256 219 256 186 c 0
 256 165 272 151 295 151 c 256
 329 151 355 177 355 208 c 0
 355 224 347 247 315 247 c 256
EndSplineSet
EndChar
StartChar: uni0E48.alt2
Encoding: 63242 63242 350
Width: 0
VWidth: 1507
Flags: W
HStem: 686 258<27.2656 46.084>
Fore
66 740 m 2
 58 704 24 686 -35 686 c 1
 8 889 l 2
 15 926 49 944 110 944 c 1
 66 740 l 2
EndSplineSet
Substitution2: "Single Substitution lookup 20 subtable" uni0E48.alt3
Substitution2: "Single Substitution lookup 21 subtable" uni0E48
Substitution2: "Single Substitution lookup 22 subtable" uni0E48.alt1
Substitution2: "Single Substitution lookup 20 subtable" uni0E48.alt3
Substitution2: "Single Substitution lookup 21 subtable" uni0E48
Substitution2: "Single Substitution lookup 22 subtable" uni0E48.alt1
EndChar
StartChar: uni0E49.alt2
Encoding: 63243 63243 351
Width: 0
VWidth: 1507
Flags: W
HStem: 728 21G<-92 -69> 781 42<-145.836 -124> 904 40<-139.209 -67.0773>
VStem: -204 55<825.727 893.67> -65 55<844.088 901.65> 86 72<849.536 935.524>
Fore
-89 944 m 0
 -46 944 -10 918 -10 879 c 0
 -10 858 -24 808 -51 775 c 0
 -69 753 -85 737 -99 728 c 1
 -39 740 35 779 61 841 c 0
 88 904 82 917 86 944 c 1
 98 944 l 2
 134 944 158 927 158 901 c 0
 158 864 113 734 -38 700 c 0
 -78 690 -126 686 -181 686 c 0
 -201 686 -207 698 -207 706 c 0
 -207 729 -153 732 -124 781 c 1
 -168 781 -204 808 -204 847 c 0
 -204 901 -146 944 -89 944 c 0
-98 904 m 256
 -122 904 -149 883 -149 856 c 0
 -149 838 -135 823 -115 823 c 256
 -90 823 -65 845 -65 872 c 0
 -65 889 -78 904 -98 904 c 256
EndSplineSet
Substitution2: "Single Substitution lookup 20 subtable" uni0E49.alt3
Substitution2: "Single Substitution lookup 21 subtable" uni0E49
Substitution2: "Single Substitution lookup 22 subtable" uni0E49.alt1
Substitution2: "Single Substitution lookup 20 subtable" uni0E49.alt3
Substitution2: "Single Substitution lookup 21 subtable" uni0E49
Substitution2: "Single Substitution lookup 22 subtable" uni0E49.alt1
EndChar
StartChar: uni0E4A.alt2
Encoding: 63244 63244 352
Width: 0
VWidth: 1507
Flags: W
HStem: 686 41<-286.614 -215.035> 808 36<-263.22 -207.526> 904 40<-243.466 -171.911 -90.1142 -43.4196>
VStem: -350 61<729.701 819.159> -205 53<737.677 805.716> -39 74<778.368 890.806>
Fore
-63 944 m 0
 -2 944 35 909 35 860 c 0
 35 829 20 782 -3 751 c 1
 22 770 29 786 50 809 c 1
 80 859 89 898 91 920 c 2
 93 944 l 1
 127 944 165 932 165 899 c 0
 165 878 145 807 77 749 c 0
 56 732 -13 686 -81 686 c 0
 -98 686 -107 695 -107 701 c 0
 -107 713 -39 749 -39 856 c 0
 -39 877 -45 904 -72 904 c 0
 -82 904 -105 897 -124 868 c 0
 -130 860 -138 855 -147 855 c 0
 -159 855 -165 861 -167 868 c 0
 -170 886 -183 904 -200 904 c 0
 -235 904 -260 870 -268 838 c 1
 -257 842 -244 844 -231 844 c 0
 -184 844 -152 820 -152 784 c 0
 -152 731 -206 686 -265 686 c 0
 -334 686 -350 754 -350 790 c 0
 -350 850 -291 944 -191 944 c 0
 -159 944 -145 938 -134 921 c 1
 -115 936 -92 944 -63 944 c 0
-240 808 m 256
 -264 808 -289 786 -289 759 c 0
 -289 742 -276 727 -256 727 c 256
 -230 727 -205 752 -205 775 c 0
 -205 795 -221 808 -240 808 c 256
EndSplineSet
Substitution2: "Single Substitution lookup 20 subtable" uni0E4A.alt3
Substitution2: "Single Substitution lookup 21 subtable" uni0E4A
Substitution2: "Single Substitution lookup 22 subtable" uni0E4A.alt1
Substitution2: "Single Substitution lookup 20 subtable" uni0E4A.alt3
Substitution2: "Single Substitution lookup 21 subtable" uni0E4A
Substitution2: "Single Substitution lookup 22 subtable" uni0E4A.alt1
EndChar
StartChar: uni0E4B.alt2
Encoding: 63245 63245 353
Width: 0
VWidth: 1507
Flags: W
HStem: 784 57<-105.868 -12 87 177.987 -124 196 -42 -42>
Fore
196 841 m 1
 188 803 161 784 116 784 c 2
 75 784 l 1
 65 737 l 2
 57 699 24 680 -35 680 c 1
 -12 784 l 1
 -124 784 l 1
 -116 822 -89 841 -42 841 c 2
 0 841 l 1
 8 885 l 2
 17 923 50 942 109 942 c 1
 87 841 l 1
 196 841 l 1
EndSplineSet
Substitution2: "Single Substitution lookup 20 subtable" uni0E4B.alt3
Substitution2: "Single Substitution lookup 21 subtable" uni0E4B
Substitution2: "Single Substitution lookup 22 subtable" uni0E4B.alt1
Substitution2: "Single Substitution lookup 20 subtable" uni0E4B.alt3
Substitution2: "Single Substitution lookup 21 subtable" uni0E4B
Substitution2: "Single Substitution lookup 22 subtable" uni0E4B.alt1
EndChar
StartChar: uni0E4C.alt2
Encoding: 63246 63246 354
Width: 0
VWidth: 1507
Flags: MW
HStem: 686 44<-62.0531 7.69902> 811 41<-20.5487 15.334>
VStem: -130 66<732.137 800.683> 18 56<739.937 809.111>
Fore
136 1043 m 1
 165 1025 170 1001 170 990 c 0
 170 946 84 908 8 879 c 0
 -6 874 -18 859 -21 852 c 1
 -5 852 l 2
 54 852 74 813 74 788 c 0
 74 734 18 686 -41 686 c 0
 -92 686 -130 720 -130 767 c 0
 -130 801 -114 832 -98 856 c 0
 -39 938 53 910 136 1043 c 1
-14 811 m 256
 -37 811 -64 789 -64 762 c 0
 -64 746 -53 730 -32 730 c 256
 -8 730 18 751 18 779 c 0
 18 798 5 811 -14 811 c 256
EndSplineSet
Substitution2: "Single Substitution lookup 20 subtable" uni0E4C.alt3
Substitution2: "Single Substitution lookup 21 subtable" uni0E4C
Substitution2: "Single Substitution lookup 22 subtable" uni0E4C.alt1
Substitution2: "Single Substitution lookup 20 subtable" uni0E4C.alt3
Substitution2: "Single Substitution lookup 21 subtable" uni0E4C
Substitution2: "Single Substitution lookup 22 subtable" uni0E4C.alt1
EndChar
StartChar: uni0E0D.alt1
Encoding: 63247 63247 355
Width: 908
VWidth: 1507
Flags: W
HStem: -9 63<585.516 708.761> -9 48<196.883 278.814> 136 46<246.457 290.501> 550 57<333.769 489.936>
VStem: 132 62<42.3288 103.937> 294 62<53.4486 124.359> 475 93<71.7952 126.977 124.477 129.477 129.477 155.333> 538 93<388.667 405 405 417.988 417.988 419.523 418.756 502.114>
Fore
416 550 m 0xbd
 349 550 268 505 238 413 c 1
 238 410 240 403 244 392 c 2
 255 359 l 2
 259 345 264 330 270 314 c 1
 271 298 l 1
 246 181 l 1
 249 182 255 182 264 182 c 0
 330 182 356 141 356 105 c 0
 356 49 297 -9 223 -9 c 256
 156 -9 132 37 132 67 c 0
 132 74 132 80 134 87 c 2
 178 291 l 1
 143 400 l 1
 168 518 285 607 428 607 c 0
 545 607 631 542 631 443 c 0x7d
 631 431 630 418 627 405 c 2
 570 139 l 2
 569 132 568 126 568 120 c 0
 568 91 586 54 644 54 c 256
 699 54 743 93 752 139 c 2
 838 540 l 2
 846 574 890 606 945 606 c 1
 846 139 l 2
 825 54 731 -9 630 -9 c 256
 539 -9 475 45 475 110 c 0xbe
 475 119 476 129 478 139 c 2
 535 405 l 2
 537 415 538 425 538 434 c 0
 538 504 485 550 416 550 c 0xbd
255 136 m 256
 219 136 194 106 194 75 c 0
 194 53 210 39 234 39 c 256
 268 39 294 67 294 100 c 0
 294 115 286 136 255 136 c 256
EndSplineSet
EndChar
StartChar: uni0E24.liga
Encoding: 63617 63617 368
Width: 964
VWidth: 1507
Flags: W
HStem: -9 48<196.883 278.814> 136 46<246.457 290.501> 550 57<341.337 508.679 731.125 842.777>
VStem: 132 62<42.3288 103.937> 294 62<53.4486 124.359> 869 95<388.629 405 405 420.004 420.004 421.352 420.678 523.19>
Fore
178 291 m 1
 143 400 l 1
 167 518 303 607 443 607 c 0
 508 607 584 584 629 529 c 1
 667 573 728 607 803 607 c 0
 901 607 964 545 964 453 c 0
 964 438 962 422 959 405 c 2
 835 -175 l 2
 827 -213 779 -241 727 -241 c 1
 865 405 l 2
 868 420 869 435 869 449 c 0
 869 489 854 550 791 550 c 0
 736 550 674 493 654 401 c 2
 532 -175 l 2
 524 -213 476 -241 425 -241 c 1
 564 405 l 2
 566 413 566 421 566 428 c 0
 566 479 522 550 431 550 c 256
 346 550 261 491 238 413 c 1
 238 410 240 403 244 392 c 2
 255 359 l 2
 259 345 264 330 270 314 c 1
 271 298 l 1
 246 181 l 1
 249 182 255 182 264 182 c 0
 330 182 356 141 356 105 c 0
 356 49 297 -9 223 -9 c 256
 156 -9 132 37 132 67 c 0
 132 74 132 80 134 87 c 2
 178 291 l 1
255 136 m 256
 219 136 194 106 194 75 c 0
 194 53 210 39 234 39 c 256
 268 39 294 67 294 100 c 0
 294 115 286 136 255 136 c 256
EndSplineSet
LCarets2: 1 0 
Ligature2: "'liga' Standard Ligatures in Latin lookup 19 subtable" uni0E24 uni0E45
Ligature2: "'liga' Standard Ligatures in Latin lookup 19 subtable" uni0E24 uni0E32
EndChar
StartChar: uni0E26.liga
Encoding: 63618 63618 369
Width: 991
VWidth: 1507
Flags: W
HStem: -9 48<125.188 206.399> 136 46<136.211 211.712> 550 57<370.224 535.587 759.749 870.25>
VStem: 60 62<42.5286 120.912> 896 95<388.629 405 405 420.004 420.004 421.352 420.678 523.19>
Fore
232 288 m 1
 170 396 l 1
 170 458 277 607 469 607 c 0
 534 607 613 585 654 529 c 1
 702 581 765 607 831 607 c 0
 929 607 991 545 991 453 c 0
 991 438 989 422 986 405 c 2
 862 -175 l 2
 854 -213 806 -241 754 -241 c 1
 892 405 l 2
 895 420 896 435 896 449 c 0
 896 489 881 550 818 550 c 0
 764 550 699 488 683 405 c 2
 559 -175 l 2
 551 -213 503 -241 452 -241 c 1
 591 405 l 2
 593 414 594 422 594 430 c 0
 594 495 537 550 457 550 c 0
 369 550 286 485 265 413 c 1
 269 402 281 380 294 360 c 2
 320 317 l 1
 326 306 l 2
 327 303 328 301 328 300 c 0
 328 299 328 298 327 297 c 1
 283 87 l 2
 272 38 216 -9 151 -9 c 0
 86 -9 60 37 60 68 c 0
 60 132 124 182 191 182 c 0
 199 182 205 182 210 181 c 1
 232 288 l 1
182 136 m 256
 144 136 122 104 122 74 c 0
 122 53 138 39 161 39 c 256
 195 39 222 66 222 100 c 0
 222 122 206 136 182 136 c 256
EndSplineSet
LCarets2: 1 0 
Ligature2: "'liga' Standard Ligatures in Latin lookup 19 subtable" uni0E26 uni0E45
Ligature2: "'liga' Standard Ligatures in Latin lookup 19 subtable" uni0E26 uni0E32
EndChar
StartChar: fi
Encoding: 64257 64257 370
Width: 566
VWidth: 1507
Flags: W
HStem: -9 21G<100.283 126.5 388.283 413.5> 458 54<126.594 196 298 484> 597 107<519.103 616.957> 669 56<349.518 445.196>
VStem: 498 139<617.364 682.719>
Fore
457 653 m 1xd8
 423 667 417 669 407 669 c 0
 357 669 323 631 314 586 c 2
 298 512 l 1
 585 512 l 1
 485 48 l 2
 477 10 443 -9 384 -9 c 1
 484 458 l 1
 286 458 l 1
 199 48 l 2
 191 10 157 -9 96 -9 c 1
 196 458 l 1
 110 458 l 1
 118 494 144 512 188 512 c 2
 208 512 l 1
 223 586 l 2
 237 655 305 725 419 725 c 0
 462 725 469 701 469 686 c 0
 469 675 465 664 457 653 c 1xd8
580 704 m 256xe8
 538 704 498 677 498 641 c 0
 498 624 514 597 558 597 c 256
 603 597 637 627 637 661 c 0
 637 678 624 704 580 704 c 256xe8
EndSplineSet
LCarets2: 1 0 
Ligature2: "'liga' Standard Ligatures in Latin lookup 19 subtable" f i
EndChar
StartChar: fl
Encoding: 64258 64258 371
Width: 621
VWidth: 1507
Flags: W
HStem: -9 56<512.244 593.693> 458 54<126.594 196 298 375.406> 669 56<349.518 463.951>
VStem: 412 89<59.0376 116.988 115 118.977 118.977 146.482>
Fore
550 -9 m 0
 439 -9 412 56 412 100 c 0
 412 110 413 120 415 130 c 2
 525 648 l 1
 486 662 446 669 407 669 c 0
 357 669 323 631 314 586 c 2
 298 512 l 1
 392 512 l 1
 384 476 358 458 314 458 c 2
 286 458 l 1
 199 48 l 2
 191 10 157 -9 96 -9 c 1
 196 458 l 1
 110 458 l 1
 118 494 144 512 188 512 c 2
 208 512 l 1
 223 586 l 2
 237 655 305 725 419 725 c 0
 470 725 561 715 616 665 c 1
 503 130 l 2
 501 122 501 115 501 108 c 0
 501 81 513 47 562 47 c 0
 573 47 593 53 620 65 c 1
 621 60 622 56 622 51 c 0
 622 32 606 -9 550 -9 c 0
EndSplineSet
LCarets2: 1 0 
Ligature2: "'liga' Standard Ligatures in Latin lookup 19 subtable" f l
EndChar
